G04 #@! TF.GenerationSoftware,KiCad,Pcbnew,7.0.10-7.0.10~ubuntu22.04.1*
G04 #@! TF.CreationDate,2024-07-08T12:41:38-07:00*
G04 #@! TF.ProjectId,driver_cplex_rp2040,64726976-6572-45f6-9370-6c65785f7270,rev?*
G04 #@! TF.SameCoordinates,Original*
G04 #@! TF.FileFunction,Legend,Top*
G04 #@! TF.FilePolarity,Positive*
%FSLAX46Y46*%
G04 Gerber Fmt 4.6, Leading zero omitted, Abs format (unit mm)*
G04 Created by KiCad (PCBNEW 7.0.10-7.0.10~ubuntu22.04.1) date 2024-07-08 12:41:38*
%MOMM*%
%LPD*%
G01*
G04 APERTURE LIST*
G04 Aperture macros list*
%AMRoundRect*
0 Rectangle with rounded corners*
0 $1 Rounding radius*
0 $2 $3 $4 $5 $6 $7 $8 $9 X,Y pos of 4 corners*
0 Add a 4 corners polygon primitive as box body*
4,1,4,$2,$3,$4,$5,$6,$7,$8,$9,$2,$3,0*
0 Add four circle primitives for the rounded corners*
1,1,$1+$1,$2,$3*
1,1,$1+$1,$4,$5*
1,1,$1+$1,$6,$7*
1,1,$1+$1,$8,$9*
0 Add four rect primitives between the rounded corners*
20,1,$1+$1,$2,$3,$4,$5,0*
20,1,$1+$1,$4,$5,$6,$7,0*
20,1,$1+$1,$6,$7,$8,$9,0*
20,1,$1+$1,$8,$9,$2,$3,0*%
G04 Aperture macros list end*
%ADD10C,0.200000*%
%ADD11C,0.100000*%
%ADD12RoundRect,0.147500X-0.017678X0.226274X-0.226274X0.017678X0.017678X-0.226274X0.226274X-0.017678X0*%
G04 APERTURE END LIST*
D10*
X50000000Y-70000000D02*
X90000000Y-70000000D01*
X70000000Y-50000000D02*
X70000000Y-90000000D01*
D11*
X79570746Y-62979254D02*
G75*
G03*
X79470746Y-62979254I-50000J0D01*
G01*
X79470746Y-62979254D02*
G75*
G03*
X79570746Y-62979254I50000J0D01*
G01*
X77070746Y-82979254D02*
G75*
G03*
X76970746Y-82979254I-50000J0D01*
G01*
X76970746Y-82979254D02*
G75*
G03*
X77070746Y-82979254I50000J0D01*
G01*
X77070746Y-62979254D02*
G75*
G03*
X76970746Y-62979254I-50000J0D01*
G01*
X76970746Y-62979254D02*
G75*
G03*
X77070746Y-62979254I50000J0D01*
G01*
X74570746Y-82979254D02*
G75*
G03*
X74470746Y-82979254I-50000J0D01*
G01*
X74470746Y-82979254D02*
G75*
G03*
X74570746Y-82979254I50000J0D01*
G01*
X74570746Y-62979254D02*
G75*
G03*
X74470746Y-62979254I-50000J0D01*
G01*
X74470746Y-62979254D02*
G75*
G03*
X74570746Y-62979254I50000J0D01*
G01*
X72070746Y-82979254D02*
G75*
G03*
X71970746Y-82979254I-50000J0D01*
G01*
X71970746Y-82979254D02*
G75*
G03*
X72070746Y-82979254I50000J0D01*
G01*
X72070746Y-62979254D02*
G75*
G03*
X71970746Y-62979254I-50000J0D01*
G01*
X71970746Y-62979254D02*
G75*
G03*
X72070746Y-62979254I50000J0D01*
G01*
X79570746Y-80479254D02*
G75*
G03*
X79470746Y-80479254I-50000J0D01*
G01*
X79470746Y-80479254D02*
G75*
G03*
X79570746Y-80479254I50000J0D01*
G01*
X79570746Y-60479254D02*
G75*
G03*
X79470746Y-60479254I-50000J0D01*
G01*
X79470746Y-60479254D02*
G75*
G03*
X79570746Y-60479254I50000J0D01*
G01*
X77070746Y-80479254D02*
G75*
G03*
X76970746Y-80479254I-50000J0D01*
G01*
X76970746Y-80479254D02*
G75*
G03*
X77070746Y-80479254I50000J0D01*
G01*
X77070746Y-60479254D02*
G75*
G03*
X76970746Y-60479254I-50000J0D01*
G01*
X76970746Y-60479254D02*
G75*
G03*
X77070746Y-60479254I50000J0D01*
G01*
X74570746Y-80479254D02*
G75*
G03*
X74470746Y-80479254I-50000J0D01*
G01*
X74470746Y-80479254D02*
G75*
G03*
X74570746Y-80479254I50000J0D01*
G01*
X74570746Y-60479254D02*
G75*
G03*
X74470746Y-60479254I-50000J0D01*
G01*
X74470746Y-60479254D02*
G75*
G03*
X74570746Y-60479254I50000J0D01*
G01*
X72070746Y-80479254D02*
G75*
G03*
X71970746Y-80479254I-50000J0D01*
G01*
X71970746Y-80479254D02*
G75*
G03*
X72070746Y-80479254I50000J0D01*
G01*
X79570746Y-77979254D02*
G75*
G03*
X79470746Y-77979254I-50000J0D01*
G01*
X79470746Y-77979254D02*
G75*
G03*
X79570746Y-77979254I50000J0D01*
G01*
X72070746Y-60479254D02*
G75*
G03*
X71970746Y-60479254I-50000J0D01*
G01*
X71970746Y-60479254D02*
G75*
G03*
X72070746Y-60479254I50000J0D01*
G01*
X79570746Y-85479254D02*
G75*
G03*
X79470746Y-85479254I-50000J0D01*
G01*
X79470746Y-85479254D02*
G75*
G03*
X79570746Y-85479254I50000J0D01*
G01*
X77070746Y-67979254D02*
G75*
G03*
X76970746Y-67979254I-50000J0D01*
G01*
X76970746Y-67979254D02*
G75*
G03*
X77070746Y-67979254I50000J0D01*
G01*
X77070746Y-87979254D02*
G75*
G03*
X76970746Y-87979254I-50000J0D01*
G01*
X76970746Y-87979254D02*
G75*
G03*
X77070746Y-87979254I50000J0D01*
G01*
X69570746Y-87979254D02*
G75*
G03*
X69470746Y-87979254I-50000J0D01*
G01*
X69470746Y-87979254D02*
G75*
G03*
X69570746Y-87979254I50000J0D01*
G01*
X79570746Y-67979254D02*
G75*
G03*
X79470746Y-67979254I-50000J0D01*
G01*
X79470746Y-67979254D02*
G75*
G03*
X79570746Y-67979254I50000J0D01*
G01*
X74570746Y-87979254D02*
G75*
G03*
X74470746Y-87979254I-50000J0D01*
G01*
X74470746Y-87979254D02*
G75*
G03*
X74570746Y-87979254I50000J0D01*
G01*
X74570746Y-67979254D02*
G75*
G03*
X74470746Y-67979254I-50000J0D01*
G01*
X74470746Y-67979254D02*
G75*
G03*
X74570746Y-67979254I50000J0D01*
G01*
X72070746Y-87979254D02*
G75*
G03*
X71970746Y-87979254I-50000J0D01*
G01*
X71970746Y-87979254D02*
G75*
G03*
X72070746Y-87979254I50000J0D01*
G01*
X72070746Y-67979254D02*
G75*
G03*
X71970746Y-67979254I-50000J0D01*
G01*
X71970746Y-67979254D02*
G75*
G03*
X72070746Y-67979254I50000J0D01*
G01*
X79570746Y-82979254D02*
G75*
G03*
X79470746Y-82979254I-50000J0D01*
G01*
X79470746Y-82979254D02*
G75*
G03*
X79570746Y-82979254I50000J0D01*
G01*
X79570746Y-65479254D02*
G75*
G03*
X79470746Y-65479254I-50000J0D01*
G01*
X79470746Y-65479254D02*
G75*
G03*
X79570746Y-65479254I50000J0D01*
G01*
X77070746Y-85479254D02*
G75*
G03*
X76970746Y-85479254I-50000J0D01*
G01*
X76970746Y-85479254D02*
G75*
G03*
X77070746Y-85479254I50000J0D01*
G01*
X77070746Y-65479254D02*
G75*
G03*
X76970746Y-65479254I-50000J0D01*
G01*
X76970746Y-65479254D02*
G75*
G03*
X77070746Y-65479254I50000J0D01*
G01*
X74570746Y-85479254D02*
G75*
G03*
X74470746Y-85479254I-50000J0D01*
G01*
X74470746Y-85479254D02*
G75*
G03*
X74570746Y-85479254I50000J0D01*
G01*
X74570746Y-65479254D02*
G75*
G03*
X74470746Y-65479254I-50000J0D01*
G01*
X74470746Y-65479254D02*
G75*
G03*
X74570746Y-65479254I50000J0D01*
G01*
X72070746Y-85479254D02*
G75*
G03*
X71970746Y-85479254I-50000J0D01*
G01*
X71970746Y-85479254D02*
G75*
G03*
X72070746Y-85479254I50000J0D01*
G01*
X72070746Y-65479254D02*
G75*
G03*
X71970746Y-65479254I-50000J0D01*
G01*
X71970746Y-65479254D02*
G75*
G03*
X72070746Y-65479254I50000J0D01*
G01*
X79570746Y-52979254D02*
G75*
G03*
X79470746Y-52979254I-50000J0D01*
G01*
X79470746Y-52979254D02*
G75*
G03*
X79570746Y-52979254I50000J0D01*
G01*
X69570746Y-65479254D02*
G75*
G03*
X69470746Y-65479254I-50000J0D01*
G01*
X69470746Y-65479254D02*
G75*
G03*
X69570746Y-65479254I50000J0D01*
G01*
X72070746Y-50479254D02*
G75*
G03*
X71970746Y-50479254I-50000J0D01*
G01*
X71970746Y-50479254D02*
G75*
G03*
X72070746Y-50479254I50000J0D01*
G01*
X72070746Y-70479254D02*
G75*
G03*
X71970746Y-70479254I-50000J0D01*
G01*
X71970746Y-70479254D02*
G75*
G03*
X72070746Y-70479254I50000J0D01*
G01*
X74570746Y-50479254D02*
G75*
G03*
X74470746Y-50479254I-50000J0D01*
G01*
X74470746Y-50479254D02*
G75*
G03*
X74570746Y-50479254I50000J0D01*
G01*
X74570746Y-70479254D02*
G75*
G03*
X74470746Y-70479254I-50000J0D01*
G01*
X74470746Y-70479254D02*
G75*
G03*
X74570746Y-70479254I50000J0D01*
G01*
X77070746Y-50479254D02*
G75*
G03*
X76970746Y-50479254I-50000J0D01*
G01*
X76970746Y-50479254D02*
G75*
G03*
X77070746Y-50479254I50000J0D01*
G01*
X77070746Y-70479254D02*
G75*
G03*
X76970746Y-70479254I-50000J0D01*
G01*
X76970746Y-70479254D02*
G75*
G03*
X77070746Y-70479254I50000J0D01*
G01*
X79570746Y-50479254D02*
G75*
G03*
X79470746Y-50479254I-50000J0D01*
G01*
X79470746Y-50479254D02*
G75*
G03*
X79570746Y-50479254I50000J0D01*
G01*
X79570746Y-70479254D02*
G75*
G03*
X79470746Y-70479254I-50000J0D01*
G01*
X79470746Y-70479254D02*
G75*
G03*
X79570746Y-70479254I50000J0D01*
G01*
X72070746Y-52979254D02*
G75*
G03*
X71970746Y-52979254I-50000J0D01*
G01*
X71970746Y-52979254D02*
G75*
G03*
X72070746Y-52979254I50000J0D01*
G01*
X72070746Y-72979254D02*
G75*
G03*
X71970746Y-72979254I-50000J0D01*
G01*
X71970746Y-72979254D02*
G75*
G03*
X72070746Y-72979254I50000J0D01*
G01*
X74570746Y-52979254D02*
G75*
G03*
X74470746Y-52979254I-50000J0D01*
G01*
X74470746Y-52979254D02*
G75*
G03*
X74570746Y-52979254I50000J0D01*
G01*
X74570746Y-72979254D02*
G75*
G03*
X74470746Y-72979254I-50000J0D01*
G01*
X74470746Y-72979254D02*
G75*
G03*
X74570746Y-72979254I50000J0D01*
G01*
X77070746Y-52979254D02*
G75*
G03*
X76970746Y-52979254I-50000J0D01*
G01*
X76970746Y-52979254D02*
G75*
G03*
X77070746Y-52979254I50000J0D01*
G01*
X77070746Y-72979254D02*
G75*
G03*
X76970746Y-72979254I-50000J0D01*
G01*
X76970746Y-72979254D02*
G75*
G03*
X77070746Y-72979254I50000J0D01*
G01*
X79570746Y-57979254D02*
G75*
G03*
X79470746Y-57979254I-50000J0D01*
G01*
X79470746Y-57979254D02*
G75*
G03*
X79570746Y-57979254I50000J0D01*
G01*
X79570746Y-72979254D02*
G75*
G03*
X79470746Y-72979254I-50000J0D01*
G01*
X79470746Y-72979254D02*
G75*
G03*
X79570746Y-72979254I50000J0D01*
G01*
X72070746Y-55479254D02*
G75*
G03*
X71970746Y-55479254I-50000J0D01*
G01*
X71970746Y-55479254D02*
G75*
G03*
X72070746Y-55479254I50000J0D01*
G01*
X72070746Y-75479254D02*
G75*
G03*
X71970746Y-75479254I-50000J0D01*
G01*
X71970746Y-75479254D02*
G75*
G03*
X72070746Y-75479254I50000J0D01*
G01*
X74570746Y-55479254D02*
G75*
G03*
X74470746Y-55479254I-50000J0D01*
G01*
X74470746Y-55479254D02*
G75*
G03*
X74570746Y-55479254I50000J0D01*
G01*
X74570746Y-75479254D02*
G75*
G03*
X74470746Y-75479254I-50000J0D01*
G01*
X74470746Y-75479254D02*
G75*
G03*
X74570746Y-75479254I50000J0D01*
G01*
X77070746Y-55479254D02*
G75*
G03*
X76970746Y-55479254I-50000J0D01*
G01*
X76970746Y-55479254D02*
G75*
G03*
X77070746Y-55479254I50000J0D01*
G01*
X77070746Y-75479254D02*
G75*
G03*
X76970746Y-75479254I-50000J0D01*
G01*
X76970746Y-75479254D02*
G75*
G03*
X77070746Y-75479254I50000J0D01*
G01*
X79570746Y-55479254D02*
G75*
G03*
X79470746Y-55479254I-50000J0D01*
G01*
X79470746Y-55479254D02*
G75*
G03*
X79570746Y-55479254I50000J0D01*
G01*
X79570746Y-75479254D02*
G75*
G03*
X79470746Y-75479254I-50000J0D01*
G01*
X79470746Y-75479254D02*
G75*
G03*
X79570746Y-75479254I50000J0D01*
G01*
X72070746Y-57979254D02*
G75*
G03*
X71970746Y-57979254I-50000J0D01*
G01*
X71970746Y-57979254D02*
G75*
G03*
X72070746Y-57979254I50000J0D01*
G01*
X72070746Y-77979254D02*
G75*
G03*
X71970746Y-77979254I-50000J0D01*
G01*
X71970746Y-77979254D02*
G75*
G03*
X72070746Y-77979254I50000J0D01*
G01*
X74570746Y-57979254D02*
G75*
G03*
X74470746Y-57979254I-50000J0D01*
G01*
X74470746Y-57979254D02*
G75*
G03*
X74570746Y-57979254I50000J0D01*
G01*
X74570746Y-77979254D02*
G75*
G03*
X74470746Y-77979254I-50000J0D01*
G01*
X74470746Y-77979254D02*
G75*
G03*
X74570746Y-77979254I50000J0D01*
G01*
X77070746Y-57979254D02*
G75*
G03*
X76970746Y-57979254I-50000J0D01*
G01*
X76970746Y-57979254D02*
G75*
G03*
X77070746Y-57979254I50000J0D01*
G01*
X77070746Y-77979254D02*
G75*
G03*
X76970746Y-77979254I-50000J0D01*
G01*
X76970746Y-77979254D02*
G75*
G03*
X77070746Y-77979254I50000J0D01*
G01*
X89570746Y-80479254D02*
G75*
G03*
X89470746Y-80479254I-50000J0D01*
G01*
X89470746Y-80479254D02*
G75*
G03*
X89570746Y-80479254I50000J0D01*
G01*
X89570746Y-82979254D02*
G75*
G03*
X89470746Y-82979254I-50000J0D01*
G01*
X89470746Y-82979254D02*
G75*
G03*
X89570746Y-82979254I50000J0D01*
G01*
X89570746Y-62979254D02*
G75*
G03*
X89470746Y-62979254I-50000J0D01*
G01*
X89470746Y-62979254D02*
G75*
G03*
X89570746Y-62979254I50000J0D01*
G01*
X87070746Y-82979254D02*
G75*
G03*
X86970746Y-82979254I-50000J0D01*
G01*
X86970746Y-82979254D02*
G75*
G03*
X87070746Y-82979254I50000J0D01*
G01*
X87070746Y-62979254D02*
G75*
G03*
X86970746Y-62979254I-50000J0D01*
G01*
X86970746Y-62979254D02*
G75*
G03*
X87070746Y-62979254I50000J0D01*
G01*
X84570746Y-82979254D02*
G75*
G03*
X84470746Y-82979254I-50000J0D01*
G01*
X84470746Y-82979254D02*
G75*
G03*
X84570746Y-82979254I50000J0D01*
G01*
X84570746Y-62979254D02*
G75*
G03*
X84470746Y-62979254I-50000J0D01*
G01*
X84470746Y-62979254D02*
G75*
G03*
X84570746Y-62979254I50000J0D01*
G01*
X82070746Y-82979254D02*
G75*
G03*
X81970746Y-82979254I-50000J0D01*
G01*
X81970746Y-82979254D02*
G75*
G03*
X82070746Y-82979254I50000J0D01*
G01*
X82070746Y-62979254D02*
G75*
G03*
X81970746Y-62979254I-50000J0D01*
G01*
X81970746Y-62979254D02*
G75*
G03*
X82070746Y-62979254I50000J0D01*
G01*
X82070746Y-65479254D02*
G75*
G03*
X81970746Y-65479254I-50000J0D01*
G01*
X81970746Y-65479254D02*
G75*
G03*
X82070746Y-65479254I50000J0D01*
G01*
X89570746Y-60479254D02*
G75*
G03*
X89470746Y-60479254I-50000J0D01*
G01*
X89470746Y-60479254D02*
G75*
G03*
X89570746Y-60479254I50000J0D01*
G01*
X87070746Y-80479254D02*
G75*
G03*
X86970746Y-80479254I-50000J0D01*
G01*
X86970746Y-80479254D02*
G75*
G03*
X87070746Y-80479254I50000J0D01*
G01*
X87070746Y-60479254D02*
G75*
G03*
X86970746Y-60479254I-50000J0D01*
G01*
X86970746Y-60479254D02*
G75*
G03*
X87070746Y-60479254I50000J0D01*
G01*
X84570746Y-80479254D02*
G75*
G03*
X84470746Y-80479254I-50000J0D01*
G01*
X84470746Y-80479254D02*
G75*
G03*
X84570746Y-80479254I50000J0D01*
G01*
X84570746Y-60479254D02*
G75*
G03*
X84470746Y-60479254I-50000J0D01*
G01*
X84470746Y-60479254D02*
G75*
G03*
X84570746Y-60479254I50000J0D01*
G01*
X82070746Y-80479254D02*
G75*
G03*
X81970746Y-80479254I-50000J0D01*
G01*
X81970746Y-80479254D02*
G75*
G03*
X82070746Y-80479254I50000J0D01*
G01*
X82070746Y-60479254D02*
G75*
G03*
X81970746Y-60479254I-50000J0D01*
G01*
X81970746Y-60479254D02*
G75*
G03*
X82070746Y-60479254I50000J0D01*
G01*
X89570746Y-77979254D02*
G75*
G03*
X89470746Y-77979254I-50000J0D01*
G01*
X89470746Y-77979254D02*
G75*
G03*
X89570746Y-77979254I50000J0D01*
G01*
X82070746Y-85479254D02*
G75*
G03*
X81970746Y-85479254I-50000J0D01*
G01*
X81970746Y-85479254D02*
G75*
G03*
X82070746Y-85479254I50000J0D01*
G01*
X84570746Y-65479254D02*
G75*
G03*
X84470746Y-65479254I-50000J0D01*
G01*
X84470746Y-65479254D02*
G75*
G03*
X84570746Y-65479254I50000J0D01*
G01*
X84570746Y-85479254D02*
G75*
G03*
X84470746Y-85479254I-50000J0D01*
G01*
X84470746Y-85479254D02*
G75*
G03*
X84570746Y-85479254I50000J0D01*
G01*
X87070746Y-65479254D02*
G75*
G03*
X86970746Y-65479254I-50000J0D01*
G01*
X86970746Y-65479254D02*
G75*
G03*
X87070746Y-65479254I50000J0D01*
G01*
X87070746Y-85479254D02*
G75*
G03*
X86970746Y-85479254I-50000J0D01*
G01*
X86970746Y-85479254D02*
G75*
G03*
X87070746Y-85479254I50000J0D01*
G01*
X89570746Y-65479254D02*
G75*
G03*
X89470746Y-65479254I-50000J0D01*
G01*
X89470746Y-65479254D02*
G75*
G03*
X89570746Y-65479254I50000J0D01*
G01*
X89570746Y-85479254D02*
G75*
G03*
X89470746Y-85479254I-50000J0D01*
G01*
X89470746Y-85479254D02*
G75*
G03*
X89570746Y-85479254I50000J0D01*
G01*
X82070746Y-67979254D02*
G75*
G03*
X81970746Y-67979254I-50000J0D01*
G01*
X81970746Y-67979254D02*
G75*
G03*
X82070746Y-67979254I50000J0D01*
G01*
X82070746Y-87979254D02*
G75*
G03*
X81970746Y-87979254I-50000J0D01*
G01*
X81970746Y-87979254D02*
G75*
G03*
X82070746Y-87979254I50000J0D01*
G01*
X84570746Y-67979254D02*
G75*
G03*
X84470746Y-67979254I-50000J0D01*
G01*
X84470746Y-67979254D02*
G75*
G03*
X84570746Y-67979254I50000J0D01*
G01*
X84570746Y-87979254D02*
G75*
G03*
X84470746Y-87979254I-50000J0D01*
G01*
X84470746Y-87979254D02*
G75*
G03*
X84570746Y-87979254I50000J0D01*
G01*
X87070746Y-67979254D02*
G75*
G03*
X86970746Y-67979254I-50000J0D01*
G01*
X86970746Y-67979254D02*
G75*
G03*
X87070746Y-67979254I50000J0D01*
G01*
X87070746Y-87979254D02*
G75*
G03*
X86970746Y-87979254I-50000J0D01*
G01*
X86970746Y-87979254D02*
G75*
G03*
X87070746Y-87979254I50000J0D01*
G01*
X89570746Y-67979254D02*
G75*
G03*
X89470746Y-67979254I-50000J0D01*
G01*
X89470746Y-67979254D02*
G75*
G03*
X89570746Y-67979254I50000J0D01*
G01*
X89570746Y-87979254D02*
G75*
G03*
X89470746Y-87979254I-50000J0D01*
G01*
X89470746Y-87979254D02*
G75*
G03*
X89570746Y-87979254I50000J0D01*
G01*
X89570746Y-72979254D02*
G75*
G03*
X89470746Y-72979254I-50000J0D01*
G01*
X89470746Y-72979254D02*
G75*
G03*
X89570746Y-72979254I50000J0D01*
G01*
X82070746Y-50479254D02*
G75*
G03*
X81970746Y-50479254I-50000J0D01*
G01*
X81970746Y-50479254D02*
G75*
G03*
X82070746Y-50479254I50000J0D01*
G01*
X82070746Y-70479254D02*
G75*
G03*
X81970746Y-70479254I-50000J0D01*
G01*
X81970746Y-70479254D02*
G75*
G03*
X82070746Y-70479254I50000J0D01*
G01*
X84570746Y-50479254D02*
G75*
G03*
X84470746Y-50479254I-50000J0D01*
G01*
X84470746Y-50479254D02*
G75*
G03*
X84570746Y-50479254I50000J0D01*
G01*
X84570746Y-70479254D02*
G75*
G03*
X84470746Y-70479254I-50000J0D01*
G01*
X84470746Y-70479254D02*
G75*
G03*
X84570746Y-70479254I50000J0D01*
G01*
X87070746Y-50479254D02*
G75*
G03*
X86970746Y-50479254I-50000J0D01*
G01*
X86970746Y-50479254D02*
G75*
G03*
X87070746Y-50479254I50000J0D01*
G01*
X87070746Y-70479254D02*
G75*
G03*
X86970746Y-70479254I-50000J0D01*
G01*
X86970746Y-70479254D02*
G75*
G03*
X87070746Y-70479254I50000J0D01*
G01*
X89570746Y-50479254D02*
G75*
G03*
X89470746Y-50479254I-50000J0D01*
G01*
X89470746Y-50479254D02*
G75*
G03*
X89570746Y-50479254I50000J0D01*
G01*
X89570746Y-70479254D02*
G75*
G03*
X89470746Y-70479254I-50000J0D01*
G01*
X89470746Y-70479254D02*
G75*
G03*
X89570746Y-70479254I50000J0D01*
G01*
X82070746Y-52979254D02*
G75*
G03*
X81970746Y-52979254I-50000J0D01*
G01*
X81970746Y-52979254D02*
G75*
G03*
X82070746Y-52979254I50000J0D01*
G01*
X82070746Y-72979254D02*
G75*
G03*
X81970746Y-72979254I-50000J0D01*
G01*
X81970746Y-72979254D02*
G75*
G03*
X82070746Y-72979254I50000J0D01*
G01*
X84570746Y-52979254D02*
G75*
G03*
X84470746Y-52979254I-50000J0D01*
G01*
X84470746Y-52979254D02*
G75*
G03*
X84570746Y-52979254I50000J0D01*
G01*
X84570746Y-72979254D02*
G75*
G03*
X84470746Y-72979254I-50000J0D01*
G01*
X84470746Y-72979254D02*
G75*
G03*
X84570746Y-72979254I50000J0D01*
G01*
X87070746Y-52979254D02*
G75*
G03*
X86970746Y-52979254I-50000J0D01*
G01*
X86970746Y-52979254D02*
G75*
G03*
X87070746Y-52979254I50000J0D01*
G01*
X87070746Y-72979254D02*
G75*
G03*
X86970746Y-72979254I-50000J0D01*
G01*
X86970746Y-72979254D02*
G75*
G03*
X87070746Y-72979254I50000J0D01*
G01*
X89570746Y-52979254D02*
G75*
G03*
X89470746Y-52979254I-50000J0D01*
G01*
X89470746Y-52979254D02*
G75*
G03*
X89570746Y-52979254I50000J0D01*
G01*
X79570746Y-87979254D02*
G75*
G03*
X79470746Y-87979254I-50000J0D01*
G01*
X79470746Y-87979254D02*
G75*
G03*
X79570746Y-87979254I50000J0D01*
G01*
X82070746Y-55479254D02*
G75*
G03*
X81970746Y-55479254I-50000J0D01*
G01*
X81970746Y-55479254D02*
G75*
G03*
X82070746Y-55479254I50000J0D01*
G01*
X82070746Y-75479254D02*
G75*
G03*
X81970746Y-75479254I-50000J0D01*
G01*
X81970746Y-75479254D02*
G75*
G03*
X82070746Y-75479254I50000J0D01*
G01*
X84570746Y-55479254D02*
G75*
G03*
X84470746Y-55479254I-50000J0D01*
G01*
X84470746Y-55479254D02*
G75*
G03*
X84570746Y-55479254I50000J0D01*
G01*
X84570746Y-75479254D02*
G75*
G03*
X84470746Y-75479254I-50000J0D01*
G01*
X84470746Y-75479254D02*
G75*
G03*
X84570746Y-75479254I50000J0D01*
G01*
X87070746Y-55479254D02*
G75*
G03*
X86970746Y-55479254I-50000J0D01*
G01*
X86970746Y-55479254D02*
G75*
G03*
X87070746Y-55479254I50000J0D01*
G01*
X87070746Y-75479254D02*
G75*
G03*
X86970746Y-75479254I-50000J0D01*
G01*
X86970746Y-75479254D02*
G75*
G03*
X87070746Y-75479254I50000J0D01*
G01*
X89570746Y-55479254D02*
G75*
G03*
X89470746Y-55479254I-50000J0D01*
G01*
X89470746Y-55479254D02*
G75*
G03*
X89570746Y-55479254I50000J0D01*
G01*
X89570746Y-75479254D02*
G75*
G03*
X89470746Y-75479254I-50000J0D01*
G01*
X89470746Y-75479254D02*
G75*
G03*
X89570746Y-75479254I50000J0D01*
G01*
X82070746Y-57979254D02*
G75*
G03*
X81970746Y-57979254I-50000J0D01*
G01*
X81970746Y-57979254D02*
G75*
G03*
X82070746Y-57979254I50000J0D01*
G01*
X82070746Y-77979254D02*
G75*
G03*
X81970746Y-77979254I-50000J0D01*
G01*
X81970746Y-77979254D02*
G75*
G03*
X82070746Y-77979254I50000J0D01*
G01*
X84570746Y-57979254D02*
G75*
G03*
X84470746Y-57979254I-50000J0D01*
G01*
X84470746Y-57979254D02*
G75*
G03*
X84570746Y-57979254I50000J0D01*
G01*
X84570746Y-77979254D02*
G75*
G03*
X84470746Y-77979254I-50000J0D01*
G01*
X84470746Y-77979254D02*
G75*
G03*
X84570746Y-77979254I50000J0D01*
G01*
X87070746Y-57979254D02*
G75*
G03*
X86970746Y-57979254I-50000J0D01*
G01*
X86970746Y-57979254D02*
G75*
G03*
X87070746Y-57979254I50000J0D01*
G01*
X87070746Y-77979254D02*
G75*
G03*
X86970746Y-77979254I-50000J0D01*
G01*
X86970746Y-77979254D02*
G75*
G03*
X87070746Y-77979254I50000J0D01*
G01*
X89570746Y-57979254D02*
G75*
G03*
X89470746Y-57979254I-50000J0D01*
G01*
X89470746Y-57979254D02*
G75*
G03*
X89570746Y-57979254I50000J0D01*
G01*
X59570746Y-82979254D02*
G75*
G03*
X59470746Y-82979254I-50000J0D01*
G01*
X59470746Y-82979254D02*
G75*
G03*
X59570746Y-82979254I50000J0D01*
G01*
X52070746Y-60479254D02*
G75*
G03*
X51970746Y-60479254I-50000J0D01*
G01*
X51970746Y-60479254D02*
G75*
G03*
X52070746Y-60479254I50000J0D01*
G01*
X52070746Y-80479254D02*
G75*
G03*
X51970746Y-80479254I-50000J0D01*
G01*
X51970746Y-80479254D02*
G75*
G03*
X52070746Y-80479254I50000J0D01*
G01*
X54570746Y-60479254D02*
G75*
G03*
X54470746Y-60479254I-50000J0D01*
G01*
X54470746Y-60479254D02*
G75*
G03*
X54570746Y-60479254I50000J0D01*
G01*
X54570746Y-80479254D02*
G75*
G03*
X54470746Y-80479254I-50000J0D01*
G01*
X54470746Y-80479254D02*
G75*
G03*
X54570746Y-80479254I50000J0D01*
G01*
X57070746Y-60479254D02*
G75*
G03*
X56970746Y-60479254I-50000J0D01*
G01*
X56970746Y-60479254D02*
G75*
G03*
X57070746Y-60479254I50000J0D01*
G01*
X57070746Y-80479254D02*
G75*
G03*
X56970746Y-80479254I-50000J0D01*
G01*
X56970746Y-80479254D02*
G75*
G03*
X57070746Y-80479254I50000J0D01*
G01*
X59570746Y-60479254D02*
G75*
G03*
X59470746Y-60479254I-50000J0D01*
G01*
X59470746Y-60479254D02*
G75*
G03*
X59570746Y-60479254I50000J0D01*
G01*
X59570746Y-80479254D02*
G75*
G03*
X59470746Y-80479254I-50000J0D01*
G01*
X59470746Y-80479254D02*
G75*
G03*
X59570746Y-80479254I50000J0D01*
G01*
X52070746Y-62979254D02*
G75*
G03*
X51970746Y-62979254I-50000J0D01*
G01*
X51970746Y-62979254D02*
G75*
G03*
X52070746Y-62979254I50000J0D01*
G01*
X52070746Y-82979254D02*
G75*
G03*
X51970746Y-82979254I-50000J0D01*
G01*
X51970746Y-82979254D02*
G75*
G03*
X52070746Y-82979254I50000J0D01*
G01*
X54570746Y-62979254D02*
G75*
G03*
X54470746Y-62979254I-50000J0D01*
G01*
X54470746Y-62979254D02*
G75*
G03*
X54570746Y-62979254I50000J0D01*
G01*
X54570746Y-82979254D02*
G75*
G03*
X54470746Y-82979254I-50000J0D01*
G01*
X54470746Y-82979254D02*
G75*
G03*
X54570746Y-82979254I50000J0D01*
G01*
X57070746Y-62979254D02*
G75*
G03*
X56970746Y-62979254I-50000J0D01*
G01*
X56970746Y-62979254D02*
G75*
G03*
X57070746Y-62979254I50000J0D01*
G01*
X57070746Y-82979254D02*
G75*
G03*
X56970746Y-82979254I-50000J0D01*
G01*
X56970746Y-82979254D02*
G75*
G03*
X57070746Y-82979254I50000J0D01*
G01*
X59570746Y-62979254D02*
G75*
G03*
X59470746Y-62979254I-50000J0D01*
G01*
X59470746Y-62979254D02*
G75*
G03*
X59570746Y-62979254I50000J0D01*
G01*
X59570746Y-77979254D02*
G75*
G03*
X59470746Y-77979254I-50000J0D01*
G01*
X59470746Y-77979254D02*
G75*
G03*
X59570746Y-77979254I50000J0D01*
G01*
X52070746Y-65479254D02*
G75*
G03*
X51970746Y-65479254I-50000J0D01*
G01*
X51970746Y-65479254D02*
G75*
G03*
X52070746Y-65479254I50000J0D01*
G01*
X52070746Y-85479254D02*
G75*
G03*
X51970746Y-85479254I-50000J0D01*
G01*
X51970746Y-85479254D02*
G75*
G03*
X52070746Y-85479254I50000J0D01*
G01*
X54570746Y-65479254D02*
G75*
G03*
X54470746Y-65479254I-50000J0D01*
G01*
X54470746Y-65479254D02*
G75*
G03*
X54570746Y-65479254I50000J0D01*
G01*
X54570746Y-85479254D02*
G75*
G03*
X54470746Y-85479254I-50000J0D01*
G01*
X54470746Y-85479254D02*
G75*
G03*
X54570746Y-85479254I50000J0D01*
G01*
X57070746Y-65479254D02*
G75*
G03*
X56970746Y-65479254I-50000J0D01*
G01*
X56970746Y-65479254D02*
G75*
G03*
X57070746Y-65479254I50000J0D01*
G01*
X57070746Y-85479254D02*
G75*
G03*
X56970746Y-85479254I-50000J0D01*
G01*
X56970746Y-85479254D02*
G75*
G03*
X57070746Y-85479254I50000J0D01*
G01*
X59570746Y-65479254D02*
G75*
G03*
X59470746Y-65479254I-50000J0D01*
G01*
X59470746Y-65479254D02*
G75*
G03*
X59570746Y-65479254I50000J0D01*
G01*
X59570746Y-85479254D02*
G75*
G03*
X59470746Y-85479254I-50000J0D01*
G01*
X59470746Y-85479254D02*
G75*
G03*
X59570746Y-85479254I50000J0D01*
G01*
X52070746Y-67979254D02*
G75*
G03*
X51970746Y-67979254I-50000J0D01*
G01*
X51970746Y-67979254D02*
G75*
G03*
X52070746Y-67979254I50000J0D01*
G01*
X52070746Y-87979254D02*
G75*
G03*
X51970746Y-87979254I-50000J0D01*
G01*
X51970746Y-87979254D02*
G75*
G03*
X52070746Y-87979254I50000J0D01*
G01*
X54570746Y-67979254D02*
G75*
G03*
X54470746Y-67979254I-50000J0D01*
G01*
X54470746Y-67979254D02*
G75*
G03*
X54570746Y-67979254I50000J0D01*
G01*
X54570746Y-87979254D02*
G75*
G03*
X54470746Y-87979254I-50000J0D01*
G01*
X54470746Y-87979254D02*
G75*
G03*
X54570746Y-87979254I50000J0D01*
G01*
X57070746Y-67979254D02*
G75*
G03*
X56970746Y-67979254I-50000J0D01*
G01*
X56970746Y-67979254D02*
G75*
G03*
X57070746Y-67979254I50000J0D01*
G01*
X57070746Y-87979254D02*
G75*
G03*
X56970746Y-87979254I-50000J0D01*
G01*
X56970746Y-87979254D02*
G75*
G03*
X57070746Y-87979254I50000J0D01*
G01*
X59570746Y-67979254D02*
G75*
G03*
X59470746Y-67979254I-50000J0D01*
G01*
X59470746Y-67979254D02*
G75*
G03*
X59570746Y-67979254I50000J0D01*
G01*
X59570746Y-72979254D02*
G75*
G03*
X59470746Y-72979254I-50000J0D01*
G01*
X59470746Y-72979254D02*
G75*
G03*
X59570746Y-72979254I50000J0D01*
G01*
X52070746Y-50479254D02*
G75*
G03*
X51970746Y-50479254I-50000J0D01*
G01*
X51970746Y-50479254D02*
G75*
G03*
X52070746Y-50479254I50000J0D01*
G01*
X52070746Y-70479254D02*
G75*
G03*
X51970746Y-70479254I-50000J0D01*
G01*
X51970746Y-70479254D02*
G75*
G03*
X52070746Y-70479254I50000J0D01*
G01*
X54570746Y-50479254D02*
G75*
G03*
X54470746Y-50479254I-50000J0D01*
G01*
X54470746Y-50479254D02*
G75*
G03*
X54570746Y-50479254I50000J0D01*
G01*
X54570746Y-70479254D02*
G75*
G03*
X54470746Y-70479254I-50000J0D01*
G01*
X54470746Y-70479254D02*
G75*
G03*
X54570746Y-70479254I50000J0D01*
G01*
X57070746Y-50479254D02*
G75*
G03*
X56970746Y-50479254I-50000J0D01*
G01*
X56970746Y-50479254D02*
G75*
G03*
X57070746Y-50479254I50000J0D01*
G01*
X57070746Y-70479254D02*
G75*
G03*
X56970746Y-70479254I-50000J0D01*
G01*
X56970746Y-70479254D02*
G75*
G03*
X57070746Y-70479254I50000J0D01*
G01*
X59570746Y-50479254D02*
G75*
G03*
X59470746Y-50479254I-50000J0D01*
G01*
X59470746Y-50479254D02*
G75*
G03*
X59570746Y-50479254I50000J0D01*
G01*
X59570746Y-70479254D02*
G75*
G03*
X59470746Y-70479254I-50000J0D01*
G01*
X59470746Y-70479254D02*
G75*
G03*
X59570746Y-70479254I50000J0D01*
G01*
X52070746Y-52979254D02*
G75*
G03*
X51970746Y-52979254I-50000J0D01*
G01*
X51970746Y-52979254D02*
G75*
G03*
X52070746Y-52979254I50000J0D01*
G01*
X52070746Y-72979254D02*
G75*
G03*
X51970746Y-72979254I-50000J0D01*
G01*
X51970746Y-72979254D02*
G75*
G03*
X52070746Y-72979254I50000J0D01*
G01*
X54570746Y-52979254D02*
G75*
G03*
X54470746Y-52979254I-50000J0D01*
G01*
X54470746Y-52979254D02*
G75*
G03*
X54570746Y-52979254I50000J0D01*
G01*
X54570746Y-72979254D02*
G75*
G03*
X54470746Y-72979254I-50000J0D01*
G01*
X54470746Y-72979254D02*
G75*
G03*
X54570746Y-72979254I50000J0D01*
G01*
X57070746Y-52979254D02*
G75*
G03*
X56970746Y-52979254I-50000J0D01*
G01*
X56970746Y-52979254D02*
G75*
G03*
X57070746Y-52979254I50000J0D01*
G01*
X57070746Y-72979254D02*
G75*
G03*
X56970746Y-72979254I-50000J0D01*
G01*
X56970746Y-72979254D02*
G75*
G03*
X57070746Y-72979254I50000J0D01*
G01*
X59570746Y-52979254D02*
G75*
G03*
X59470746Y-52979254I-50000J0D01*
G01*
X59470746Y-52979254D02*
G75*
G03*
X59570746Y-52979254I50000J0D01*
G01*
X67070746Y-87979254D02*
G75*
G03*
X66970746Y-87979254I-50000J0D01*
G01*
X66970746Y-87979254D02*
G75*
G03*
X67070746Y-87979254I50000J0D01*
G01*
X52070746Y-55479254D02*
G75*
G03*
X51970746Y-55479254I-50000J0D01*
G01*
X51970746Y-55479254D02*
G75*
G03*
X52070746Y-55479254I50000J0D01*
G01*
X52070746Y-75479254D02*
G75*
G03*
X51970746Y-75479254I-50000J0D01*
G01*
X51970746Y-75479254D02*
G75*
G03*
X52070746Y-75479254I50000J0D01*
G01*
X54570746Y-55479254D02*
G75*
G03*
X54470746Y-55479254I-50000J0D01*
G01*
X54470746Y-55479254D02*
G75*
G03*
X54570746Y-55479254I50000J0D01*
G01*
X54570746Y-75479254D02*
G75*
G03*
X54470746Y-75479254I-50000J0D01*
G01*
X54470746Y-75479254D02*
G75*
G03*
X54570746Y-75479254I50000J0D01*
G01*
X57070746Y-55479254D02*
G75*
G03*
X56970746Y-55479254I-50000J0D01*
G01*
X56970746Y-55479254D02*
G75*
G03*
X57070746Y-55479254I50000J0D01*
G01*
X57070746Y-75479254D02*
G75*
G03*
X56970746Y-75479254I-50000J0D01*
G01*
X56970746Y-75479254D02*
G75*
G03*
X57070746Y-75479254I50000J0D01*
G01*
X59570746Y-55479254D02*
G75*
G03*
X59470746Y-55479254I-50000J0D01*
G01*
X59470746Y-55479254D02*
G75*
G03*
X59570746Y-55479254I50000J0D01*
G01*
X59570746Y-75479254D02*
G75*
G03*
X59470746Y-75479254I-50000J0D01*
G01*
X59470746Y-75479254D02*
G75*
G03*
X59570746Y-75479254I50000J0D01*
G01*
X52070746Y-57979254D02*
G75*
G03*
X51970746Y-57979254I-50000J0D01*
G01*
X51970746Y-57979254D02*
G75*
G03*
X52070746Y-57979254I50000J0D01*
G01*
X52070746Y-77979254D02*
G75*
G03*
X51970746Y-77979254I-50000J0D01*
G01*
X51970746Y-77979254D02*
G75*
G03*
X52070746Y-77979254I50000J0D01*
G01*
X54570746Y-57979254D02*
G75*
G03*
X54470746Y-57979254I-50000J0D01*
G01*
X54470746Y-57979254D02*
G75*
G03*
X54570746Y-57979254I50000J0D01*
G01*
X54570746Y-77979254D02*
G75*
G03*
X54470746Y-77979254I-50000J0D01*
G01*
X54470746Y-77979254D02*
G75*
G03*
X54570746Y-77979254I50000J0D01*
G01*
X57070746Y-57979254D02*
G75*
G03*
X56970746Y-57979254I-50000J0D01*
G01*
X56970746Y-57979254D02*
G75*
G03*
X57070746Y-57979254I50000J0D01*
G01*
X57070746Y-77979254D02*
G75*
G03*
X56970746Y-77979254I-50000J0D01*
G01*
X56970746Y-77979254D02*
G75*
G03*
X57070746Y-77979254I50000J0D01*
G01*
X59570746Y-57979254D02*
G75*
G03*
X59470746Y-57979254I-50000J0D01*
G01*
X59470746Y-57979254D02*
G75*
G03*
X59570746Y-57979254I50000J0D01*
G01*
X69570746Y-62979254D02*
G75*
G03*
X69470746Y-62979254I-50000J0D01*
G01*
X69470746Y-62979254D02*
G75*
G03*
X69570746Y-62979254I50000J0D01*
G01*
X69570746Y-77979254D02*
G75*
G03*
X69470746Y-77979254I-50000J0D01*
G01*
X69470746Y-77979254D02*
G75*
G03*
X69570746Y-77979254I50000J0D01*
G01*
X62070746Y-60479254D02*
G75*
G03*
X61970746Y-60479254I-50000J0D01*
G01*
X61970746Y-60479254D02*
G75*
G03*
X62070746Y-60479254I50000J0D01*
G01*
X62070746Y-80479254D02*
G75*
G03*
X61970746Y-80479254I-50000J0D01*
G01*
X61970746Y-80479254D02*
G75*
G03*
X62070746Y-80479254I50000J0D01*
G01*
X64570746Y-60479254D02*
G75*
G03*
X64470746Y-60479254I-50000J0D01*
G01*
X64470746Y-60479254D02*
G75*
G03*
X64570746Y-60479254I50000J0D01*
G01*
X64570746Y-80479254D02*
G75*
G03*
X64470746Y-80479254I-50000J0D01*
G01*
X64470746Y-80479254D02*
G75*
G03*
X64570746Y-80479254I50000J0D01*
G01*
X67070746Y-60479254D02*
G75*
G03*
X66970746Y-60479254I-50000J0D01*
G01*
X66970746Y-60479254D02*
G75*
G03*
X67070746Y-60479254I50000J0D01*
G01*
X67070746Y-80479254D02*
G75*
G03*
X66970746Y-80479254I-50000J0D01*
G01*
X66970746Y-80479254D02*
G75*
G03*
X67070746Y-80479254I50000J0D01*
G01*
X69570746Y-60479254D02*
G75*
G03*
X69470746Y-60479254I-50000J0D01*
G01*
X69470746Y-60479254D02*
G75*
G03*
X69570746Y-60479254I50000J0D01*
G01*
X69570746Y-80479254D02*
G75*
G03*
X69470746Y-80479254I-50000J0D01*
G01*
X69470746Y-80479254D02*
G75*
G03*
X69570746Y-80479254I50000J0D01*
G01*
X62070746Y-62979254D02*
G75*
G03*
X61970746Y-62979254I-50000J0D01*
G01*
X61970746Y-62979254D02*
G75*
G03*
X62070746Y-62979254I50000J0D01*
G01*
X62070746Y-82979254D02*
G75*
G03*
X61970746Y-82979254I-50000J0D01*
G01*
X61970746Y-82979254D02*
G75*
G03*
X62070746Y-82979254I50000J0D01*
G01*
X64570746Y-62979254D02*
G75*
G03*
X64470746Y-62979254I-50000J0D01*
G01*
X64470746Y-62979254D02*
G75*
G03*
X64570746Y-62979254I50000J0D01*
G01*
X64570746Y-82979254D02*
G75*
G03*
X64470746Y-82979254I-50000J0D01*
G01*
X64470746Y-82979254D02*
G75*
G03*
X64570746Y-82979254I50000J0D01*
G01*
X67070746Y-62979254D02*
G75*
G03*
X66970746Y-62979254I-50000J0D01*
G01*
X66970746Y-62979254D02*
G75*
G03*
X67070746Y-62979254I50000J0D01*
G01*
X67070746Y-82979254D02*
G75*
G03*
X66970746Y-82979254I-50000J0D01*
G01*
X66970746Y-82979254D02*
G75*
G03*
X67070746Y-82979254I50000J0D01*
G01*
X62070746Y-50479254D02*
G75*
G03*
X61970746Y-50479254I-50000J0D01*
G01*
X61970746Y-50479254D02*
G75*
G03*
X62070746Y-50479254I50000J0D01*
G01*
X69570746Y-82979254D02*
G75*
G03*
X69470746Y-82979254I-50000J0D01*
G01*
X69470746Y-82979254D02*
G75*
G03*
X69570746Y-82979254I50000J0D01*
G01*
X62070746Y-65479254D02*
G75*
G03*
X61970746Y-65479254I-50000J0D01*
G01*
X61970746Y-65479254D02*
G75*
G03*
X62070746Y-65479254I50000J0D01*
G01*
X62070746Y-85479254D02*
G75*
G03*
X61970746Y-85479254I-50000J0D01*
G01*
X61970746Y-85479254D02*
G75*
G03*
X62070746Y-85479254I50000J0D01*
G01*
X64570746Y-65479254D02*
G75*
G03*
X64470746Y-65479254I-50000J0D01*
G01*
X64470746Y-65479254D02*
G75*
G03*
X64570746Y-65479254I50000J0D01*
G01*
X64570746Y-85479254D02*
G75*
G03*
X64470746Y-85479254I-50000J0D01*
G01*
X64470746Y-85479254D02*
G75*
G03*
X64570746Y-85479254I50000J0D01*
G01*
X67070746Y-65479254D02*
G75*
G03*
X66970746Y-65479254I-50000J0D01*
G01*
X66970746Y-65479254D02*
G75*
G03*
X67070746Y-65479254I50000J0D01*
G01*
X67070746Y-85479254D02*
G75*
G03*
X66970746Y-85479254I-50000J0D01*
G01*
X66970746Y-85479254D02*
G75*
G03*
X67070746Y-85479254I50000J0D01*
G01*
X69570746Y-85479254D02*
G75*
G03*
X69470746Y-85479254I-50000J0D01*
G01*
X69470746Y-85479254D02*
G75*
G03*
X69570746Y-85479254I50000J0D01*
G01*
X62070746Y-67979254D02*
G75*
G03*
X61970746Y-67979254I-50000J0D01*
G01*
X61970746Y-67979254D02*
G75*
G03*
X62070746Y-67979254I50000J0D01*
G01*
X62070746Y-87979254D02*
G75*
G03*
X61970746Y-87979254I-50000J0D01*
G01*
X61970746Y-87979254D02*
G75*
G03*
X62070746Y-87979254I50000J0D01*
G01*
X64570746Y-67979254D02*
G75*
G03*
X64470746Y-67979254I-50000J0D01*
G01*
X64470746Y-67979254D02*
G75*
G03*
X64570746Y-67979254I50000J0D01*
G01*
X64570746Y-87979254D02*
G75*
G03*
X64470746Y-87979254I-50000J0D01*
G01*
X64470746Y-87979254D02*
G75*
G03*
X64570746Y-87979254I50000J0D01*
G01*
X67070746Y-67979254D02*
G75*
G03*
X66970746Y-67979254I-50000J0D01*
G01*
X66970746Y-67979254D02*
G75*
G03*
X67070746Y-67979254I50000J0D01*
G01*
X69570746Y-67979254D02*
G75*
G03*
X69470746Y-67979254I-50000J0D01*
G01*
X69470746Y-67979254D02*
G75*
G03*
X69570746Y-67979254I50000J0D01*
G01*
X67070746Y-77979254D02*
G75*
G03*
X66970746Y-77979254I-50000J0D01*
G01*
X66970746Y-77979254D02*
G75*
G03*
X67070746Y-77979254I50000J0D01*
G01*
X59570746Y-87979254D02*
G75*
G03*
X59470746Y-87979254I-50000J0D01*
G01*
X59470746Y-87979254D02*
G75*
G03*
X59570746Y-87979254I50000J0D01*
G01*
X62070746Y-70479254D02*
G75*
G03*
X61970746Y-70479254I-50000J0D01*
G01*
X61970746Y-70479254D02*
G75*
G03*
X62070746Y-70479254I50000J0D01*
G01*
X64570746Y-50479254D02*
G75*
G03*
X64470746Y-50479254I-50000J0D01*
G01*
X64470746Y-50479254D02*
G75*
G03*
X64570746Y-50479254I50000J0D01*
G01*
X64570746Y-70479254D02*
G75*
G03*
X64470746Y-70479254I-50000J0D01*
G01*
X64470746Y-70479254D02*
G75*
G03*
X64570746Y-70479254I50000J0D01*
G01*
X67070746Y-50479254D02*
G75*
G03*
X66970746Y-50479254I-50000J0D01*
G01*
X66970746Y-50479254D02*
G75*
G03*
X67070746Y-50479254I50000J0D01*
G01*
X67070746Y-70479254D02*
G75*
G03*
X66970746Y-70479254I-50000J0D01*
G01*
X66970746Y-70479254D02*
G75*
G03*
X67070746Y-70479254I50000J0D01*
G01*
X69570746Y-50479254D02*
G75*
G03*
X69470746Y-50479254I-50000J0D01*
G01*
X69470746Y-50479254D02*
G75*
G03*
X69570746Y-50479254I50000J0D01*
G01*
X69570746Y-57979254D02*
G75*
G03*
X69470746Y-57979254I-50000J0D01*
G01*
X69470746Y-57979254D02*
G75*
G03*
X69570746Y-57979254I50000J0D01*
G01*
X69570746Y-70479254D02*
G75*
G03*
X69470746Y-70479254I-50000J0D01*
G01*
X69470746Y-70479254D02*
G75*
G03*
X69570746Y-70479254I50000J0D01*
G01*
X62070746Y-52979254D02*
G75*
G03*
X61970746Y-52979254I-50000J0D01*
G01*
X61970746Y-52979254D02*
G75*
G03*
X62070746Y-52979254I50000J0D01*
G01*
X62070746Y-72979254D02*
G75*
G03*
X61970746Y-72979254I-50000J0D01*
G01*
X61970746Y-72979254D02*
G75*
G03*
X62070746Y-72979254I50000J0D01*
G01*
X64570746Y-52979254D02*
G75*
G03*
X64470746Y-52979254I-50000J0D01*
G01*
X64470746Y-52979254D02*
G75*
G03*
X64570746Y-52979254I50000J0D01*
G01*
X64570746Y-72979254D02*
G75*
G03*
X64470746Y-72979254I-50000J0D01*
G01*
X64470746Y-72979254D02*
G75*
G03*
X64570746Y-72979254I50000J0D01*
G01*
X67070746Y-52979254D02*
G75*
G03*
X66970746Y-52979254I-50000J0D01*
G01*
X66970746Y-52979254D02*
G75*
G03*
X67070746Y-52979254I50000J0D01*
G01*
X67070746Y-72979254D02*
G75*
G03*
X66970746Y-72979254I-50000J0D01*
G01*
X66970746Y-72979254D02*
G75*
G03*
X67070746Y-72979254I50000J0D01*
G01*
X69570746Y-72979254D02*
G75*
G03*
X69470746Y-72979254I-50000J0D01*
G01*
X69470746Y-72979254D02*
G75*
G03*
X69570746Y-72979254I50000J0D01*
G01*
X69570746Y-52979254D02*
G75*
G03*
X69470746Y-52979254I-50000J0D01*
G01*
X69470746Y-52979254D02*
G75*
G03*
X69570746Y-52979254I50000J0D01*
G01*
X67070746Y-57979254D02*
G75*
G03*
X66970746Y-57979254I-50000J0D01*
G01*
X66970746Y-57979254D02*
G75*
G03*
X67070746Y-57979254I50000J0D01*
G01*
X64570746Y-77979254D02*
G75*
G03*
X64470746Y-77979254I-50000J0D01*
G01*
X64470746Y-77979254D02*
G75*
G03*
X64570746Y-77979254I50000J0D01*
G01*
X64570746Y-57979254D02*
G75*
G03*
X64470746Y-57979254I-50000J0D01*
G01*
X64470746Y-57979254D02*
G75*
G03*
X64570746Y-57979254I50000J0D01*
G01*
X62070746Y-77979254D02*
G75*
G03*
X61970746Y-77979254I-50000J0D01*
G01*
X61970746Y-77979254D02*
G75*
G03*
X62070746Y-77979254I50000J0D01*
G01*
X62070746Y-57979254D02*
G75*
G03*
X61970746Y-57979254I-50000J0D01*
G01*
X61970746Y-57979254D02*
G75*
G03*
X62070746Y-57979254I50000J0D01*
G01*
X69570746Y-75479254D02*
G75*
G03*
X69470746Y-75479254I-50000J0D01*
G01*
X69470746Y-75479254D02*
G75*
G03*
X69570746Y-75479254I50000J0D01*
G01*
X69570746Y-55479254D02*
G75*
G03*
X69470746Y-55479254I-50000J0D01*
G01*
X69470746Y-55479254D02*
G75*
G03*
X69570746Y-55479254I50000J0D01*
G01*
X67070746Y-75479254D02*
G75*
G03*
X66970746Y-75479254I-50000J0D01*
G01*
X66970746Y-75479254D02*
G75*
G03*
X67070746Y-75479254I50000J0D01*
G01*
X67070746Y-55479254D02*
G75*
G03*
X66970746Y-55479254I-50000J0D01*
G01*
X66970746Y-55479254D02*
G75*
G03*
X67070746Y-55479254I50000J0D01*
G01*
X64570746Y-75479254D02*
G75*
G03*
X64470746Y-75479254I-50000J0D01*
G01*
X64470746Y-75479254D02*
G75*
G03*
X64570746Y-75479254I50000J0D01*
G01*
X64570746Y-55479254D02*
G75*
G03*
X64470746Y-55479254I-50000J0D01*
G01*
X64470746Y-55479254D02*
G75*
G03*
X64570746Y-55479254I50000J0D01*
G01*
X62070746Y-75479254D02*
G75*
G03*
X61970746Y-75479254I-50000J0D01*
G01*
X61970746Y-75479254D02*
G75*
G03*
X62070746Y-75479254I50000J0D01*
G01*
X62070746Y-55479254D02*
G75*
G03*
X61970746Y-55479254I-50000J0D01*
G01*
X61970746Y-55479254D02*
G75*
G03*
X62070746Y-55479254I50000J0D01*
G01*
%LPC*%
D12*
X79092947Y-63407053D03*
X78407053Y-64092947D03*
X76592947Y-83407053D03*
X75907053Y-84092947D03*
X76592947Y-63407053D03*
X75907053Y-64092947D03*
X74092947Y-83407053D03*
X73407053Y-84092947D03*
X74092947Y-63407053D03*
X73407053Y-64092947D03*
X71592947Y-83407053D03*
X70907053Y-84092947D03*
X71592947Y-63407053D03*
X70907053Y-64092947D03*
X79092947Y-80907053D03*
X78407053Y-81592947D03*
X79092947Y-60907053D03*
X78407053Y-61592947D03*
X76592947Y-80907053D03*
X75907053Y-81592947D03*
X76592947Y-60907053D03*
X75907053Y-61592947D03*
X74092947Y-80907053D03*
X73407053Y-81592947D03*
X74092947Y-60907053D03*
X73407053Y-61592947D03*
X71592947Y-80907053D03*
X70907053Y-81592947D03*
X79092947Y-78407053D03*
X78407053Y-79092947D03*
X71592947Y-60907053D03*
X70907053Y-61592947D03*
X79092947Y-85907053D03*
X78407053Y-86592947D03*
X76592947Y-68407053D03*
X75907053Y-69092947D03*
X76592947Y-88407053D03*
X75907053Y-89092947D03*
X69092947Y-88407053D03*
X68407053Y-89092947D03*
X79092947Y-68407053D03*
X78407053Y-69092947D03*
X74092947Y-88407053D03*
X73407053Y-89092947D03*
X74092947Y-68407053D03*
X73407053Y-69092947D03*
X71592947Y-88407053D03*
X70907053Y-89092947D03*
X71592947Y-68407053D03*
X70907053Y-69092947D03*
X79092947Y-83407053D03*
X78407053Y-84092947D03*
X79092947Y-65907053D03*
X78407053Y-66592947D03*
X76592947Y-85907053D03*
X75907053Y-86592947D03*
X76592947Y-65907053D03*
X75907053Y-66592947D03*
X74092947Y-85907053D03*
X73407053Y-86592947D03*
X74092947Y-65907053D03*
X73407053Y-66592947D03*
X71592947Y-85907053D03*
X70907053Y-86592947D03*
X71592947Y-65907053D03*
X70907053Y-66592947D03*
X79092947Y-53407053D03*
X78407053Y-54092947D03*
X69092947Y-65907053D03*
X68407053Y-66592947D03*
X71592947Y-50907053D03*
X70907053Y-51592947D03*
X71592947Y-70907053D03*
X70907053Y-71592947D03*
X74092947Y-50907053D03*
X73407053Y-51592947D03*
X74092947Y-70907053D03*
X73407053Y-71592947D03*
X76592947Y-50907053D03*
X75907053Y-51592947D03*
X76592947Y-70907053D03*
X75907053Y-71592947D03*
X79092947Y-50907053D03*
X78407053Y-51592947D03*
X79092947Y-70907053D03*
X78407053Y-71592947D03*
X71592947Y-53407053D03*
X70907053Y-54092947D03*
X71592947Y-73407053D03*
X70907053Y-74092947D03*
X74092947Y-53407053D03*
X73407053Y-54092947D03*
X74092947Y-73407053D03*
X73407053Y-74092947D03*
X76592947Y-53407053D03*
X75907053Y-54092947D03*
X76592947Y-73407053D03*
X75907053Y-74092947D03*
X79092947Y-58407053D03*
X78407053Y-59092947D03*
X79092947Y-73407053D03*
X78407053Y-74092947D03*
X71592947Y-55907053D03*
X70907053Y-56592947D03*
X71592947Y-75907053D03*
X70907053Y-76592947D03*
X74092947Y-55907053D03*
X73407053Y-56592947D03*
X74092947Y-75907053D03*
X73407053Y-76592947D03*
X76592947Y-55907053D03*
X75907053Y-56592947D03*
X76592947Y-75907053D03*
X75907053Y-76592947D03*
X79092947Y-55907053D03*
X78407053Y-56592947D03*
X79092947Y-75907053D03*
X78407053Y-76592947D03*
X71592947Y-58407053D03*
X70907053Y-59092947D03*
X71592947Y-78407053D03*
X70907053Y-79092947D03*
X74092947Y-58407053D03*
X73407053Y-59092947D03*
X74092947Y-78407053D03*
X73407053Y-79092947D03*
X76592947Y-58407053D03*
X75907053Y-59092947D03*
X76592947Y-78407053D03*
X75907053Y-79092947D03*
X89092947Y-80907053D03*
X88407053Y-81592947D03*
X89092947Y-83407053D03*
X88407053Y-84092947D03*
X89092947Y-63407053D03*
X88407053Y-64092947D03*
X86592947Y-83407053D03*
X85907053Y-84092947D03*
X86592947Y-63407053D03*
X85907053Y-64092947D03*
X84092947Y-83407053D03*
X83407053Y-84092947D03*
X84092947Y-63407053D03*
X83407053Y-64092947D03*
X81592947Y-83407053D03*
X80907053Y-84092947D03*
X81592947Y-63407053D03*
X80907053Y-64092947D03*
X81592947Y-65907053D03*
X80907053Y-66592947D03*
X89092947Y-60907053D03*
X88407053Y-61592947D03*
X86592947Y-80907053D03*
X85907053Y-81592947D03*
X86592947Y-60907053D03*
X85907053Y-61592947D03*
X84092947Y-80907053D03*
X83407053Y-81592947D03*
X84092947Y-60907053D03*
X83407053Y-61592947D03*
X81592947Y-80907053D03*
X80907053Y-81592947D03*
X81592947Y-60907053D03*
X80907053Y-61592947D03*
X89092947Y-78407053D03*
X88407053Y-79092947D03*
X81592947Y-85907053D03*
X80907053Y-86592947D03*
X84092947Y-65907053D03*
X83407053Y-66592947D03*
X84092947Y-85907053D03*
X83407053Y-86592947D03*
X86592947Y-65907053D03*
X85907053Y-66592947D03*
X86592947Y-85907053D03*
X85907053Y-86592947D03*
X89092947Y-65907053D03*
X88407053Y-66592947D03*
X89092947Y-85907053D03*
X88407053Y-86592947D03*
X81592947Y-68407053D03*
X80907053Y-69092947D03*
X81592947Y-88407053D03*
X80907053Y-89092947D03*
X84092947Y-68407053D03*
X83407053Y-69092947D03*
X84092947Y-88407053D03*
X83407053Y-89092947D03*
X86592947Y-68407053D03*
X85907053Y-69092947D03*
X86592947Y-88407053D03*
X85907053Y-89092947D03*
X89092947Y-68407053D03*
X88407053Y-69092947D03*
X89092947Y-88407053D03*
X88407053Y-89092947D03*
X89092947Y-73407053D03*
X88407053Y-74092947D03*
X81592947Y-50907053D03*
X80907053Y-51592947D03*
X81592947Y-70907053D03*
X80907053Y-71592947D03*
X84092947Y-50907053D03*
X83407053Y-51592947D03*
X84092947Y-70907053D03*
X83407053Y-71592947D03*
X86592947Y-50907053D03*
X85907053Y-51592947D03*
X86592947Y-70907053D03*
X85907053Y-71592947D03*
X89092947Y-50907053D03*
X88407053Y-51592947D03*
X89092947Y-70907053D03*
X88407053Y-71592947D03*
X81592947Y-53407053D03*
X80907053Y-54092947D03*
X81592947Y-73407053D03*
X80907053Y-74092947D03*
X84092947Y-53407053D03*
X83407053Y-54092947D03*
X84092947Y-73407053D03*
X83407053Y-74092947D03*
X86592947Y-53407053D03*
X85907053Y-54092947D03*
X86592947Y-73407053D03*
X85907053Y-74092947D03*
X89092947Y-53407053D03*
X88407053Y-54092947D03*
X79092947Y-88407053D03*
X78407053Y-89092947D03*
X81592947Y-55907053D03*
X80907053Y-56592947D03*
X81592947Y-75907053D03*
X80907053Y-76592947D03*
X84092947Y-55907053D03*
X83407053Y-56592947D03*
X84092947Y-75907053D03*
X83407053Y-76592947D03*
X86592947Y-55907053D03*
X85907053Y-56592947D03*
X86592947Y-75907053D03*
X85907053Y-76592947D03*
X89092947Y-55907053D03*
X88407053Y-56592947D03*
X89092947Y-75907053D03*
X88407053Y-76592947D03*
X81592947Y-58407053D03*
X80907053Y-59092947D03*
X81592947Y-78407053D03*
X80907053Y-79092947D03*
X84092947Y-58407053D03*
X83407053Y-59092947D03*
X84092947Y-78407053D03*
X83407053Y-79092947D03*
X86592947Y-58407053D03*
X85907053Y-59092947D03*
X86592947Y-78407053D03*
X85907053Y-79092947D03*
X89092947Y-58407053D03*
X88407053Y-59092947D03*
X59092947Y-83407053D03*
X58407053Y-84092947D03*
X51592947Y-60907053D03*
X50907053Y-61592947D03*
X51592947Y-80907053D03*
X50907053Y-81592947D03*
X54092947Y-60907053D03*
X53407053Y-61592947D03*
X54092947Y-80907053D03*
X53407053Y-81592947D03*
X56592947Y-60907053D03*
X55907053Y-61592947D03*
X56592947Y-80907053D03*
X55907053Y-81592947D03*
X59092947Y-60907053D03*
X58407053Y-61592947D03*
X59092947Y-80907053D03*
X58407053Y-81592947D03*
X51592947Y-63407053D03*
X50907053Y-64092947D03*
X51592947Y-83407053D03*
X50907053Y-84092947D03*
X54092947Y-63407053D03*
X53407053Y-64092947D03*
X54092947Y-83407053D03*
X53407053Y-84092947D03*
X56592947Y-63407053D03*
X55907053Y-64092947D03*
X56592947Y-83407053D03*
X55907053Y-84092947D03*
X59092947Y-63407053D03*
X58407053Y-64092947D03*
X59092947Y-78407053D03*
X58407053Y-79092947D03*
X51592947Y-65907053D03*
X50907053Y-66592947D03*
X51592947Y-85907053D03*
X50907053Y-86592947D03*
X54092947Y-65907053D03*
X53407053Y-66592947D03*
X54092947Y-85907053D03*
X53407053Y-86592947D03*
X56592947Y-65907053D03*
X55907053Y-66592947D03*
X56592947Y-85907053D03*
X55907053Y-86592947D03*
X59092947Y-65907053D03*
X58407053Y-66592947D03*
X59092947Y-85907053D03*
X58407053Y-86592947D03*
X51592947Y-68407053D03*
X50907053Y-69092947D03*
X51592947Y-88407053D03*
X50907053Y-89092947D03*
X54092947Y-68407053D03*
X53407053Y-69092947D03*
X54092947Y-88407053D03*
X53407053Y-89092947D03*
X56592947Y-68407053D03*
X55907053Y-69092947D03*
X56592947Y-88407053D03*
X55907053Y-89092947D03*
X59092947Y-68407053D03*
X58407053Y-69092947D03*
X59092947Y-73407053D03*
X58407053Y-74092947D03*
X51592947Y-50907053D03*
X50907053Y-51592947D03*
X51592947Y-70907053D03*
X50907053Y-71592947D03*
X54092947Y-50907053D03*
X53407053Y-51592947D03*
X54092947Y-70907053D03*
X53407053Y-71592947D03*
X56592947Y-50907053D03*
X55907053Y-51592947D03*
X56592947Y-70907053D03*
X55907053Y-71592947D03*
X59092947Y-50907053D03*
X58407053Y-51592947D03*
X59092947Y-70907053D03*
X58407053Y-71592947D03*
X51592947Y-53407053D03*
X50907053Y-54092947D03*
X51592947Y-73407053D03*
X50907053Y-74092947D03*
X54092947Y-53407053D03*
X53407053Y-54092947D03*
X54092947Y-73407053D03*
X53407053Y-74092947D03*
X56592947Y-53407053D03*
X55907053Y-54092947D03*
X56592947Y-73407053D03*
X55907053Y-74092947D03*
X59092947Y-53407053D03*
X58407053Y-54092947D03*
X66592947Y-88407053D03*
X65907053Y-89092947D03*
X51592947Y-55907053D03*
X50907053Y-56592947D03*
X51592947Y-75907053D03*
X50907053Y-76592947D03*
X54092947Y-55907053D03*
X53407053Y-56592947D03*
X54092947Y-75907053D03*
X53407053Y-76592947D03*
X56592947Y-55907053D03*
X55907053Y-56592947D03*
X56592947Y-75907053D03*
X55907053Y-76592947D03*
X59092947Y-55907053D03*
X58407053Y-56592947D03*
X59092947Y-75907053D03*
X58407053Y-76592947D03*
X51592947Y-58407053D03*
X50907053Y-59092947D03*
X51592947Y-78407053D03*
X50907053Y-79092947D03*
X54092947Y-58407053D03*
X53407053Y-59092947D03*
X54092947Y-78407053D03*
X53407053Y-79092947D03*
X56592947Y-58407053D03*
X55907053Y-59092947D03*
X56592947Y-78407053D03*
X55907053Y-79092947D03*
X59092947Y-58407053D03*
X58407053Y-59092947D03*
X69092947Y-63407053D03*
X68407053Y-64092947D03*
X69092947Y-78407053D03*
X68407053Y-79092947D03*
X61592947Y-60907053D03*
X60907053Y-61592947D03*
X61592947Y-80907053D03*
X60907053Y-81592947D03*
X64092947Y-60907053D03*
X63407053Y-61592947D03*
X64092947Y-80907053D03*
X63407053Y-81592947D03*
X66592947Y-60907053D03*
X65907053Y-61592947D03*
X66592947Y-80907053D03*
X65907053Y-81592947D03*
X69092947Y-60907053D03*
X68407053Y-61592947D03*
X69092947Y-80907053D03*
X68407053Y-81592947D03*
X61592947Y-63407053D03*
X60907053Y-64092947D03*
X61592947Y-83407053D03*
X60907053Y-84092947D03*
X64092947Y-63407053D03*
X63407053Y-64092947D03*
X64092947Y-83407053D03*
X63407053Y-84092947D03*
X66592947Y-63407053D03*
X65907053Y-64092947D03*
X66592947Y-83407053D03*
X65907053Y-84092947D03*
X61592947Y-50907053D03*
X60907053Y-51592947D03*
X69092947Y-83407053D03*
X68407053Y-84092947D03*
X61592947Y-65907053D03*
X60907053Y-66592947D03*
X61592947Y-85907053D03*
X60907053Y-86592947D03*
X64092947Y-65907053D03*
X63407053Y-66592947D03*
X64092947Y-85907053D03*
X63407053Y-86592947D03*
X66592947Y-65907053D03*
X65907053Y-66592947D03*
X66592947Y-85907053D03*
X65907053Y-86592947D03*
X69092947Y-85907053D03*
X68407053Y-86592947D03*
X61592947Y-68407053D03*
X60907053Y-69092947D03*
X61592947Y-88407053D03*
X60907053Y-89092947D03*
X64092947Y-68407053D03*
X63407053Y-69092947D03*
X64092947Y-88407053D03*
X63407053Y-89092947D03*
X66592947Y-68407053D03*
X65907053Y-69092947D03*
X69092947Y-68407053D03*
X68407053Y-69092947D03*
X66592947Y-78407053D03*
X65907053Y-79092947D03*
X59092947Y-88407053D03*
X58407053Y-89092947D03*
X61592947Y-70907053D03*
X60907053Y-71592947D03*
X64092947Y-50907053D03*
X63407053Y-51592947D03*
X64092947Y-70907053D03*
X63407053Y-71592947D03*
X66592947Y-50907053D03*
X65907053Y-51592947D03*
X66592947Y-70907053D03*
X65907053Y-71592947D03*
X69092947Y-50907053D03*
X68407053Y-51592947D03*
X69092947Y-58407053D03*
X68407053Y-59092947D03*
X69092947Y-70907053D03*
X68407053Y-71592947D03*
X61592947Y-53407053D03*
X60907053Y-54092947D03*
X61592947Y-73407053D03*
X60907053Y-74092947D03*
X64092947Y-53407053D03*
X63407053Y-54092947D03*
X64092947Y-73407053D03*
X63407053Y-74092947D03*
X66592947Y-53407053D03*
X65907053Y-54092947D03*
X66592947Y-73407053D03*
X65907053Y-74092947D03*
X69092947Y-73407053D03*
X68407053Y-74092947D03*
X69092947Y-53407053D03*
X68407053Y-54092947D03*
X66592947Y-58407053D03*
X65907053Y-59092947D03*
X64092947Y-78407053D03*
X63407053Y-79092947D03*
X64092947Y-58407053D03*
X63407053Y-59092947D03*
X61592947Y-78407053D03*
X60907053Y-79092947D03*
X61592947Y-58407053D03*
X60907053Y-59092947D03*
X69092947Y-75907053D03*
X68407053Y-76592947D03*
X69092947Y-55907053D03*
X68407053Y-56592947D03*
X66592947Y-75907053D03*
X65907053Y-76592947D03*
X66592947Y-55907053D03*
X65907053Y-56592947D03*
X64092947Y-75907053D03*
X63407053Y-76592947D03*
X64092947Y-55907053D03*
X63407053Y-56592947D03*
X61592947Y-75907053D03*
X60907053Y-76592947D03*
X61592947Y-55907053D03*
X60907053Y-56592947D03*
%LPD*%
M02*
