G04 #@! TF.GenerationSoftware,KiCad,Pcbnew,7.0.10-7.0.10~ubuntu22.04.1*
G04 #@! TF.CreationDate,2024-07-08T12:41:38-07:00*
G04 #@! TF.ProjectId,driver_cplex_rp2040,64726976-6572-45f6-9370-6c65785f7270,rev?*
G04 #@! TF.SameCoordinates,Original*
G04 #@! TF.FileFunction,Copper,L4,Inr*
G04 #@! TF.FilePolarity,Positive*
%FSLAX46Y46*%
G04 Gerber Fmt 4.6, Leading zero omitted, Abs format (unit mm)*
G04 Created by KiCad (PCBNEW 7.0.10-7.0.10~ubuntu22.04.1) date 2024-07-08 12:41:38*
%MOMM*%
%LPD*%
G01*
G04 APERTURE LIST*
G04 #@! TA.AperFunction,ViaPad*
%ADD10C,0.600000*%
G04 #@! TD*
G04 #@! TA.AperFunction,ViaPad*
%ADD11C,1.000000*%
G04 #@! TD*
G04 #@! TA.AperFunction,Conductor*
%ADD12C,0.130000*%
G04 #@! TD*
G04 APERTURE END LIST*
D10*
X52223200Y-62861100D03*
X54922100Y-70150700D03*
X54817600Y-78088800D03*
X56069900Y-57871500D03*
X54922100Y-73594400D03*
X59854100Y-54244300D03*
X62586200Y-54225000D03*
X54575100Y-67419300D03*
X53620600Y-87815600D03*
X75140700Y-54586200D03*
X66240000Y-54820000D03*
X53291600Y-85738300D03*
X73626600Y-55178500D03*
X51039300Y-77897300D03*
X53086000Y-54830800D03*
X64702400Y-55388300D03*
X61839500Y-55067800D03*
X69734500Y-60184758D03*
X53407900Y-60178400D03*
X57604400Y-59009500D03*
X62628000Y-59774400D03*
X66343600Y-77360000D03*
X53514300Y-62399800D03*
X55720100Y-60790500D03*
X68134400Y-65021900D03*
X65945800Y-65106200D03*
X61073900Y-60342200D03*
X69951500Y-65785500D03*
X55928500Y-62964900D03*
X63557900Y-62869500D03*
X57404900Y-63219100D03*
X79955300Y-69040500D03*
X62541700Y-57129700D03*
X61578517Y-67288517D03*
X82371300Y-70551400D03*
X63180200Y-52395700D03*
X80539300Y-69863900D03*
X55641300Y-67911200D03*
X67437500Y-74513200D03*
X79807000Y-74132500D03*
X70960300Y-77978700D03*
X70069500Y-70456100D03*
X65090000Y-73844000D03*
X70149200Y-61037818D03*
X75306800Y-57018900D03*
X75279900Y-77180800D03*
X84025000Y-77539900D03*
X78728700Y-77704400D03*
X77092100Y-51787600D03*
X85107500Y-58031400D03*
X56360000Y-82370000D03*
X75745400Y-82911300D03*
X62403900Y-82273200D03*
X86510000Y-84649100D03*
X63899400Y-84673200D03*
X83941300Y-84620300D03*
X81448600Y-67345200D03*
X67466800Y-84149500D03*
X80311600Y-83194800D03*
X73413200Y-84895300D03*
X88739300Y-85123400D03*
X61219000Y-87339400D03*
X67599800Y-86592900D03*
X80220000Y-78395500D03*
X81099200Y-85262900D03*
X62863600Y-87246000D03*
X72595000Y-86687100D03*
X83403900Y-87395100D03*
X84981200Y-89231900D03*
X83289000Y-78255900D03*
X55716400Y-78226400D03*
X56925200Y-74136800D03*
X56672300Y-69385200D03*
X56116100Y-87800400D03*
X56944700Y-64800000D03*
X58026200Y-65895700D03*
X59654800Y-82866800D03*
X57707500Y-76026400D03*
X58082900Y-68351000D03*
X57957700Y-70127000D03*
X58454900Y-87404100D03*
X62607000Y-81122100D03*
X62256100Y-76303900D03*
X60653600Y-67388300D03*
X61025100Y-62839300D03*
X60880000Y-57920000D03*
X60960500Y-70154300D03*
X61050900Y-82884300D03*
X63254700Y-58228600D03*
X64830000Y-78213300D03*
X65991700Y-82617600D03*
X62850000Y-72370000D03*
X64260000Y-65100700D03*
X63557500Y-67871700D03*
X63529300Y-60413400D03*
X57980300Y-78354100D03*
X54119300Y-56942300D03*
X55409000Y-57139300D03*
X60080000Y-57660000D03*
X52446200Y-52255700D03*
X55265100Y-51983000D03*
X64620700Y-76674000D03*
X64013078Y-74768677D03*
X65100800Y-83920600D03*
X64835100Y-59534600D03*
X65183400Y-54744200D03*
X68291800Y-78131700D03*
X68179300Y-83057500D03*
X68628700Y-55270900D03*
X67955100Y-73407100D03*
X70500900Y-77302900D03*
X71431200Y-67599700D03*
X70788400Y-82553300D03*
X70246400Y-63488900D03*
X69573400Y-54824100D03*
X74226900Y-65075900D03*
X75360700Y-55741100D03*
X71730400Y-59698700D03*
X74645700Y-67934500D03*
X74511100Y-74398700D03*
X74285400Y-82602400D03*
X74381100Y-76705500D03*
X75272900Y-52304000D03*
X77122300Y-53936500D03*
X75889200Y-68043100D03*
X76020600Y-65403300D03*
X77347000Y-58739000D03*
X75782400Y-78181500D03*
X76122300Y-75305100D03*
X76717500Y-71722200D03*
X77395200Y-56145300D03*
X75286000Y-60656000D03*
X79210000Y-86708900D03*
X78320600Y-67988100D03*
X77915000Y-53326000D03*
X77500000Y-82300000D03*
X78010000Y-78210000D03*
X78563700Y-57877900D03*
X77964600Y-74834400D03*
X78898800Y-62600000D03*
X75269700Y-59499600D03*
X77943300Y-72212200D03*
X81590200Y-57594000D03*
X81942600Y-65155400D03*
X81598500Y-60105100D03*
X81968900Y-79127100D03*
X79964300Y-53568600D03*
X82446483Y-67746483D03*
X81708400Y-74442700D03*
X82999434Y-68447046D03*
X82734200Y-63418700D03*
X84897300Y-56003600D03*
X83797000Y-59823700D03*
X82914500Y-81015000D03*
X83002300Y-73350100D03*
X84715700Y-53849700D03*
X86013100Y-62889100D03*
X86100000Y-82851900D03*
X86501800Y-67592700D03*
X85292400Y-78363400D03*
X87396600Y-53201600D03*
X85257600Y-75907100D03*
X87408800Y-56005200D03*
X85791500Y-70776800D03*
X86022613Y-59883468D03*
X73250000Y-78010000D03*
X56010000Y-65090000D03*
X62060000Y-74770000D03*
X75290000Y-62650000D03*
X86510000Y-72410000D03*
X75320000Y-57970000D03*
X69750000Y-61850000D03*
X73030000Y-60620000D03*
X89140000Y-79770000D03*
D11*
X85250000Y-87575000D03*
D10*
X72860000Y-55900000D03*
X60360000Y-63500000D03*
X74610000Y-79300000D03*
X58120000Y-72570000D03*
X76060000Y-70180000D03*
X67680000Y-55770000D03*
X69750000Y-52500000D03*
X76550000Y-79760000D03*
X63780000Y-72380000D03*
X51379700Y-67480300D03*
X52980000Y-63340000D03*
X72260000Y-66810000D03*
X69780000Y-57140000D03*
X77590000Y-75890000D03*
X66840800Y-79304000D03*
X63280000Y-65080000D03*
X69410000Y-66810000D03*
X54320000Y-79210000D03*
X56010000Y-75090000D03*
X79830000Y-63850000D03*
X80040000Y-79240000D03*
X72475000Y-85300000D03*
X72630000Y-51180000D03*
X75320000Y-53280000D03*
X88727500Y-75097500D03*
X61990000Y-79190000D03*
X89080000Y-64860000D03*
X67650000Y-60470000D03*
D11*
X84736400Y-59380000D03*
D10*
X59910000Y-79170000D03*
X82090000Y-64320000D03*
X56180000Y-80140000D03*
X76030000Y-72640000D03*
X70000000Y-72750000D03*
X87155000Y-79235000D03*
X82760000Y-79780000D03*
X68915000Y-79795000D03*
X54160000Y-74550000D03*
X87365000Y-63695000D03*
X67610000Y-51230000D03*
X57000000Y-81790000D03*
X70360000Y-62650000D03*
X71970000Y-77300000D03*
X57990000Y-65080000D03*
X70280000Y-57970000D03*
X76730000Y-64890000D03*
X64600000Y-57570000D03*
X64720000Y-61860000D03*
X72600000Y-70160000D03*
X50815000Y-80475000D03*
X52035000Y-71615000D03*
X70140000Y-53270000D03*
X50890000Y-65090000D03*
X50810000Y-75550000D03*
X80940000Y-72700000D03*
X63360000Y-80280000D03*
X77540000Y-80560000D03*
X83480000Y-75190000D03*
X83680000Y-65060000D03*
X67520000Y-72550000D03*
X67580000Y-70660000D03*
X83600000Y-80210000D03*
X55100000Y-68570000D03*
X71125000Y-80215000D03*
X84160000Y-72130000D03*
X64590000Y-52170000D03*
X68510000Y-75230000D03*
X72460000Y-59252900D03*
X67050000Y-64190000D03*
X58325000Y-82825000D03*
X72300000Y-54570000D03*
X72365000Y-63975000D03*
X78980000Y-67250000D03*
X69725000Y-86700000D03*
X66820000Y-59340000D03*
X78611800Y-82716200D03*
X64875000Y-82875000D03*
X85250000Y-82850000D03*
X52400000Y-82900000D03*
X85325000Y-74825000D03*
X87850000Y-77475000D03*
X85265000Y-67260000D03*
D11*
X87775000Y-87575000D03*
D10*
X72670002Y-82700000D03*
X59355000Y-67280000D03*
X53080000Y-67400000D03*
D11*
X87350000Y-59575000D03*
D10*
X53050000Y-77925000D03*
X67110000Y-54650000D03*
X87985000Y-82981000D03*
X79056300Y-84507700D03*
X77914900Y-62807000D03*
X71947700Y-74832700D03*
X70750500Y-75292700D03*
X76384200Y-84766300D03*
X81073100Y-62396000D03*
X60861300Y-84896800D03*
X60094300Y-59190800D03*
X59175000Y-62543100D03*
X58773000Y-84785100D03*
X57893000Y-62572900D03*
X55724600Y-83198400D03*
X53163500Y-84920500D03*
X54696800Y-62569000D03*
X72180000Y-72530000D03*
X69960000Y-82080000D03*
X69070000Y-82080000D03*
X72350000Y-71630000D03*
X65714667Y-78213300D03*
X59933200Y-68105800D03*
X57714500Y-77370200D03*
X63649700Y-77607000D03*
X63106400Y-78316400D03*
X62892400Y-75712500D03*
X68436961Y-59894435D03*
X65116483Y-74743517D03*
X69926200Y-56138900D03*
X62357400Y-69672400D03*
X63502300Y-55254400D03*
X65686900Y-70094400D03*
X72417700Y-83567200D03*
X71360600Y-54714300D03*
X74022600Y-59993100D03*
X81987700Y-77263200D03*
X82225800Y-71859100D03*
X82578600Y-82591600D03*
X82210800Y-72748400D03*
X82630100Y-75914300D03*
D12*
X54922100Y-70150700D02*
X54575100Y-69803700D01*
X54817600Y-84225300D02*
X53304600Y-85738300D01*
X56248800Y-57871500D02*
X56069900Y-57871500D01*
X74346000Y-53791500D02*
X75140700Y-54586200D01*
X53620600Y-86054300D02*
X53620600Y-87815600D01*
X54817600Y-78088800D02*
X54817600Y-84225300D01*
X56248800Y-57849600D02*
X59854100Y-54244300D01*
X54575100Y-63582100D02*
X56248800Y-61908400D01*
X54922100Y-73594400D02*
X54922100Y-70150700D01*
X53304600Y-85738300D02*
X53291600Y-85738300D01*
X66379100Y-54225000D02*
X66812600Y-53791500D01*
X66379100Y-54225000D02*
X62586200Y-54225000D01*
X53304600Y-85738300D02*
X53620600Y-86054300D01*
X54575100Y-67419300D02*
X54575100Y-63582100D01*
X66379100Y-54680900D02*
X66379100Y-54225000D01*
X56248800Y-61908400D02*
X56248800Y-57871500D01*
X54575100Y-69803700D02*
X54575100Y-67419300D01*
X66812600Y-53791500D02*
X74346000Y-53791500D01*
X56248800Y-57871500D02*
X56248800Y-57849600D01*
X66240000Y-54820000D02*
X66379100Y-54680900D01*
X62166700Y-54740600D02*
X64054700Y-54740600D01*
X53086000Y-54830800D02*
X51696200Y-56220600D01*
X72511300Y-54063200D02*
X73626600Y-55178500D01*
X61839500Y-55067800D02*
X62166700Y-54740600D01*
X51877700Y-67884400D02*
X51322100Y-68440000D01*
X67068600Y-55388300D02*
X68393700Y-54063200D01*
X51322100Y-68440000D02*
X51322100Y-77614500D01*
X51696200Y-64780800D02*
X51877700Y-64962300D01*
X68393700Y-54063200D02*
X72511300Y-54063200D01*
X51322100Y-77614500D02*
X51039300Y-77897300D01*
X64054700Y-54740600D02*
X64702400Y-55388300D01*
X64702400Y-55388300D02*
X67068600Y-55388300D01*
X51696200Y-56220600D02*
X51696200Y-64780800D01*
X51877700Y-64962300D02*
X51877700Y-67884400D01*
X68397842Y-58848100D02*
X63554300Y-58848100D01*
X69734500Y-60184758D02*
X68397842Y-58848100D01*
X63554300Y-58848100D02*
X62628000Y-59774400D01*
X66343600Y-77360000D02*
X66343600Y-65504000D01*
X67652300Y-65504000D02*
X68134400Y-65021900D01*
X66343600Y-65504000D02*
X67652300Y-65504000D01*
X66343600Y-65504000D02*
X65945800Y-65106200D01*
X53514300Y-62399800D02*
X54110800Y-62399800D01*
X54110800Y-62399800D02*
X55720100Y-60790500D01*
X67052400Y-62869500D02*
X69951500Y-65768600D01*
X63557900Y-62869500D02*
X67052400Y-62869500D01*
X69951500Y-65768600D02*
X69951500Y-65785500D01*
X77303700Y-51276600D02*
X74976000Y-51276600D01*
X61578517Y-67288517D02*
X61879100Y-66987934D01*
X79708500Y-54899800D02*
X78672400Y-53863700D01*
X61879100Y-57419300D02*
X62168700Y-57129700D01*
X78672400Y-52645300D02*
X77303700Y-51276600D01*
X79955300Y-69040500D02*
X79955300Y-65361500D01*
X62168700Y-57129700D02*
X62541700Y-57129700D01*
X61879100Y-66987934D02*
X61879100Y-57419300D01*
X78672400Y-53863700D02*
X78672400Y-52645300D01*
X69753700Y-51771100D02*
X68020000Y-53504800D01*
X61333900Y-56294900D02*
X62168700Y-57129700D01*
X79955300Y-65361500D02*
X79335000Y-64741200D01*
X79335000Y-64741200D02*
X79335000Y-63322100D01*
X62609200Y-53504800D02*
X61333900Y-54780100D01*
X79708500Y-62948600D02*
X79708500Y-54899800D01*
X74481500Y-51771100D02*
X69753700Y-51771100D01*
X79335000Y-63322100D02*
X79708500Y-62948600D01*
X68020000Y-53504800D02*
X62609200Y-53504800D01*
X74976000Y-51276600D02*
X74481500Y-51771100D01*
X61333900Y-54780100D02*
X61333900Y-56294900D01*
X64897800Y-50678100D02*
X77097600Y-50678100D01*
X80539300Y-54882700D02*
X80539300Y-69863900D01*
X79470500Y-53813900D02*
X80539300Y-54882700D01*
X63180200Y-52395700D02*
X56548400Y-59027500D01*
X79470500Y-53051000D02*
X79470500Y-53813900D01*
X77097600Y-50678100D02*
X79470500Y-53051000D01*
X63180200Y-52395700D02*
X64897800Y-50678100D01*
X56548400Y-63856000D02*
X55478900Y-64925500D01*
X55478900Y-64925500D02*
X55478900Y-67748800D01*
X56548400Y-59027500D02*
X56548400Y-63856000D01*
X55478900Y-67748800D02*
X55641300Y-67911200D01*
X72830800Y-82020000D02*
X72417300Y-82020000D01*
X79810400Y-81695500D02*
X79810400Y-84855900D01*
X70590500Y-83549500D02*
X67956400Y-83549500D01*
X72417300Y-79435700D02*
X70960300Y-77978700D01*
X79807000Y-77723200D02*
X79002400Y-78527800D01*
X67956400Y-83549500D02*
X67437500Y-83030600D01*
X79396800Y-85269500D02*
X76080300Y-85269500D01*
X72417300Y-82020000D02*
X72417300Y-79435700D01*
X76080300Y-85269500D02*
X72830800Y-82020000D01*
X72120000Y-82020000D02*
X70590500Y-83549500D01*
X79810400Y-84855900D02*
X79396800Y-85269500D01*
X72417300Y-82020000D02*
X72120000Y-82020000D01*
X79807000Y-74132500D02*
X79807000Y-77723200D01*
X79002400Y-78527800D02*
X79002400Y-80887500D01*
X79002400Y-80887500D02*
X79810400Y-81695500D01*
X67437500Y-83030600D02*
X67437500Y-74513200D01*
X70240000Y-61128618D02*
X70240000Y-62065100D01*
X66667000Y-63689400D02*
X65090000Y-65266400D01*
X70069500Y-66393200D02*
X69827900Y-66393200D01*
X70465900Y-65563700D02*
X70465900Y-65996800D01*
X68690400Y-65255700D02*
X68690400Y-64870800D01*
X65090000Y-65266400D02*
X65090000Y-73844000D01*
X69827900Y-66393200D02*
X68690400Y-65255700D01*
X69740100Y-62565000D02*
X69740100Y-64837900D01*
X70069500Y-66393200D02*
X70069500Y-70456100D01*
X70465900Y-65996800D02*
X70069500Y-66393200D01*
X70240000Y-62065100D02*
X69740100Y-62565000D01*
X67509000Y-63689400D02*
X66667000Y-63689400D01*
X70149200Y-61037818D02*
X70240000Y-61128618D01*
X68690400Y-64870800D02*
X67509000Y-63689400D01*
X69740100Y-64837900D02*
X70465900Y-65563700D01*
X74776300Y-64943500D02*
X74776300Y-57549400D01*
X74776300Y-57549400D02*
X75306800Y-57018900D01*
X75279900Y-77180800D02*
X75279900Y-65447100D01*
X75279900Y-65447100D02*
X74776300Y-64943500D01*
X78812500Y-77620600D02*
X78812500Y-68113200D01*
X78812500Y-68113200D02*
X79487000Y-67438700D01*
X78728700Y-77704400D02*
X78812500Y-77620600D01*
X79073400Y-66532000D02*
X79073400Y-63148700D01*
X79397100Y-55042000D02*
X78415500Y-54060400D01*
X79487000Y-66945600D02*
X79073400Y-66532000D01*
X79073400Y-63148700D02*
X79397100Y-62825000D01*
X78415500Y-53111000D02*
X77092100Y-51787600D01*
X79487000Y-67438700D02*
X79487000Y-66945600D01*
X79397100Y-62825000D02*
X79397100Y-55042000D01*
X78415500Y-54060400D02*
X78415500Y-53111000D01*
X84703800Y-83119600D02*
X84703800Y-67113600D01*
X85426400Y-66391000D02*
X85426400Y-58350300D01*
X86233300Y-84649100D02*
X84703800Y-83119600D01*
X85426400Y-58350300D02*
X85107500Y-58031400D01*
X84703800Y-67113600D02*
X85426400Y-66391000D01*
X86510000Y-84649100D02*
X86233300Y-84649100D01*
X79274500Y-79505600D02*
X79274500Y-78632000D01*
X74055500Y-85537600D02*
X73413200Y-84895300D01*
X79274500Y-78632000D02*
X80876100Y-77030400D01*
X80311600Y-84732900D02*
X79506900Y-85537600D01*
X80311600Y-83194800D02*
X80311600Y-84732900D01*
X80876100Y-77030400D02*
X80876100Y-73522400D01*
X73413200Y-84895300D02*
X72667400Y-84149500D01*
X72667400Y-84149500D02*
X67466800Y-84149500D01*
X79506900Y-85537600D02*
X74055500Y-85537600D01*
X88640100Y-85222600D02*
X84543600Y-85222600D01*
X88739300Y-85123400D02*
X88640100Y-85222600D01*
X66943100Y-84673200D02*
X63899400Y-84673200D01*
X80311600Y-80542700D02*
X79274500Y-79505600D01*
X81448600Y-72949900D02*
X81448600Y-67345200D01*
X80876100Y-73522400D02*
X81448600Y-72949900D01*
X84543600Y-85222600D02*
X83941300Y-84620300D01*
X80311600Y-83194800D02*
X80311600Y-80542700D01*
X67466800Y-84149500D02*
X66943100Y-84673200D01*
X80863900Y-79039400D02*
X80863900Y-85027600D01*
X67599800Y-86592900D02*
X63516700Y-86592900D01*
X80220000Y-78395500D02*
X80863900Y-79039400D01*
X81099200Y-85262900D02*
X80863900Y-85027600D01*
X79697800Y-86193700D02*
X72595000Y-86193700D01*
X72595000Y-86193700D02*
X67999000Y-86193700D01*
X63516700Y-86592900D02*
X62863600Y-87246000D01*
X81099200Y-85262900D02*
X83231400Y-87395100D01*
X62863600Y-87246000D02*
X61312400Y-87246000D01*
X61312400Y-87246000D02*
X61219000Y-87339400D01*
X80863900Y-85027600D02*
X79697800Y-86193700D01*
X72595000Y-86193700D02*
X72595000Y-86687100D01*
X67999000Y-86193700D02*
X67599800Y-86592900D01*
X83231400Y-87395100D02*
X83403900Y-87395100D01*
X83917000Y-88167700D02*
X84981200Y-89231900D01*
X83289000Y-78255900D02*
X84412400Y-79379300D01*
X83449000Y-85010000D02*
X83917000Y-85478000D01*
X84412400Y-79379300D02*
X84412400Y-83347000D01*
X83917000Y-85478000D02*
X83917000Y-88167700D01*
X84412400Y-83347000D02*
X83449000Y-84310400D01*
X83449000Y-84310400D02*
X83449000Y-85010000D01*
X56672300Y-74136800D02*
X56925200Y-74136800D01*
X56944700Y-64800000D02*
X56940000Y-64804700D01*
X55716400Y-78226400D02*
X55219600Y-78723200D01*
X55219600Y-78723200D02*
X55219600Y-86903900D01*
X56940000Y-64804700D02*
X56940000Y-69117500D01*
X55716400Y-78226400D02*
X56618500Y-77324300D01*
X56672300Y-69385200D02*
X56672300Y-74136800D01*
X55219600Y-86903900D02*
X56116100Y-87800400D01*
X56618500Y-77324300D02*
X56618500Y-74190600D01*
X56940000Y-69117500D02*
X56672300Y-69385200D01*
X56618500Y-74190600D02*
X56672300Y-74136800D01*
X57707500Y-76026400D02*
X57707500Y-73483600D01*
X57707500Y-73483600D02*
X57610500Y-73386600D01*
X57559800Y-80248500D02*
X57222500Y-79911200D01*
X58026200Y-65895700D02*
X58026200Y-68294300D01*
X59654800Y-84608900D02*
X59654800Y-82866800D01*
X58454900Y-85277100D02*
X57559800Y-84382000D01*
X58986600Y-85277100D02*
X59654800Y-84608900D01*
X57222500Y-79911200D02*
X57222500Y-76511400D01*
X58454900Y-85277100D02*
X58986600Y-85277100D01*
X58454900Y-87404100D02*
X58454900Y-85277100D01*
X58026200Y-68294300D02*
X58082900Y-68351000D01*
X57610500Y-73386600D02*
X57610500Y-70474200D01*
X57610500Y-70474200D02*
X57957700Y-70127000D01*
X57559800Y-84382000D02*
X57559800Y-80248500D01*
X58082900Y-70001800D02*
X57957700Y-70127000D01*
X57222500Y-76511400D02*
X57707500Y-76026400D01*
X58082900Y-68351000D02*
X58082900Y-70001800D01*
X60960500Y-70154300D02*
X60960500Y-75008300D01*
X60914200Y-67388300D02*
X60914200Y-62950200D01*
X62607000Y-76654800D02*
X62607000Y-81122100D01*
X60880000Y-59840300D02*
X60550900Y-60169400D01*
X60550900Y-62365100D02*
X61025100Y-62839300D01*
X62256100Y-76303900D02*
X62607000Y-76654800D01*
X60880000Y-57920000D02*
X60880000Y-59840300D01*
X60914200Y-62950200D02*
X61025100Y-62839300D01*
X60914200Y-70108000D02*
X60914200Y-67388300D01*
X60550900Y-60169400D02*
X60550900Y-62365100D01*
X62607000Y-81122100D02*
X61050900Y-82678200D01*
X60960500Y-75008300D02*
X62256100Y-76303900D01*
X60914200Y-67388300D02*
X60653600Y-67388300D01*
X60960500Y-70154300D02*
X60914200Y-70108000D01*
X61050900Y-82678200D02*
X61050900Y-82884300D01*
X65139400Y-75459400D02*
X65139400Y-77903900D01*
X65139400Y-77903900D02*
X64830000Y-78213300D01*
X62850000Y-71419400D02*
X63557500Y-70711900D01*
X64503078Y-74823078D02*
X65139400Y-75459400D01*
X62805900Y-61136800D02*
X63529300Y-60413400D01*
X63811900Y-64548800D02*
X62805900Y-63542800D01*
X62850000Y-72370000D02*
X62850000Y-71419400D01*
X64503078Y-74565712D02*
X64503078Y-74823078D01*
X63811900Y-65100700D02*
X64260000Y-65100700D01*
X63557500Y-70711900D02*
X63557500Y-67871700D01*
X62850000Y-72370000D02*
X62850000Y-72912634D01*
X63557500Y-67871700D02*
X63811900Y-67617300D01*
X63811900Y-67617300D02*
X63811900Y-65100700D01*
X63811900Y-65100700D02*
X63811900Y-64548800D01*
X62805900Y-63542800D02*
X62805900Y-61136800D01*
X62850000Y-72912634D02*
X64503078Y-74565712D01*
X58632500Y-68204800D02*
X58632500Y-77701900D01*
X55409000Y-57139300D02*
X54316300Y-57139300D01*
X58538600Y-68110900D02*
X58632500Y-68204800D01*
X58538600Y-59201400D02*
X58538600Y-68110900D01*
X54316300Y-57139300D02*
X54119300Y-56942300D01*
X60080000Y-57660000D02*
X58538600Y-59201400D01*
X58632500Y-77701900D02*
X57980300Y-78354100D01*
X52446200Y-52255700D02*
X54992400Y-52255700D01*
X54992400Y-52255700D02*
X55265100Y-51983000D01*
X64013078Y-74768677D02*
X62360000Y-73115599D01*
X62360000Y-70592100D02*
X62880500Y-70071600D01*
X62880500Y-65401000D02*
X62523000Y-65043500D01*
X64270000Y-77024700D02*
X64270000Y-83089800D01*
X62523000Y-65043500D02*
X62523000Y-60712500D01*
X63700900Y-59534600D02*
X64835100Y-59534600D01*
X62523000Y-60712500D02*
X63700900Y-59534600D01*
X62880500Y-70071600D02*
X62880500Y-65401000D01*
X64620700Y-75376299D02*
X64620700Y-76674000D01*
X64270000Y-83089800D02*
X65100800Y-83920600D01*
X64620700Y-76674000D02*
X64270000Y-77024700D01*
X64013078Y-74768677D02*
X64620700Y-75376299D01*
X62360000Y-73115599D02*
X62360000Y-70592100D01*
X68291800Y-78131700D02*
X68179300Y-78244200D01*
X67955100Y-73407100D02*
X70939300Y-70422900D01*
X70939300Y-67396000D02*
X71160700Y-67174600D01*
X71160700Y-60763400D02*
X70972600Y-60575300D01*
X67955100Y-77795000D02*
X67955100Y-73407100D01*
X70972600Y-58661900D02*
X71048300Y-58586200D01*
X68747800Y-55390000D02*
X68628700Y-55270900D01*
X70270100Y-55390000D02*
X68747800Y-55390000D01*
X71160700Y-67174600D02*
X71160700Y-60763400D01*
X71048300Y-58586200D02*
X71048300Y-56168200D01*
X68291800Y-78131700D02*
X67955100Y-77795000D01*
X71048300Y-56168200D02*
X70270100Y-55390000D01*
X70939300Y-70422900D02*
X70939300Y-67396000D01*
X68179300Y-78244200D02*
X68179300Y-83057500D01*
X70972600Y-60575300D02*
X70972600Y-58661900D01*
X69343200Y-55775500D02*
X69471800Y-55646900D01*
X70866300Y-74481300D02*
X70987600Y-74481300D01*
X71313100Y-59175800D02*
X71313100Y-55999700D01*
X70163700Y-55646900D02*
X70791400Y-56274600D01*
X70500900Y-77302900D02*
X70453100Y-77350700D01*
X70258600Y-77060600D02*
X70258600Y-75089000D01*
X73128400Y-72340500D02*
X73128400Y-69296900D01*
X71431200Y-67599700D02*
X71431200Y-60670500D01*
X70708200Y-61035200D02*
X70856600Y-61183600D01*
X69494600Y-54745300D02*
X68402900Y-54745300D01*
X70258600Y-75089000D02*
X70866300Y-74481300D01*
X70856600Y-62878700D02*
X70246400Y-63488900D01*
X70987600Y-74481300D02*
X73128400Y-72340500D01*
X73128400Y-69296900D02*
X71431200Y-67599700D01*
X68136800Y-55474600D02*
X68437700Y-55775500D01*
X70708200Y-58382500D02*
X70708200Y-61035200D01*
X70500900Y-77302900D02*
X70258600Y-77060600D01*
X69471800Y-55646900D02*
X70163700Y-55646900D01*
X69573400Y-54824100D02*
X69494600Y-54745300D01*
X70137500Y-54824100D02*
X69573400Y-54824100D01*
X70791400Y-56274600D02*
X70791400Y-58299300D01*
X71431200Y-60670500D02*
X71229700Y-60469000D01*
X70791400Y-58299300D02*
X70708200Y-58382500D01*
X68437700Y-55775500D02*
X69343200Y-55775500D01*
X70856600Y-61183600D02*
X70856600Y-62878700D01*
X68402900Y-54745300D02*
X68136800Y-55011400D01*
X71229700Y-60469000D02*
X71229700Y-59259200D01*
X68136800Y-55011400D02*
X68136800Y-55474600D01*
X71229700Y-59259200D02*
X71313100Y-59175800D01*
X70453100Y-77350700D02*
X70453100Y-82218000D01*
X70453100Y-82218000D02*
X70788400Y-82553300D01*
X71313100Y-55999700D02*
X70137500Y-54824100D01*
X73848900Y-60544600D02*
X74226900Y-60544600D01*
X74381100Y-76705500D02*
X74511100Y-76575500D01*
X74553000Y-65402000D02*
X74226900Y-65075900D01*
X71848400Y-59816700D02*
X73121000Y-59816700D01*
X73121000Y-59816700D02*
X73848900Y-60544600D01*
X74511100Y-74398700D02*
X74553000Y-74356800D01*
X75811900Y-55289900D02*
X75811900Y-52843000D01*
X71730400Y-59698700D02*
X71848400Y-59816700D01*
X74226900Y-60544600D02*
X74516700Y-60254800D01*
X74553000Y-74356800D02*
X74553000Y-67934500D01*
X74516700Y-60254800D02*
X74516700Y-56585100D01*
X74516700Y-56585100D02*
X75360700Y-55741100D01*
X75811900Y-52843000D02*
X75272900Y-52304000D01*
X74511100Y-76575500D02*
X74511100Y-74398700D01*
X74226900Y-65075900D02*
X74226900Y-60544600D01*
X74553000Y-67934500D02*
X74645700Y-67934500D01*
X74553000Y-67934500D02*
X74553000Y-65402000D01*
X75360700Y-55741100D02*
X75811900Y-55289900D01*
X76020600Y-67911700D02*
X75889200Y-68043100D01*
X77122300Y-53936500D02*
X77395200Y-54209400D01*
X76020600Y-60656000D02*
X76020600Y-60065400D01*
X76020600Y-60065400D02*
X77347000Y-58739000D01*
X76020600Y-65403300D02*
X76020600Y-67911700D01*
X76717500Y-68871400D02*
X75889200Y-68043100D01*
X75286000Y-60656000D02*
X76020600Y-60656000D01*
X75782400Y-75645000D02*
X75782400Y-78181500D01*
X76122300Y-75305100D02*
X75782400Y-75645000D01*
X76717500Y-71722200D02*
X76717500Y-74709900D01*
X76717500Y-74709900D02*
X76122300Y-75305100D01*
X77395200Y-54209400D02*
X77395200Y-56145300D01*
X76020600Y-65403300D02*
X76020600Y-60656000D01*
X76717500Y-71722200D02*
X76717500Y-68871400D01*
X77888100Y-53352900D02*
X77915000Y-53326000D01*
X78080000Y-76092965D02*
X78080000Y-74949800D01*
X77944500Y-72213400D02*
X77943300Y-72212200D01*
X77500000Y-82300000D02*
X77510000Y-82290000D01*
X75269700Y-59499600D02*
X77567000Y-57202300D01*
X78320600Y-67988100D02*
X77964600Y-68344100D01*
X78020000Y-76152965D02*
X78080000Y-76092965D01*
X77888100Y-57202300D02*
X77888100Y-53352900D01*
X77964600Y-72213400D02*
X77944500Y-72213400D01*
X78563700Y-62600000D02*
X78563700Y-63207000D01*
X77510000Y-81391482D02*
X78030000Y-80871482D01*
X78320600Y-63450100D02*
X78320600Y-67988100D01*
X77567000Y-57202300D02*
X77888100Y-57202300D01*
X78563700Y-62600000D02*
X78898800Y-62600000D01*
X78563700Y-63207000D02*
X78320600Y-63450100D01*
X77964600Y-74834400D02*
X77964600Y-72213400D01*
X78010000Y-78210000D02*
X78020000Y-78200000D01*
X78080000Y-74949800D02*
X77964600Y-74834400D01*
X78030000Y-78230000D02*
X78010000Y-78210000D01*
X78020000Y-78200000D02*
X78020000Y-76152965D01*
X77964600Y-68344100D02*
X77964600Y-72213400D01*
X77510000Y-82290000D02*
X77510000Y-81391482D01*
X77888100Y-57202300D02*
X78563700Y-57877900D01*
X78563700Y-57877900D02*
X78563700Y-62600000D01*
X78030000Y-80871482D02*
X78030000Y-78230000D01*
X81708400Y-74442700D02*
X81494200Y-74656900D01*
X81593000Y-60110600D02*
X81598500Y-60105100D01*
X82402966Y-67790000D02*
X82006000Y-67790000D01*
X82446483Y-67746483D02*
X82402966Y-67790000D01*
X81942600Y-65155400D02*
X81593000Y-64805800D01*
X81708400Y-74442700D02*
X81708400Y-68081600D01*
X81598500Y-57602300D02*
X81590200Y-57594000D01*
X81494200Y-74656900D02*
X81494200Y-78652400D01*
X81590200Y-55194500D02*
X79964300Y-53568600D01*
X81494200Y-78652400D02*
X81968900Y-79127100D01*
X81590200Y-57594000D02*
X81590200Y-55194500D01*
X81942600Y-67853400D02*
X81942600Y-65155400D01*
X82006000Y-67790000D02*
X81942600Y-67853400D01*
X81936600Y-67853400D02*
X81942600Y-67853400D01*
X81598500Y-60105100D02*
X81598500Y-57602300D01*
X81708400Y-68081600D02*
X81936600Y-67853400D01*
X81593000Y-64805800D02*
X81593000Y-60110600D01*
X83515900Y-81015000D02*
X84120900Y-80410000D01*
X83122000Y-76118100D02*
X83122000Y-75710500D01*
X83122000Y-75710500D02*
X82981800Y-75570300D01*
X84897300Y-56003600D02*
X84897300Y-54031300D01*
X82981800Y-73370600D02*
X83002300Y-73350100D01*
X84120900Y-80410000D02*
X84120900Y-79889100D01*
X82782400Y-78550600D02*
X82782400Y-76457700D01*
X84120900Y-79889100D02*
X82782400Y-78550600D01*
X82999434Y-68447046D02*
X83002300Y-68449912D01*
X83009000Y-68437480D02*
X83009000Y-63693500D01*
X82914500Y-81015000D02*
X83515900Y-81015000D01*
X82981800Y-75570300D02*
X82981800Y-73370600D01*
X84897300Y-54031300D02*
X84715700Y-53849700D01*
X82999434Y-68447046D02*
X83009000Y-68437480D01*
X83797000Y-59823700D02*
X83797000Y-62355900D01*
X83002300Y-68449912D02*
X83002300Y-73350100D01*
X83009000Y-63693500D02*
X82734200Y-63418700D01*
X83797000Y-57103900D02*
X83797000Y-59823700D01*
X82782400Y-76457700D02*
X83122000Y-76118100D01*
X83797000Y-62355900D02*
X82734200Y-63418700D01*
X84897300Y-56003600D02*
X83797000Y-57103900D01*
X86501800Y-67592700D02*
X86086000Y-67592700D01*
X87408800Y-53213800D02*
X87396600Y-53201600D01*
X86022613Y-59883468D02*
X86022613Y-57391387D01*
X86100000Y-82851900D02*
X85292400Y-82044300D01*
X87408800Y-56005200D02*
X87408800Y-53213800D01*
X86013100Y-59892981D02*
X86013100Y-62889100D01*
X85848100Y-70776800D02*
X85791500Y-70776800D01*
X86086000Y-67592700D02*
X85848100Y-67830600D01*
X86022613Y-57391387D02*
X87408800Y-56005200D01*
X85848100Y-70776800D02*
X85848100Y-75351400D01*
X86086000Y-67592700D02*
X86086000Y-62962000D01*
X85292400Y-75907100D02*
X85257600Y-75907100D01*
X85848100Y-67830600D02*
X85848100Y-70776800D01*
X86022613Y-59883468D02*
X86013100Y-59892981D01*
X86086000Y-62962000D02*
X86013100Y-62889100D01*
X85292400Y-82044300D02*
X85292400Y-78363400D01*
X85292400Y-75907100D02*
X85292400Y-78363400D01*
X85848100Y-75351400D02*
X85292400Y-75907100D01*
X72067500Y-74952500D02*
X71947700Y-74832700D01*
X75786100Y-81351700D02*
X75786100Y-78883300D01*
X77291400Y-63430500D02*
X77914900Y-62807000D01*
X79056300Y-84507700D02*
X78942100Y-84507700D01*
X76275900Y-76478900D02*
X77291400Y-75463400D01*
X72067500Y-75164700D02*
X72067500Y-74952500D01*
X76275900Y-78393400D02*
X76275900Y-76478900D01*
X78942100Y-84507700D02*
X75786100Y-81351700D01*
X75786100Y-78883300D02*
X75786100Y-78883200D01*
X75786100Y-78883200D02*
X76275900Y-78393400D01*
X75786100Y-78883200D02*
X72067500Y-75164700D01*
X77291400Y-75463400D02*
X77291400Y-63430500D01*
X79553500Y-82107500D02*
X78733500Y-81287500D01*
X79220600Y-71878300D02*
X81031200Y-70067700D01*
X71013800Y-77122100D02*
X71013800Y-75556000D01*
X81031200Y-70067700D02*
X81031200Y-69660100D01*
X78733500Y-81287500D02*
X78733500Y-78431300D01*
X80943700Y-69572600D02*
X80943700Y-62525400D01*
X81031200Y-69660100D02*
X80943700Y-69572600D01*
X79288200Y-84999900D02*
X79553500Y-84734600D01*
X76384200Y-82492500D02*
X71013800Y-77122100D01*
X80943700Y-62525400D02*
X81073100Y-62396000D01*
X79553500Y-84734600D02*
X79553500Y-82107500D01*
X76384200Y-84766300D02*
X76384200Y-82492500D01*
X79220600Y-77944200D02*
X79220600Y-71878300D01*
X76384200Y-84766300D02*
X76617800Y-84999900D01*
X76617800Y-84999900D02*
X79288200Y-84999900D01*
X71013800Y-75556000D02*
X70750500Y-75292700D01*
X78733500Y-78431300D02*
X79220600Y-77944200D01*
X59845400Y-66979400D02*
X59906800Y-67040800D01*
X60255900Y-84291400D02*
X60861300Y-84896800D01*
X59906800Y-67436600D02*
X59416100Y-67927300D01*
X60255900Y-82497600D02*
X60255900Y-84291400D01*
X59906800Y-67040800D02*
X59906800Y-67436600D01*
X59845400Y-59439700D02*
X59845400Y-66979400D01*
X60094300Y-59190800D02*
X59845400Y-59439700D01*
X59416100Y-81657800D02*
X60255900Y-82497600D01*
X59416100Y-67927300D02*
X59416100Y-81657800D01*
X58773000Y-84785100D02*
X58921700Y-84636400D01*
X58852200Y-67883100D02*
X58852200Y-62865900D01*
X58852200Y-62865900D02*
X59175000Y-62543100D01*
X58921700Y-67952600D02*
X58852200Y-67883100D01*
X58921700Y-84636400D02*
X58921700Y-67952600D01*
X56875500Y-80289000D02*
X55724600Y-81439900D01*
X56875500Y-75962300D02*
X56875500Y-80289000D01*
X57434700Y-64311600D02*
X57434700Y-70289376D01*
X55724600Y-81439900D02*
X55724600Y-83198400D01*
X57434700Y-70289376D02*
X57355500Y-70368576D01*
X57434700Y-73571424D02*
X57434700Y-75403100D01*
X57355500Y-70368576D02*
X57355500Y-73492224D01*
X57893000Y-62572900D02*
X57990500Y-62670400D01*
X57990500Y-62670400D02*
X57990500Y-63755800D01*
X57355500Y-73492224D02*
X57434700Y-73571424D01*
X57990500Y-63755800D02*
X57434700Y-64311600D01*
X57434700Y-75403100D02*
X56875500Y-75962300D01*
X53608500Y-84475500D02*
X53608500Y-63657300D01*
X53608500Y-63657300D02*
X54696800Y-62569000D01*
X53163500Y-84920500D02*
X53608500Y-84475500D01*
X72180000Y-72530000D02*
X69975000Y-74735000D01*
X69975000Y-82065000D02*
X69960000Y-82080000D01*
X69975000Y-74735000D02*
X69975000Y-82065000D01*
X69120000Y-82030000D02*
X69070000Y-82080000D01*
X69490000Y-74490000D02*
X69490000Y-79930000D01*
X69120000Y-80300000D02*
X69120000Y-82030000D01*
X69490000Y-79930000D02*
X69120000Y-80300000D01*
X72350000Y-71630000D02*
X69490000Y-74490000D01*
X65475200Y-83599300D02*
X65592700Y-83716800D01*
X65304600Y-84413600D02*
X64897100Y-84413600D01*
X60512800Y-70402200D02*
X59933200Y-69822600D01*
X65475200Y-78452767D02*
X65475200Y-83599300D01*
X59933200Y-69822600D02*
X59933200Y-68105800D01*
X65714667Y-78213300D02*
X65475200Y-78452767D01*
X65592700Y-84125500D02*
X65304600Y-84413600D01*
X65592700Y-83716800D02*
X65592700Y-84125500D01*
X61094800Y-83624000D02*
X60512800Y-83042000D01*
X60512800Y-83042000D02*
X60512800Y-70402200D01*
X64107500Y-83624000D02*
X61094800Y-83624000D01*
X64897100Y-84413600D02*
X64107500Y-83624000D01*
X62892400Y-75712500D02*
X63106400Y-75926500D01*
X63106400Y-75926500D02*
X63106400Y-78316400D01*
X65116483Y-74743517D02*
X64600000Y-74227034D01*
X68431396Y-59900000D02*
X68436961Y-59894435D01*
X64600000Y-74227034D02*
X64600000Y-73641035D01*
X64750000Y-73491035D02*
X64750000Y-64783200D01*
X63064300Y-63097500D02*
X63064300Y-62553600D01*
X64750000Y-64783200D02*
X63064300Y-63097500D01*
X65717900Y-59900000D02*
X68431396Y-59900000D01*
X63064300Y-62553600D02*
X65717900Y-59900000D01*
X64600000Y-73641035D02*
X64750000Y-73491035D01*
X62136000Y-69451000D02*
X62136000Y-58243600D01*
X69800200Y-56264900D02*
X63545000Y-56264900D01*
X63545000Y-55297100D02*
X63502300Y-55254400D01*
X63545000Y-56264900D02*
X63545000Y-55297100D01*
X62136000Y-58243600D02*
X63545000Y-56834600D01*
X63545000Y-56834600D02*
X63545000Y-56264900D01*
X69926200Y-56138900D02*
X69800200Y-56264900D01*
X62357400Y-69672400D02*
X62136000Y-69451000D01*
X66302300Y-78042300D02*
X65686900Y-77426900D01*
X67897400Y-83857400D02*
X67019900Y-82979900D01*
X67019900Y-82979900D02*
X67019900Y-81045400D01*
X72417700Y-83567200D02*
X72127500Y-83857400D01*
X65686900Y-77426900D02*
X65686900Y-70094400D01*
X67019900Y-81045400D02*
X66302300Y-80327800D01*
X72127500Y-83857400D02*
X67897400Y-83857400D01*
X66302300Y-80327800D02*
X66302300Y-78042300D01*
X74022600Y-56326300D02*
X72972700Y-55276400D01*
X72972700Y-55276400D02*
X71922700Y-55276400D01*
X74022600Y-59993100D02*
X74022600Y-56326300D01*
X71922700Y-55276400D02*
X71360600Y-54714300D01*
X82460800Y-79330900D02*
X82268100Y-79523600D01*
X82462700Y-75223500D02*
X81987700Y-75698500D01*
X82268100Y-79523600D02*
X82268100Y-82281100D01*
X82460800Y-77736300D02*
X82460800Y-79330900D01*
X81987700Y-77263200D02*
X82460800Y-77736300D01*
X82724900Y-72931700D02*
X82462700Y-73193900D01*
X82225800Y-71859100D02*
X82724900Y-72358200D01*
X81987700Y-75698500D02*
X81987700Y-77263200D01*
X82268100Y-82281100D02*
X82578600Y-82591600D01*
X82462700Y-73193900D02*
X82462700Y-75223500D01*
X82724900Y-72358200D02*
X82724900Y-72931700D01*
M02*
