M48
; DRILL file {KiCad 7.0.10-7.0.10~ubuntu22.04.1} date Mon 08 Jul 2024 11:58:02 AM PDT
; FORMAT={-:-/ absolute / inch / decimal}
; #@! TF.CreationDate,2024-07-08T11:58:02-07:00
; #@! TF.GenerationSoftware,Kicad,Pcbnew,7.0.10-7.0.10~ubuntu22.04.1
; #@! TF.FileFunction,Plated,1,6,PTH
FMAT,2
INCH
; #@! TA.AperFunction,Plated,PTH,ViaDrill
T1C0.0118
; #@! TA.AperFunction,Plated,PTH,ViaDrill
T2C0.0236
%
G90
G05
T1
X2.0004Y-2.9744
X2.0006Y-3.1683
X2.0035Y-2.5626
X2.0094Y-3.0668
X2.0228Y-2.6567
X2.0486Y-2.8195
X2.056Y-2.4748
X2.063Y-3.2638
X2.0648Y-2.0573
X2.0858Y-2.4937
X2.0886Y-3.0679
X2.0898Y-2.6535
X2.09Y-2.1587
X2.0931Y-3.3433
X2.0981Y-3.3755
X2.1027Y-2.3692
X2.1069Y-2.4567
X2.111Y-3.4573
X2.1307Y-2.2418
X2.1323Y-2.935
X2.1386Y-3.1185
X2.1486Y-2.6543
X2.1534Y-2.4633
X2.1582Y-3.0744
X2.1623Y-2.7618
X2.1623Y-2.8974
X2.1693Y-2.6996
X2.1758Y-2.0466
X2.1815Y-2.2496
X2.1906Y-2.6737
X2.1936Y-3.0798
X2.1937Y-2.3933
X2.1939Y-3.2755
X2.2019Y-2.4789
X2.2051Y-2.5626
X2.2051Y-2.9563
X2.2075Y-2.2784
X2.2093Y-3.4567
X2.2118Y-3.1551
X2.2189Y-3.2429
X2.2312Y-2.7317
X2.2411Y-2.9188
X2.2419Y-2.5512
X2.2441Y-3.2201
X2.26Y-2.4889
X2.2679Y-2.3232
X2.2719Y-2.9932
X2.2722Y-3.0461
X2.2793Y-2.4635
X2.2818Y-2.7609
X2.2827Y-3.0848
X2.2831Y-2.5622
X2.2845Y-2.5943
X2.2867Y-2.691
X2.2882Y-2.8571
X2.2963Y-3.2608
X2.3014Y-3.4411
X2.3139Y-3.338
X2.3297Y-2.4623
X2.3368Y-2.6488
X2.3486Y-3.2625
X2.3565Y-2.1356
X2.3587Y-3.1169
X2.3596Y-2.6813
X2.3654Y-2.2701
X2.3659Y-2.3303
X2.3764Y-2.5
X2.3879Y-2.6531
X2.3961Y-3.3424
X2.3969Y-2.2803
X2.4Y-2.762
X2.4026Y-2.474
X2.4036Y-3.2632
X2.4045Y-2.3757
X2.4102Y-3.4386
X2.4244Y-2.6492
X2.4346Y-2.168
X2.4406Y-3.1177
X2.4433Y-2.9437
X2.451Y-3.0041
X2.455Y-2.743
X2.4568Y-3.2391
X2.4623Y-2.2492
X2.464Y-2.1348
X2.4648Y-3.1938
X2.4657Y-2.3533
X2.4744Y-2.8492
X2.4749Y-3.4349
X2.4761Y-2.9808
X2.4845Y-3.0833
X2.4874Y-2.0628
X2.4903Y-2.2925
X2.4913Y-2.5622
X2.4945Y-3.1606
X2.5001Y-2.1754
X2.5012Y-2.3785
X2.5023Y-2.6721
X2.5023Y-2.4752
X2.5059Y-3.0554
X2.511Y-2.8496
X2.5157Y-3.3336
X2.5202Y-2.9436
X2.5299Y-2.563
X2.5429Y-2.0539
X2.5433Y-2.2665
X2.5441Y-3.0187
X2.5473Y-2.1806
X2.548Y-2.4354
X2.5524Y-3.0793
X2.5526Y-2.3439
X2.5541Y-3.2628
X2.5626Y-2.9072
X2.563Y-3.304
X2.5636Y-2.9427
X2.5663Y-2.1553
X2.5861Y-2.7596
X2.5872Y-3.0793
X2.5963Y-2.5632
X2.5981Y-3.2527
X2.6079Y-2.1583
X2.612Y-3.0457
X2.6307Y-2.3362
X2.6315Y-3.1222
X2.6398Y-2.5272
X2.6421Y-2.1516
X2.655Y-2.9336
X2.6562Y-3.313
X2.6583Y-2.8563
X2.6606Y-2.7819
X2.6614Y-3.4092
X2.6618Y-2.0169
X2.6634Y-2.3807
X2.6646Y-2.1957
X2.6754Y-2.89
X2.6825Y-2.5599
X2.6842Y-3.27
X2.6887Y-3.0761
X2.6944Y-2.358
X2.6972Y-2.9618
X2.7019Y-2.176
X2.7132Y-3.1415
X2.7193Y-3.2315
X2.7327Y-2.6303
X2.7391Y-2.1584
X2.7451Y-3.4134
X2.7455Y-2.3695
X2.7461Y-2.0669
X2.7461Y-2.435
X2.7472Y-2.2496
X2.753Y-2.2102
X2.754Y-2.59
X2.7543Y-3.2315
X2.7559Y-2.8642
X2.7586Y-2.7739
X2.7614Y-2.0972
X2.7618Y-2.4031
X2.7656Y-2.4996
X2.7669Y-2.2823
X2.7701Y-2.4665
X2.7756Y-3.0434
X2.7855Y-2.9643
X2.7869Y-3.2501
X2.7937Y-3.07
X2.8002Y-3.1581
X2.8095Y-2.1541
X2.8123Y-2.6614
X2.824Y-2.3503
X2.8326Y-2.9462
X2.8335Y-3.0433
X2.8417Y-2.8555
X2.8449Y-2.6303
X2.8465Y-2.1484
X2.8484Y-2.8201
X2.849Y-2.5187
X2.8511Y-3.29
X2.8528Y-2.3328
X2.8533Y-3.3583
X2.8581Y-3.4129
X2.8583Y-2.7622
X2.8594Y-2.015
X2.861Y-3.2559
X2.8685Y-2.2008
X2.8752Y-2.3866
X2.8839Y-3.0713
X2.8903Y-3.3423
X2.8987Y-2.1724
X2.9143Y-2.3619
X2.9223Y-2.562
X2.9246Y-3.2521
X2.9284Y-3.0199
X2.9335Y-2.9291
X2.9374Y-3.122
X2.9388Y-2.6746
X2.9583Y-2.1491
X2.9634Y-2.3425
X2.9635Y-2.0592
X2.9638Y-3.0386
X2.964Y-2.388
X2.9642Y-2.4665
X2.9648Y-2.2448
X2.9654Y-2.0976
X2.9654Y-2.2823
X2.967Y-2.1945
X2.9821Y-3.2642
X2.9836Y-3.078
X2.9878Y-2.6789
X2.9929Y-2.5749
X2.9933Y-2.8598
X2.9945Y-2.763
X2.9969Y-2.9648
X3.0073Y-3.3373
X3.0138Y-3.1402
X3.0204Y-2.8237
X3.0209Y-2.5547
X3.0351Y-2.0389
X3.0363Y-2.1235
X3.0452Y-2.3126
X3.0471Y-2.2104
X3.0512Y-3.2402
X3.0528Y-3.1717
X3.0547Y-2.9878
X3.0675Y-2.4727
X3.0675Y-2.0994
X3.0686Y-2.843
X3.0695Y-2.9462
X3.0713Y-3.0791
X3.0835Y-2.6767
X3.0931Y-2.2787
X3.095Y-3.2565
X3.0996Y-3.0592
X3.1063Y-2.4646
X3.1094Y-2.6476
X3.1125Y-3.3271
X3.1185Y-3.4137
X3.142Y-2.9186
X3.1429Y-2.5138
X3.1478Y-2.7181
X3.1482Y-2.109
X3.1512Y-3.1197
X3.1583Y-3.0864
X3.1619Y-3.2754
X3.1708Y-2.7505
X3.1866Y-2.8622
X3.1919Y-2.4565
X3.1929Y-3.3568
X3.2066Y-2.6514
X3.2122Y-2.2675
X3.2125Y-2.3663
X3.2169Y-2.9308
X3.2261Y-2.5652
X3.2271Y-3.1152
X3.2279Y-3.0419
X3.2319Y-2.5323
X3.2366Y-2.8641
X3.2372Y-2.8291
X3.243Y-2.7776
X3.2459Y-2.6672
X3.2511Y-3.2516
X3.2532Y-2.9888
X3.2573Y-2.4968
X3.2583Y-3.1409
X3.2644Y-3.1896
X3.2677Y-2.6948
X3.2678Y-2.8878
X3.2791Y-3.0809
X3.2836Y-3.4408
X3.2866Y-2.9602
X3.2913Y-3.1579
X3.2945Y-2.5614
X3.2991Y-2.3553
X3.3048Y-3.3315
X3.3081Y-3.0528
X3.3134Y-2.8398
X3.3353Y-2.1201
X3.3424Y-2.2049
X3.3457Y-3.5131
X3.3507Y-2.2847
X3.3563Y-3.2618
X3.3566Y-2.9885
X3.3569Y-2.648
X3.358Y-3.0852
X3.3593Y-2.9459
X3.3776Y-2.7865
X3.3863Y-2.4759
X3.3867Y-2.3576
X3.3898Y-3.2619
X3.4056Y-2.6611
X3.4059Y-2.8508
X3.4059Y-3.3326
X3.4313Y-3.1195
X3.4396Y-2.5077
X3.4408Y-2.0946
X3.4413Y-2.2049
X3.4587Y-3.0502
X3.464Y-3.267
X3.4932Y-2.9566
X3.4937Y-3.3513
X3.5071Y-2.5535
X3.5094Y-3.1406
T2
X3.3361Y-2.3378
X3.3563Y-3.4478
X3.439Y-2.3455
X3.4557Y-3.4478
M30
