G04 #@! TF.GenerationSoftware,KiCad,Pcbnew,7.0.10-7.0.10~ubuntu22.04.1*
G04 #@! TF.CreationDate,2024-07-08T11:58:00-07:00*
G04 #@! TF.ProjectId,driver_cplex_rp2040,64726976-6572-45f6-9370-6c65785f7270,rev?*
G04 #@! TF.SameCoordinates,Original*
G04 #@! TF.FileFunction,Legend,Bot*
G04 #@! TF.FilePolarity,Positive*
%FSLAX46Y46*%
G04 Gerber Fmt 4.6, Leading zero omitted, Abs format (unit mm)*
G04 Created by KiCad (PCBNEW 7.0.10-7.0.10~ubuntu22.04.1) date 2024-07-08 11:58:00*
%MOMM*%
%LPD*%
G01*
G04 APERTURE LIST*
G04 Aperture macros list*
%AMRoundRect*
0 Rectangle with rounded corners*
0 $1 Rounding radius*
0 $2 $3 $4 $5 $6 $7 $8 $9 X,Y pos of 4 corners*
0 Add a 4 corners polygon primitive as box body*
4,1,4,$2,$3,$4,$5,$6,$7,$8,$9,$2,$3,0*
0 Add four circle primitives for the rounded corners*
1,1,$1+$1,$2,$3*
1,1,$1+$1,$4,$5*
1,1,$1+$1,$6,$7*
1,1,$1+$1,$8,$9*
0 Add four rect primitives between the rounded corners*
20,1,$1+$1,$2,$3,$4,$5,0*
20,1,$1+$1,$4,$5,$6,$7,0*
20,1,$1+$1,$6,$7,$8,$9,0*
20,1,$1+$1,$8,$9,$2,$3,0*%
G04 Aperture macros list end*
%ADD10C,0.203200*%
%ADD11C,0.150000*%
%ADD12C,0.100000*%
%ADD13C,0.120000*%
%ADD14C,0.200000*%
%ADD15RoundRect,0.100000X0.130000X0.100000X-0.130000X0.100000X-0.130000X-0.100000X0.130000X-0.100000X0*%
%ADD16RoundRect,0.100000X-0.130000X-0.100000X0.130000X-0.100000X0.130000X0.100000X-0.130000X0.100000X0*%
%ADD17R,0.350000X0.200000*%
%ADD18RoundRect,0.140000X-0.140000X-0.170000X0.140000X-0.170000X0.140000X0.170000X-0.140000X0.170000X0*%
%ADD19RoundRect,0.150000X0.150000X0.625000X-0.150000X0.625000X-0.150000X-0.625000X0.150000X-0.625000X0*%
%ADD20RoundRect,0.250000X0.350000X0.650000X-0.350000X0.650000X-0.350000X-0.650000X0.350000X-0.650000X0*%
%ADD21R,1.800000X1.350000*%
%ADD22RoundRect,0.102000X-0.408000X-1.483000X0.408000X-1.483000X0.408000X1.483000X-0.408000X1.483000X0*%
%ADD23R,0.350000X0.490000*%
%ADD24R,1.600000X0.200000*%
%ADD25RoundRect,0.100000X-0.100000X0.130000X-0.100000X-0.130000X0.100000X-0.130000X0.100000X0.130000X0*%
%ADD26R,1.200000X1.400000*%
%ADD27RoundRect,0.100000X0.100000X-0.130000X0.100000X0.130000X-0.100000X0.130000X-0.100000X-0.130000X0*%
%ADD28RoundRect,0.050000X0.050000X-0.387500X0.050000X0.387500X-0.050000X0.387500X-0.050000X-0.387500X0*%
%ADD29RoundRect,0.050000X0.387500X-0.050000X0.387500X0.050000X-0.387500X0.050000X-0.387500X-0.050000X0*%
%ADD30R,3.200000X3.200000*%
%ADD31RoundRect,0.150000X0.512500X0.150000X-0.512500X0.150000X-0.512500X-0.150000X0.512500X-0.150000X0*%
%ADD32RoundRect,0.140000X0.170000X-0.140000X0.170000X0.140000X-0.170000X0.140000X-0.170000X-0.140000X0*%
G04 APERTURE END LIST*
D10*
X85878856Y-70437263D02*
X85733713Y-70485644D01*
X85733713Y-70485644D02*
X85685332Y-70534025D01*
X85685332Y-70534025D02*
X85636951Y-70630787D01*
X85636951Y-70630787D02*
X85636951Y-70775930D01*
X85636951Y-70775930D02*
X85685332Y-70872692D01*
X85685332Y-70872692D02*
X85733713Y-70921073D01*
X85733713Y-70921073D02*
X85830475Y-70969453D01*
X85830475Y-70969453D02*
X86217523Y-70969453D01*
X86217523Y-70969453D02*
X86217523Y-69953453D01*
X86217523Y-69953453D02*
X85878856Y-69953453D01*
X85878856Y-69953453D02*
X85782094Y-70001834D01*
X85782094Y-70001834D02*
X85733713Y-70050215D01*
X85733713Y-70050215D02*
X85685332Y-70146977D01*
X85685332Y-70146977D02*
X85685332Y-70243739D01*
X85685332Y-70243739D02*
X85733713Y-70340501D01*
X85733713Y-70340501D02*
X85782094Y-70388882D01*
X85782094Y-70388882D02*
X85878856Y-70437263D01*
X85878856Y-70437263D02*
X86217523Y-70437263D01*
X85007999Y-69953453D02*
X84814475Y-69953453D01*
X84814475Y-69953453D02*
X84717713Y-70001834D01*
X84717713Y-70001834D02*
X84620951Y-70098596D01*
X84620951Y-70098596D02*
X84572570Y-70292120D01*
X84572570Y-70292120D02*
X84572570Y-70630787D01*
X84572570Y-70630787D02*
X84620951Y-70824311D01*
X84620951Y-70824311D02*
X84717713Y-70921073D01*
X84717713Y-70921073D02*
X84814475Y-70969453D01*
X84814475Y-70969453D02*
X85007999Y-70969453D01*
X85007999Y-70969453D02*
X85104761Y-70921073D01*
X85104761Y-70921073D02*
X85201523Y-70824311D01*
X85201523Y-70824311D02*
X85249904Y-70630787D01*
X85249904Y-70630787D02*
X85249904Y-70292120D01*
X85249904Y-70292120D02*
X85201523Y-70098596D01*
X85201523Y-70098596D02*
X85104761Y-70001834D01*
X85104761Y-70001834D02*
X85007999Y-69953453D01*
X83943618Y-69953453D02*
X83750094Y-69953453D01*
X83750094Y-69953453D02*
X83653332Y-70001834D01*
X83653332Y-70001834D02*
X83556570Y-70098596D01*
X83556570Y-70098596D02*
X83508189Y-70292120D01*
X83508189Y-70292120D02*
X83508189Y-70630787D01*
X83508189Y-70630787D02*
X83556570Y-70824311D01*
X83556570Y-70824311D02*
X83653332Y-70921073D01*
X83653332Y-70921073D02*
X83750094Y-70969453D01*
X83750094Y-70969453D02*
X83943618Y-70969453D01*
X83943618Y-70969453D02*
X84040380Y-70921073D01*
X84040380Y-70921073D02*
X84137142Y-70824311D01*
X84137142Y-70824311D02*
X84185523Y-70630787D01*
X84185523Y-70630787D02*
X84185523Y-70292120D01*
X84185523Y-70292120D02*
X84137142Y-70098596D01*
X84137142Y-70098596D02*
X84040380Y-70001834D01*
X84040380Y-70001834D02*
X83943618Y-69953453D01*
X83217904Y-69953453D02*
X82637332Y-69953453D01*
X82927618Y-70969453D02*
X82927618Y-69953453D01*
X55426380Y-71009453D02*
X55765047Y-70525644D01*
X56006952Y-71009453D02*
X56006952Y-69993453D01*
X56006952Y-69993453D02*
X55619904Y-69993453D01*
X55619904Y-69993453D02*
X55523142Y-70041834D01*
X55523142Y-70041834D02*
X55474761Y-70090215D01*
X55474761Y-70090215D02*
X55426380Y-70186977D01*
X55426380Y-70186977D02*
X55426380Y-70332120D01*
X55426380Y-70332120D02*
X55474761Y-70428882D01*
X55474761Y-70428882D02*
X55523142Y-70477263D01*
X55523142Y-70477263D02*
X55619904Y-70525644D01*
X55619904Y-70525644D02*
X56006952Y-70525644D01*
X55039333Y-70961073D02*
X54894190Y-71009453D01*
X54894190Y-71009453D02*
X54652285Y-71009453D01*
X54652285Y-71009453D02*
X54555523Y-70961073D01*
X54555523Y-70961073D02*
X54507142Y-70912692D01*
X54507142Y-70912692D02*
X54458761Y-70815930D01*
X54458761Y-70815930D02*
X54458761Y-70719168D01*
X54458761Y-70719168D02*
X54507142Y-70622406D01*
X54507142Y-70622406D02*
X54555523Y-70574025D01*
X54555523Y-70574025D02*
X54652285Y-70525644D01*
X54652285Y-70525644D02*
X54845809Y-70477263D01*
X54845809Y-70477263D02*
X54942571Y-70428882D01*
X54942571Y-70428882D02*
X54990952Y-70380501D01*
X54990952Y-70380501D02*
X55039333Y-70283739D01*
X55039333Y-70283739D02*
X55039333Y-70186977D01*
X55039333Y-70186977D02*
X54990952Y-70090215D01*
X54990952Y-70090215D02*
X54942571Y-70041834D01*
X54942571Y-70041834D02*
X54845809Y-69993453D01*
X54845809Y-69993453D02*
X54603904Y-69993453D01*
X54603904Y-69993453D02*
X54458761Y-70041834D01*
X54168476Y-69993453D02*
X53587904Y-69993453D01*
X53878190Y-71009453D02*
X53878190Y-69993453D01*
X76179523Y-66709453D02*
X76179523Y-65693453D01*
X76179523Y-65693453D02*
X75792475Y-65693453D01*
X75792475Y-65693453D02*
X75695713Y-65741834D01*
X75695713Y-65741834D02*
X75647332Y-65790215D01*
X75647332Y-65790215D02*
X75598951Y-65886977D01*
X75598951Y-65886977D02*
X75598951Y-66032120D01*
X75598951Y-66032120D02*
X75647332Y-66128882D01*
X75647332Y-66128882D02*
X75695713Y-66177263D01*
X75695713Y-66177263D02*
X75792475Y-66225644D01*
X75792475Y-66225644D02*
X76179523Y-66225644D01*
X74728094Y-66709453D02*
X74728094Y-66177263D01*
X74728094Y-66177263D02*
X74776475Y-66080501D01*
X74776475Y-66080501D02*
X74873237Y-66032120D01*
X74873237Y-66032120D02*
X75066761Y-66032120D01*
X75066761Y-66032120D02*
X75163523Y-66080501D01*
X74728094Y-66661073D02*
X74824856Y-66709453D01*
X74824856Y-66709453D02*
X75066761Y-66709453D01*
X75066761Y-66709453D02*
X75163523Y-66661073D01*
X75163523Y-66661073D02*
X75211904Y-66564311D01*
X75211904Y-66564311D02*
X75211904Y-66467549D01*
X75211904Y-66467549D02*
X75163523Y-66370787D01*
X75163523Y-66370787D02*
X75066761Y-66322406D01*
X75066761Y-66322406D02*
X74824856Y-66322406D01*
X74824856Y-66322406D02*
X74728094Y-66274025D01*
X74244285Y-66032120D02*
X74244285Y-66709453D01*
X74244285Y-66128882D02*
X74195904Y-66080501D01*
X74195904Y-66080501D02*
X74099142Y-66032120D01*
X74099142Y-66032120D02*
X73953999Y-66032120D01*
X73953999Y-66032120D02*
X73857237Y-66080501D01*
X73857237Y-66080501D02*
X73808856Y-66177263D01*
X73808856Y-66177263D02*
X73808856Y-66709453D01*
X72937999Y-66661073D02*
X73034761Y-66709453D01*
X73034761Y-66709453D02*
X73228285Y-66709453D01*
X73228285Y-66709453D02*
X73325047Y-66661073D01*
X73325047Y-66661073D02*
X73373428Y-66564311D01*
X73373428Y-66564311D02*
X73373428Y-66177263D01*
X73373428Y-66177263D02*
X73325047Y-66080501D01*
X73325047Y-66080501D02*
X73228285Y-66032120D01*
X73228285Y-66032120D02*
X73034761Y-66032120D01*
X73034761Y-66032120D02*
X72937999Y-66080501D01*
X72937999Y-66080501D02*
X72889618Y-66177263D01*
X72889618Y-66177263D02*
X72889618Y-66274025D01*
X72889618Y-66274025D02*
X73373428Y-66370787D01*
X72309047Y-66709453D02*
X72405809Y-66661073D01*
X72405809Y-66661073D02*
X72454190Y-66564311D01*
X72454190Y-66564311D02*
X72454190Y-65693453D01*
X70615714Y-65741834D02*
X70712476Y-65693453D01*
X70712476Y-65693453D02*
X70857619Y-65693453D01*
X70857619Y-65693453D02*
X71002762Y-65741834D01*
X71002762Y-65741834D02*
X71099524Y-65838596D01*
X71099524Y-65838596D02*
X71147905Y-65935358D01*
X71147905Y-65935358D02*
X71196286Y-66128882D01*
X71196286Y-66128882D02*
X71196286Y-66274025D01*
X71196286Y-66274025D02*
X71147905Y-66467549D01*
X71147905Y-66467549D02*
X71099524Y-66564311D01*
X71099524Y-66564311D02*
X71002762Y-66661073D01*
X71002762Y-66661073D02*
X70857619Y-66709453D01*
X70857619Y-66709453D02*
X70760857Y-66709453D01*
X70760857Y-66709453D02*
X70615714Y-66661073D01*
X70615714Y-66661073D02*
X70567333Y-66612692D01*
X70567333Y-66612692D02*
X70567333Y-66274025D01*
X70567333Y-66274025D02*
X70760857Y-66274025D01*
X69696476Y-65693453D02*
X69890000Y-65693453D01*
X69890000Y-65693453D02*
X69986762Y-65741834D01*
X69986762Y-65741834D02*
X70035143Y-65790215D01*
X70035143Y-65790215D02*
X70131905Y-65935358D01*
X70131905Y-65935358D02*
X70180286Y-66128882D01*
X70180286Y-66128882D02*
X70180286Y-66515930D01*
X70180286Y-66515930D02*
X70131905Y-66612692D01*
X70131905Y-66612692D02*
X70083524Y-66661073D01*
X70083524Y-66661073D02*
X69986762Y-66709453D01*
X69986762Y-66709453D02*
X69793238Y-66709453D01*
X69793238Y-66709453D02*
X69696476Y-66661073D01*
X69696476Y-66661073D02*
X69648095Y-66612692D01*
X69648095Y-66612692D02*
X69599714Y-66515930D01*
X69599714Y-66515930D02*
X69599714Y-66274025D01*
X69599714Y-66274025D02*
X69648095Y-66177263D01*
X69648095Y-66177263D02*
X69696476Y-66128882D01*
X69696476Y-66128882D02*
X69793238Y-66080501D01*
X69793238Y-66080501D02*
X69986762Y-66080501D01*
X69986762Y-66080501D02*
X70083524Y-66128882D01*
X70083524Y-66128882D02*
X70131905Y-66177263D01*
X70131905Y-66177263D02*
X70180286Y-66274025D01*
X68535334Y-65693453D02*
X68196667Y-66709453D01*
X68196667Y-66709453D02*
X67858000Y-65693453D01*
X66987143Y-66709453D02*
X67567715Y-66709453D01*
X67277429Y-66709453D02*
X67277429Y-65693453D01*
X67277429Y-65693453D02*
X67374191Y-65838596D01*
X67374191Y-65838596D02*
X67470953Y-65935358D01*
X67470953Y-65935358D02*
X67567715Y-65983739D01*
X66551715Y-66612692D02*
X66503334Y-66661073D01*
X66503334Y-66661073D02*
X66551715Y-66709453D01*
X66551715Y-66709453D02*
X66600096Y-66661073D01*
X66600096Y-66661073D02*
X66551715Y-66612692D01*
X66551715Y-66612692D02*
X66551715Y-66709453D01*
X65874381Y-65693453D02*
X65777619Y-65693453D01*
X65777619Y-65693453D02*
X65680857Y-65741834D01*
X65680857Y-65741834D02*
X65632476Y-65790215D01*
X65632476Y-65790215D02*
X65584095Y-65886977D01*
X65584095Y-65886977D02*
X65535714Y-66080501D01*
X65535714Y-66080501D02*
X65535714Y-66322406D01*
X65535714Y-66322406D02*
X65584095Y-66515930D01*
X65584095Y-66515930D02*
X65632476Y-66612692D01*
X65632476Y-66612692D02*
X65680857Y-66661073D01*
X65680857Y-66661073D02*
X65777619Y-66709453D01*
X65777619Y-66709453D02*
X65874381Y-66709453D01*
X65874381Y-66709453D02*
X65971143Y-66661073D01*
X65971143Y-66661073D02*
X66019524Y-66612692D01*
X66019524Y-66612692D02*
X66067905Y-66515930D01*
X66067905Y-66515930D02*
X66116286Y-66322406D01*
X66116286Y-66322406D02*
X66116286Y-66080501D01*
X66116286Y-66080501D02*
X66067905Y-65886977D01*
X66067905Y-65886977D02*
X66019524Y-65790215D01*
X66019524Y-65790215D02*
X65971143Y-65741834D01*
X65971143Y-65741834D02*
X65874381Y-65693453D01*
X64519714Y-66709453D02*
X64858381Y-66225644D01*
X65100286Y-66709453D02*
X65100286Y-65693453D01*
X65100286Y-65693453D02*
X64713238Y-65693453D01*
X64713238Y-65693453D02*
X64616476Y-65741834D01*
X64616476Y-65741834D02*
X64568095Y-65790215D01*
X64568095Y-65790215D02*
X64519714Y-65886977D01*
X64519714Y-65886977D02*
X64519714Y-66032120D01*
X64519714Y-66032120D02*
X64568095Y-66128882D01*
X64568095Y-66128882D02*
X64616476Y-66177263D01*
X64616476Y-66177263D02*
X64713238Y-66225644D01*
X64713238Y-66225644D02*
X65100286Y-66225644D01*
X63552095Y-66709453D02*
X64132667Y-66709453D01*
X63842381Y-66709453D02*
X63842381Y-65693453D01*
X63842381Y-65693453D02*
X63939143Y-65838596D01*
X63939143Y-65838596D02*
X64035905Y-65935358D01*
X64035905Y-65935358D02*
X64132667Y-65983739D01*
D11*
X88749999Y-50526128D02*
X88749999Y-51597557D01*
X88749999Y-51597557D02*
X88821428Y-51811842D01*
X88821428Y-51811842D02*
X88964285Y-51954700D01*
X88964285Y-51954700D02*
X89178571Y-52026128D01*
X89178571Y-52026128D02*
X89321428Y-52026128D01*
X88178571Y-50526128D02*
X87249999Y-50526128D01*
X87249999Y-50526128D02*
X87749999Y-51097557D01*
X87749999Y-51097557D02*
X87535714Y-51097557D01*
X87535714Y-51097557D02*
X87392857Y-51168985D01*
X87392857Y-51168985D02*
X87321428Y-51240414D01*
X87321428Y-51240414D02*
X87249999Y-51383271D01*
X87249999Y-51383271D02*
X87249999Y-51740414D01*
X87249999Y-51740414D02*
X87321428Y-51883271D01*
X87321428Y-51883271D02*
X87392857Y-51954700D01*
X87392857Y-51954700D02*
X87535714Y-52026128D01*
X87535714Y-52026128D02*
X87964285Y-52026128D01*
X87964285Y-52026128D02*
X88107142Y-51954700D01*
X88107142Y-51954700D02*
X88178571Y-51883271D01*
D12*
X76727693Y-60877580D02*
X76156265Y-60877580D01*
X76441979Y-60877580D02*
X76441979Y-61877580D01*
X76441979Y-61877580D02*
X76346741Y-61734723D01*
X76346741Y-61734723D02*
X76251503Y-61639485D01*
X76251503Y-61639485D02*
X76156265Y-61591866D01*
D11*
X52439999Y-50486128D02*
X52439999Y-51557557D01*
X52439999Y-51557557D02*
X52511428Y-51771842D01*
X52511428Y-51771842D02*
X52654285Y-51914700D01*
X52654285Y-51914700D02*
X52868571Y-51986128D01*
X52868571Y-51986128D02*
X53011428Y-51986128D01*
X51082857Y-50986128D02*
X51082857Y-51986128D01*
X51439999Y-50414700D02*
X51797142Y-51486128D01*
X51797142Y-51486128D02*
X50868571Y-51486128D01*
D12*
X51327693Y-60877580D02*
X50756265Y-60877580D01*
X51041979Y-60877580D02*
X51041979Y-61877580D01*
X51041979Y-61877580D02*
X50946741Y-61734723D01*
X50946741Y-61734723D02*
X50851503Y-61639485D01*
X50851503Y-61639485D02*
X50756265Y-61591866D01*
D13*
X73510000Y-80760000D02*
X74310000Y-80760000D01*
X73510000Y-79560000D02*
X74510000Y-79560000D01*
X85132164Y-72730000D02*
X85347836Y-72730000D01*
X85132164Y-73450000D02*
X85347836Y-73450000D01*
X59397400Y-80764400D02*
X60197400Y-80764400D01*
X59397400Y-79564400D02*
X60397400Y-79564400D01*
X53075000Y-77540000D02*
X53875000Y-77540000D01*
X53075000Y-76340000D02*
X54075000Y-76340000D01*
X86115000Y-82330000D02*
X86915000Y-82330000D01*
X86115000Y-81130000D02*
X87115000Y-81130000D01*
X73110000Y-87915000D02*
X73110000Y-85415000D01*
X73110000Y-85415000D02*
X72060000Y-85415000D01*
X71940000Y-89885000D02*
X68060000Y-89885000D01*
X66890000Y-87915000D02*
X66890000Y-85415000D01*
X66890000Y-85415000D02*
X67940000Y-85415000D01*
X59397400Y-82325000D02*
X60197400Y-82325000D01*
X59397400Y-81125000D02*
X60397400Y-81125000D01*
D12*
X86870000Y-68470000D02*
X89770000Y-68470000D01*
X89770000Y-68470000D02*
X89770000Y-72470000D01*
X89770000Y-72470000D02*
X86870000Y-72470000D01*
X86870000Y-72470000D02*
X86870000Y-68470000D01*
X89312472Y-70470000D02*
G75*
G03*
X87327528Y-70470000I-992472J0D01*
G01*
X87327528Y-70470000D02*
G75*
G03*
X89312472Y-70470000I992472J0D01*
G01*
D13*
X86115000Y-80770000D02*
X86915000Y-80770000D01*
X86115000Y-79570000D02*
X87115000Y-79570000D01*
X66845000Y-58900000D02*
X67645000Y-58900000D01*
X66845000Y-57700000D02*
X67845000Y-57700000D01*
X66845000Y-57340000D02*
X67645000Y-57340000D01*
X66845000Y-56140000D02*
X67845000Y-56140000D01*
X60195000Y-66840000D02*
X60995000Y-66840000D01*
X60195000Y-65640000D02*
X61195000Y-65640000D01*
X79785000Y-80760000D02*
X80585000Y-80760000D01*
X79785000Y-79560000D02*
X80785000Y-79560000D01*
X86105000Y-65260000D02*
X86905000Y-65260000D01*
X86105000Y-64060000D02*
X87105000Y-64060000D01*
D12*
X76350000Y-87582000D02*
X89040000Y-87582000D01*
X89040000Y-87582000D02*
X89040000Y-83447000D01*
X89040000Y-83447000D02*
X76350000Y-83447000D01*
X76350000Y-83447000D02*
X76350000Y-87582000D01*
X76350000Y-89917000D02*
X89040000Y-89917000D01*
X89040000Y-89917000D02*
X89040000Y-87582000D01*
X89040000Y-87582000D02*
X76350000Y-87582000D01*
X76350000Y-87582000D02*
X76350000Y-89917000D01*
D13*
X60195000Y-65280000D02*
X60995000Y-65280000D01*
X60195000Y-64080000D02*
X61195000Y-64080000D01*
X53085000Y-80770000D02*
X53885000Y-80770000D01*
X53085000Y-79570000D02*
X54085000Y-79570000D01*
D12*
X77960000Y-76350000D02*
X77961000Y-76220000D01*
X80440000Y-76350000D02*
X77960000Y-76350000D01*
X77961000Y-76220000D02*
X77961000Y-73120000D01*
X80439000Y-76220000D02*
X80440000Y-76350000D01*
X80439000Y-76220000D02*
X80439000Y-73120000D01*
X80439000Y-73120000D02*
X80440000Y-72990000D01*
X77960000Y-72990000D02*
X77961000Y-73120000D01*
X80440000Y-72990000D02*
X77960000Y-72990000D01*
D14*
X80240000Y-76680000D02*
G75*
G03*
X80040000Y-76680000I-100000J0D01*
G01*
X80040000Y-76680000D02*
G75*
G03*
X80240000Y-76680000I100000J0D01*
G01*
D13*
X53105000Y-65290000D02*
X53905000Y-65290000D01*
X53105000Y-64090000D02*
X54105000Y-64090000D01*
X53105000Y-66850000D02*
X53905000Y-66850000D01*
X53105000Y-65650000D02*
X54105000Y-65650000D01*
D12*
X53130000Y-72635000D02*
X50230000Y-72635000D01*
X50230000Y-72635000D02*
X50230000Y-68635000D01*
X50230000Y-68635000D02*
X53130000Y-68635000D01*
X53130000Y-68635000D02*
X53130000Y-72635000D01*
X52672472Y-70635000D02*
G75*
G03*
X50687528Y-70635000I-992472J0D01*
G01*
X50687528Y-70635000D02*
G75*
G03*
X52672472Y-70635000I992472J0D01*
G01*
D13*
X61750000Y-71670000D02*
X61750000Y-75670000D01*
X58450000Y-71670000D02*
X61750000Y-71670000D01*
X66825000Y-62050000D02*
X67625000Y-62050000D01*
X66825000Y-60850000D02*
X67825000Y-60850000D01*
X79785000Y-82320000D02*
X80585000Y-82320000D01*
X79785000Y-81120000D02*
X80785000Y-81120000D01*
D12*
X50950000Y-87582000D02*
X63640000Y-87582000D01*
X63640000Y-87582000D02*
X63640000Y-83447000D01*
X63640000Y-83447000D02*
X50950000Y-83447000D01*
X50950000Y-83447000D02*
X50950000Y-87582000D01*
X50950000Y-89917000D02*
X63640000Y-89917000D01*
X63640000Y-89917000D02*
X63640000Y-87582000D01*
X63640000Y-87582000D02*
X50950000Y-87582000D01*
X50950000Y-87582000D02*
X50950000Y-89917000D01*
D13*
X53085000Y-82330000D02*
X53885000Y-82330000D01*
X53085000Y-81130000D02*
X54085000Y-81130000D01*
X66390000Y-76360000D02*
X67040000Y-76360000D01*
X66390000Y-75710000D02*
X66390000Y-76360000D01*
X73610000Y-75710000D02*
X73610000Y-76360000D01*
X66390000Y-69790000D02*
X66390000Y-69140000D01*
X73610000Y-69790000D02*
X73610000Y-69140000D01*
X66390000Y-69140000D02*
X67040000Y-69140000D01*
X73610000Y-69140000D02*
X72960000Y-69140000D01*
X72365000Y-57410000D02*
X73165000Y-57410000D01*
X72365000Y-56210000D02*
X73365000Y-56210000D01*
X72365000Y-58970000D02*
X73165000Y-58970000D01*
X72365000Y-57770000D02*
X73365000Y-57770000D01*
X72390000Y-62090000D02*
X73190000Y-62090000D01*
X72390000Y-60890000D02*
X73390000Y-60890000D01*
X66825000Y-63610000D02*
X67625000Y-63610000D01*
X66825000Y-62410000D02*
X67825000Y-62410000D01*
X72325000Y-52720000D02*
X73125000Y-52720000D01*
X72325000Y-51520000D02*
X73325000Y-51520000D01*
X72325000Y-54280000D02*
X73125000Y-54280000D01*
X72325000Y-53080000D02*
X73325000Y-53080000D01*
X53075000Y-75980000D02*
X53875000Y-75980000D01*
X53075000Y-74780000D02*
X54075000Y-74780000D01*
D14*
X75645990Y-50000000D02*
X89754010Y-50000000D01*
X75645990Y-62582990D02*
X75645990Y-50000000D01*
X89754010Y-50000000D02*
X89754010Y-62582990D01*
X89754010Y-62582990D02*
X75645990Y-62582990D01*
D13*
X65695000Y-80780000D02*
X66495000Y-80780000D01*
X65695000Y-79580000D02*
X66695000Y-79580000D01*
X66835000Y-54250000D02*
X67635000Y-54250000D01*
X66835000Y-53050000D02*
X67835000Y-53050000D01*
X65695000Y-82340000D02*
X66495000Y-82340000D01*
X65695000Y-81140000D02*
X66695000Y-81140000D01*
X72390000Y-63650000D02*
X73190000Y-63650000D01*
X72390000Y-62450000D02*
X73390000Y-62450000D01*
X79005000Y-65310000D02*
X79805000Y-65310000D01*
X79005000Y-64110000D02*
X80005000Y-64110000D01*
D14*
X50245990Y-50000000D02*
X64354010Y-50000000D01*
X50245990Y-62582990D02*
X50245990Y-50000000D01*
X64354010Y-50000000D02*
X64354010Y-62582990D01*
X64354010Y-62582990D02*
X50245990Y-62582990D01*
D13*
X85221000Y-76813200D02*
X86021000Y-76813200D01*
X85221000Y-76813200D02*
X84421000Y-76813200D01*
X85221000Y-73693200D02*
X87021000Y-73693200D01*
X85221000Y-73693200D02*
X84421000Y-73693200D01*
X66835000Y-52690000D02*
X67635000Y-52690000D01*
X66835000Y-51490000D02*
X67835000Y-51490000D01*
X86105000Y-66820000D02*
X86905000Y-66820000D01*
X86105000Y-65620000D02*
X87105000Y-65620000D01*
X79005000Y-66870000D02*
X79805000Y-66870000D01*
X79005000Y-65670000D02*
X80005000Y-65670000D01*
X87510000Y-75867836D02*
X87510000Y-75652164D01*
X88230000Y-75867836D02*
X88230000Y-75652164D01*
X73510000Y-82320000D02*
X74310000Y-82320000D01*
X73510000Y-81120000D02*
X74510000Y-81120000D01*
%LPC*%
D15*
X55355000Y-77340000D03*
X54715000Y-77340000D03*
X61688400Y-82125800D03*
X61048400Y-82125800D03*
X78945000Y-79000000D03*
X78305000Y-79000000D03*
X85265000Y-79770000D03*
X84625000Y-79770000D03*
X71485000Y-51720000D03*
X70845000Y-51720000D03*
D16*
X81435000Y-80560000D03*
X82075000Y-80560000D03*
D17*
X74335000Y-79810000D03*
X74335000Y-80160000D03*
X74335000Y-80510000D03*
X73485000Y-80510000D03*
X73485000Y-80160000D03*
X73485000Y-79810000D03*
D16*
X70845000Y-52520000D03*
X71485000Y-52520000D03*
X87745000Y-65060000D03*
X88385000Y-65060000D03*
X87745000Y-65820000D03*
X88385000Y-65820000D03*
D15*
X52240000Y-79000000D03*
X51600000Y-79000000D03*
X86280000Y-68400000D03*
X85640000Y-68400000D03*
D16*
X60745000Y-71010000D03*
X61385000Y-71010000D03*
D18*
X84760000Y-73090000D03*
X85720000Y-73090000D03*
D17*
X60222400Y-79814400D03*
X60222400Y-80164400D03*
X60222400Y-80514400D03*
X59372400Y-80514400D03*
X59372400Y-80164400D03*
X59372400Y-79814400D03*
D15*
X52265000Y-66650000D03*
X51625000Y-66650000D03*
D16*
X84635000Y-81330000D03*
X85275000Y-81330000D03*
D17*
X53900000Y-76590000D03*
X53900000Y-76940000D03*
X53900000Y-77290000D03*
X53050000Y-77290000D03*
X53050000Y-76940000D03*
X53050000Y-76590000D03*
D15*
X82070000Y-82120000D03*
X81430000Y-82120000D03*
X65985000Y-63410000D03*
X65345000Y-63410000D03*
D17*
X86940000Y-81380000D03*
X86940000Y-81730000D03*
X86940000Y-82080000D03*
X86090000Y-82080000D03*
X86090000Y-81730000D03*
X86090000Y-81380000D03*
D16*
X68475000Y-53250000D03*
X69115000Y-53250000D03*
X74030000Y-62650000D03*
X74670000Y-62650000D03*
X61044200Y-80551000D03*
X61684200Y-80551000D03*
D19*
X71500000Y-85200000D03*
X70500000Y-85200000D03*
X69500000Y-85200000D03*
X68500000Y-85200000D03*
D20*
X72800000Y-89075000D03*
X67200000Y-89075000D03*
D16*
X70845000Y-53280000D03*
X71485000Y-53280000D03*
D17*
X60222400Y-81375000D03*
X60222400Y-81725000D03*
X60222400Y-82075000D03*
X59372400Y-82075000D03*
X59372400Y-81725000D03*
X59372400Y-81375000D03*
D15*
X85265000Y-63500000D03*
X84625000Y-63500000D03*
D16*
X58715000Y-65080000D03*
X59355000Y-65080000D03*
D21*
X88320000Y-68395000D03*
X88320000Y-72545000D03*
D15*
X59355000Y-66640000D03*
X58715000Y-66640000D03*
D17*
X86940000Y-79820000D03*
X86940000Y-80170000D03*
X86940000Y-80520000D03*
X86090000Y-80520000D03*
X86090000Y-80170000D03*
X86090000Y-79820000D03*
D16*
X70885000Y-57970000D03*
X71525000Y-57970000D03*
D17*
X67670000Y-57950000D03*
X67670000Y-58300000D03*
X67670000Y-58650000D03*
X66820000Y-58650000D03*
X66820000Y-58300000D03*
X66820000Y-57950000D03*
X67670000Y-56390000D03*
X67670000Y-56740000D03*
X67670000Y-57090000D03*
X66820000Y-57090000D03*
X66820000Y-56740000D03*
X66820000Y-56390000D03*
D16*
X73965000Y-52520000D03*
X74605000Y-52520000D03*
X84635000Y-80570000D03*
X85275000Y-80570000D03*
X81440000Y-81330000D03*
X82080000Y-81330000D03*
D15*
X67980000Y-82140000D03*
X67340000Y-82140000D03*
X88385000Y-66620000D03*
X87745000Y-66620000D03*
D17*
X61020000Y-65890000D03*
X61020000Y-66240000D03*
X61020000Y-66590000D03*
X60170000Y-66590000D03*
X60170000Y-66240000D03*
X60170000Y-65890000D03*
D15*
X71525000Y-58770000D03*
X70885000Y-58770000D03*
D16*
X74030000Y-61090000D03*
X74670000Y-61090000D03*
X65365000Y-57900000D03*
X66005000Y-57900000D03*
D17*
X80610000Y-79810000D03*
X80610000Y-80160000D03*
X80610000Y-80510000D03*
X79760000Y-80510000D03*
X79760000Y-80160000D03*
X79760000Y-79810000D03*
X86930000Y-64310000D03*
X86930000Y-64660000D03*
X86930000Y-65010000D03*
X86080000Y-65010000D03*
X86080000Y-64660000D03*
X86080000Y-64310000D03*
D15*
X66005000Y-55580000D03*
X65365000Y-55580000D03*
D16*
X64495000Y-70920000D03*
X65135000Y-70920000D03*
X51605000Y-80570000D03*
X52245000Y-80570000D03*
X68465000Y-61050000D03*
X69105000Y-61050000D03*
D15*
X52235000Y-77340000D03*
X51595000Y-77340000D03*
X65995000Y-51690000D03*
X65355000Y-51690000D03*
D16*
X54745000Y-65850000D03*
X55385000Y-65850000D03*
D22*
X77620000Y-85217000D03*
X80160000Y-85217000D03*
X82700000Y-85217000D03*
X85240000Y-85217000D03*
X87780000Y-85217000D03*
D15*
X71530000Y-56410000D03*
X70890000Y-56410000D03*
X65985000Y-61050000D03*
X65345000Y-61050000D03*
X74605000Y-54080000D03*
X73965000Y-54080000D03*
X85265000Y-64260000D03*
X84625000Y-64260000D03*
D16*
X68485000Y-57900000D03*
X69125000Y-57900000D03*
X80645000Y-65870000D03*
X81285000Y-65870000D03*
X59820000Y-76210000D03*
X60460000Y-76210000D03*
D15*
X52223200Y-74219200D03*
X51583200Y-74219200D03*
D16*
X54715000Y-75780000D03*
X55355000Y-75780000D03*
X64500000Y-71710000D03*
X65140000Y-71710000D03*
X87755000Y-80570000D03*
X88395000Y-80570000D03*
X63575000Y-70070000D03*
X64215000Y-70070000D03*
D15*
X55385000Y-66650000D03*
X54745000Y-66650000D03*
D16*
X68475000Y-51690000D03*
X69115000Y-51690000D03*
X77525000Y-65870000D03*
X78165000Y-65870000D03*
X54735000Y-80570000D03*
X55375000Y-80570000D03*
D17*
X61020000Y-64330000D03*
X61020000Y-64680000D03*
X61020000Y-65030000D03*
X60170000Y-65030000D03*
X60170000Y-64680000D03*
X60170000Y-64330000D03*
D15*
X71525000Y-55650000D03*
X70885000Y-55650000D03*
X71550000Y-63450000D03*
X70910000Y-63450000D03*
D17*
X53910000Y-79820000D03*
X53910000Y-80170000D03*
X53910000Y-80520000D03*
X53060000Y-80520000D03*
X53060000Y-80170000D03*
X53060000Y-79820000D03*
D15*
X78945000Y-79760000D03*
X78305000Y-79760000D03*
X58555000Y-82130000D03*
X57915000Y-82130000D03*
D16*
X58715000Y-65840000D03*
X59355000Y-65840000D03*
X68475000Y-52490000D03*
X69115000Y-52490000D03*
X65345000Y-61850000D03*
X65985000Y-61850000D03*
D23*
X79950000Y-75890000D03*
X79450000Y-75890000D03*
X78950000Y-75890000D03*
X78450000Y-75890000D03*
X78450000Y-73450000D03*
X78950000Y-73450000D03*
X79450000Y-73450000D03*
X79950000Y-73450000D03*
D24*
X79200000Y-74670000D03*
D16*
X87745000Y-64260000D03*
X88385000Y-64260000D03*
X64215000Y-80580000D03*
X64855000Y-80580000D03*
X54735000Y-81340000D03*
X55375000Y-81340000D03*
X65350000Y-62610000D03*
X65990000Y-62610000D03*
D15*
X85265000Y-66620000D03*
X84625000Y-66620000D03*
X75295000Y-70680000D03*
X74655000Y-70680000D03*
D16*
X68485000Y-57140000D03*
X69125000Y-57140000D03*
D25*
X74530000Y-69020000D03*
X74530000Y-69660000D03*
D15*
X65995000Y-54050000D03*
X65355000Y-54050000D03*
X59355000Y-63520000D03*
X58715000Y-63520000D03*
D16*
X68465000Y-62610000D03*
X69105000Y-62610000D03*
D17*
X53930000Y-64340000D03*
X53930000Y-64690000D03*
X53930000Y-65040000D03*
X53080000Y-65040000D03*
X53080000Y-64690000D03*
X53080000Y-64340000D03*
X53930000Y-65900000D03*
X53930000Y-66250000D03*
X53930000Y-66600000D03*
X53080000Y-66600000D03*
X53080000Y-66250000D03*
X53080000Y-65900000D03*
D21*
X51680000Y-72710000D03*
X51680000Y-68560000D03*
D26*
X60950000Y-72570000D03*
X60950000Y-74770000D03*
X59250000Y-74770000D03*
X59250000Y-72570000D03*
D27*
X80940000Y-74090000D03*
X80940000Y-73450000D03*
D15*
X78945000Y-82120000D03*
X78305000Y-82120000D03*
X75210000Y-72630000D03*
X74570000Y-72630000D03*
D16*
X74030000Y-61890000D03*
X74670000Y-61890000D03*
D17*
X67650000Y-61100000D03*
X67650000Y-61450000D03*
X67650000Y-61800000D03*
X66800000Y-61800000D03*
X66800000Y-61450000D03*
X66800000Y-61100000D03*
D16*
X57920000Y-80570000D03*
X58560000Y-80570000D03*
D17*
X80610000Y-81370000D03*
X80610000Y-81720000D03*
X80610000Y-82070000D03*
X79760000Y-82070000D03*
X79760000Y-81720000D03*
X79760000Y-81370000D03*
D16*
X78305000Y-80560000D03*
X78945000Y-80560000D03*
D15*
X78165000Y-66670000D03*
X77525000Y-66670000D03*
D16*
X65365000Y-57140000D03*
X66005000Y-57140000D03*
D22*
X52220000Y-85217000D03*
X54760000Y-85217000D03*
X57300000Y-85217000D03*
X59840000Y-85217000D03*
X62380000Y-85217000D03*
D16*
X61835000Y-65840000D03*
X62475000Y-65840000D03*
D15*
X85265000Y-79010000D03*
X84625000Y-79010000D03*
D16*
X61044200Y-79763600D03*
X61684200Y-79763600D03*
X51605000Y-81330000D03*
X52245000Y-81330000D03*
D17*
X53910000Y-81380000D03*
X53910000Y-81730000D03*
X53910000Y-82080000D03*
X53060000Y-82080000D03*
X53060000Y-81730000D03*
X53060000Y-81380000D03*
D16*
X74005000Y-56410000D03*
X74645000Y-56410000D03*
X64215000Y-81340000D03*
X64855000Y-81340000D03*
D28*
X72600000Y-76187500D03*
X72200000Y-76187500D03*
X71800000Y-76187500D03*
X71400000Y-76187500D03*
X71000000Y-76187500D03*
X70600000Y-76187500D03*
X70200000Y-76187500D03*
X69800000Y-76187500D03*
X69400000Y-76187500D03*
X69000000Y-76187500D03*
X68600000Y-76187500D03*
X68200000Y-76187500D03*
X67800000Y-76187500D03*
X67400000Y-76187500D03*
D29*
X66562500Y-75350000D03*
X66562500Y-74950000D03*
X66562500Y-74550000D03*
X66562500Y-74150000D03*
X66562500Y-73750000D03*
X66562500Y-73350000D03*
X66562500Y-72950000D03*
X66562500Y-72550000D03*
X66562500Y-72150000D03*
X66562500Y-71750000D03*
X66562500Y-71350000D03*
X66562500Y-70950000D03*
X66562500Y-70550000D03*
X66562500Y-70150000D03*
D28*
X67400000Y-69312500D03*
X67800000Y-69312500D03*
X68200000Y-69312500D03*
X68600000Y-69312500D03*
X69000000Y-69312500D03*
X69400000Y-69312500D03*
X69800000Y-69312500D03*
X70200000Y-69312500D03*
X70600000Y-69312500D03*
X71000000Y-69312500D03*
X71400000Y-69312500D03*
X71800000Y-69312500D03*
X72200000Y-69312500D03*
X72600000Y-69312500D03*
D29*
X73437500Y-70150000D03*
X73437500Y-70550000D03*
X73437500Y-70950000D03*
X73437500Y-71350000D03*
X73437500Y-71750000D03*
X73437500Y-72150000D03*
X73437500Y-72550000D03*
X73437500Y-72950000D03*
X73437500Y-73350000D03*
X73437500Y-73750000D03*
X73437500Y-74150000D03*
X73437500Y-74550000D03*
X73437500Y-74950000D03*
X73437500Y-75350000D03*
D30*
X70000000Y-72750000D03*
D15*
X78165000Y-63540000D03*
X77525000Y-63540000D03*
D17*
X73190000Y-56460000D03*
X73190000Y-56810000D03*
X73190000Y-57160000D03*
X72340000Y-57160000D03*
X72340000Y-56810000D03*
X72340000Y-56460000D03*
D15*
X71550000Y-60330000D03*
X70910000Y-60330000D03*
D27*
X69950000Y-83590000D03*
X69950000Y-82950000D03*
D16*
X70910000Y-61890000D03*
X71550000Y-61890000D03*
D15*
X65995000Y-50930000D03*
X65355000Y-50930000D03*
X81285000Y-66670000D03*
X80645000Y-66670000D03*
D25*
X75350000Y-69020000D03*
X75350000Y-69660000D03*
D16*
X61835000Y-65080000D03*
X62475000Y-65080000D03*
D17*
X73190000Y-58020000D03*
X73190000Y-58370000D03*
X73190000Y-58720000D03*
X72340000Y-58720000D03*
X72340000Y-58370000D03*
X72340000Y-58020000D03*
D16*
X57920000Y-81330000D03*
X58560000Y-81330000D03*
X68465000Y-61850000D03*
X69105000Y-61850000D03*
D17*
X73215000Y-61140000D03*
X73215000Y-61490000D03*
X73215000Y-61840000D03*
X72365000Y-61840000D03*
X72365000Y-61490000D03*
X72365000Y-61140000D03*
X67650000Y-62660000D03*
X67650000Y-63010000D03*
X67650000Y-63360000D03*
X66800000Y-63360000D03*
X66800000Y-63010000D03*
X66800000Y-62660000D03*
D16*
X61835000Y-64280000D03*
X62475000Y-64280000D03*
D15*
X75790000Y-82120000D03*
X75150000Y-82120000D03*
X52245000Y-79770000D03*
X51605000Y-79770000D03*
D25*
X72760000Y-67455000D03*
X72760000Y-68095000D03*
D15*
X64855000Y-82140000D03*
X64215000Y-82140000D03*
D16*
X51595000Y-76540000D03*
X52235000Y-76540000D03*
D17*
X73150000Y-51770000D03*
X73150000Y-52120000D03*
X73150000Y-52470000D03*
X72300000Y-52470000D03*
X72300000Y-52120000D03*
X72300000Y-51770000D03*
D15*
X59355000Y-64280000D03*
X58715000Y-64280000D03*
D16*
X87755000Y-81330000D03*
X88395000Y-81330000D03*
X87760000Y-79770000D03*
X88400000Y-79770000D03*
X70910000Y-62650000D03*
X71550000Y-62650000D03*
D17*
X73150000Y-53330000D03*
X73150000Y-53680000D03*
X73150000Y-54030000D03*
X72300000Y-54030000D03*
X72300000Y-53680000D03*
X72300000Y-53330000D03*
D16*
X74005000Y-57970000D03*
X74645000Y-57970000D03*
D15*
X69105000Y-63410000D03*
X68465000Y-63410000D03*
D16*
X70890000Y-57210000D03*
X71530000Y-57210000D03*
D15*
X64855000Y-79020000D03*
X64215000Y-79020000D03*
X78165000Y-64310000D03*
X77525000Y-64310000D03*
D16*
X73965000Y-53280000D03*
X74605000Y-53280000D03*
X75155000Y-79760000D03*
X75795000Y-79760000D03*
D17*
X53900000Y-75030000D03*
X53900000Y-75380000D03*
X53900000Y-75730000D03*
X53050000Y-75730000D03*
X53050000Y-75380000D03*
X53050000Y-75030000D03*
D16*
X80645000Y-64310000D03*
X81285000Y-64310000D03*
D15*
X69125000Y-58700000D03*
X68485000Y-58700000D03*
D16*
X64510000Y-72550000D03*
X65150000Y-72550000D03*
X67340000Y-80580000D03*
X67980000Y-80580000D03*
D15*
X72670000Y-82120000D03*
X72030000Y-82120000D03*
D17*
X66520000Y-79830000D03*
X66520000Y-80180000D03*
X66520000Y-80530000D03*
X65670000Y-80530000D03*
X65670000Y-80180000D03*
X65670000Y-79830000D03*
X67660000Y-53300000D03*
X67660000Y-53650000D03*
X67660000Y-54000000D03*
X66810000Y-54000000D03*
X66810000Y-53650000D03*
X66810000Y-53300000D03*
D16*
X74005000Y-57210000D03*
X74645000Y-57210000D03*
X80645000Y-65110000D03*
X81285000Y-65110000D03*
D15*
X66005000Y-58700000D03*
X65365000Y-58700000D03*
X66005000Y-56340000D03*
X65365000Y-56340000D03*
X69115000Y-54050000D03*
X68475000Y-54050000D03*
X74670000Y-63450000D03*
X74030000Y-63450000D03*
D16*
X73965000Y-51720000D03*
X74605000Y-51720000D03*
X53705000Y-68570000D03*
X54345000Y-68570000D03*
X51625000Y-65850000D03*
X52265000Y-65850000D03*
D15*
X73445000Y-77300000D03*
X72805000Y-77300000D03*
D16*
X54715000Y-74980000D03*
X55355000Y-74980000D03*
D15*
X74645000Y-58770000D03*
X74005000Y-58770000D03*
D16*
X54745000Y-64290000D03*
X55385000Y-64290000D03*
X84625000Y-65820000D03*
X85265000Y-65820000D03*
D15*
X85275000Y-82130000D03*
X84635000Y-82130000D03*
D16*
X54735000Y-79770000D03*
X55375000Y-79770000D03*
X75150000Y-81320000D03*
X75790000Y-81320000D03*
X67340000Y-81350000D03*
X67980000Y-81350000D03*
D17*
X66520000Y-81390000D03*
X66520000Y-81740000D03*
X66520000Y-82090000D03*
X65670000Y-82090000D03*
X65670000Y-81740000D03*
X65670000Y-81390000D03*
X73215000Y-62700000D03*
X73215000Y-63050000D03*
X73215000Y-63400000D03*
X72365000Y-63400000D03*
X72365000Y-63050000D03*
X72365000Y-62700000D03*
D15*
X65985000Y-60290000D03*
X65345000Y-60290000D03*
D17*
X79830000Y-64360000D03*
X79830000Y-64710000D03*
X79830000Y-65060000D03*
X78980000Y-65060000D03*
X78980000Y-64710000D03*
X78980000Y-64360000D03*
D27*
X69000000Y-78075000D03*
X69000000Y-77435000D03*
D16*
X51595000Y-75780000D03*
X52235000Y-75780000D03*
X67340000Y-79780000D03*
X67980000Y-79780000D03*
D15*
X71550000Y-61090000D03*
X70910000Y-61090000D03*
X62475000Y-66640000D03*
X61835000Y-66640000D03*
D16*
X54745000Y-65090000D03*
X55385000Y-65090000D03*
D15*
X72670000Y-79000000D03*
X72030000Y-79000000D03*
X71485000Y-50960000D03*
X70845000Y-50960000D03*
D25*
X69010000Y-67435000D03*
X69010000Y-68075000D03*
D16*
X65355000Y-53250000D03*
X65995000Y-53250000D03*
X72030000Y-80560000D03*
X72670000Y-80560000D03*
X72030000Y-81320000D03*
X72670000Y-81320000D03*
D15*
X71485000Y-54080000D03*
X70845000Y-54080000D03*
D16*
X81430000Y-79760000D03*
X82070000Y-79760000D03*
X61048400Y-81338400D03*
X61688400Y-81338400D03*
D15*
X59445000Y-71010000D03*
X58805000Y-71010000D03*
X72670000Y-79760000D03*
X72030000Y-79760000D03*
D16*
X84625000Y-65060000D03*
X85265000Y-65060000D03*
X77525000Y-65110000D03*
X78165000Y-65110000D03*
D27*
X68830000Y-83600000D03*
X68830000Y-82960000D03*
D16*
X54715000Y-76550000D03*
X55355000Y-76550000D03*
D31*
X86358500Y-74303200D03*
X86358500Y-75253200D03*
X86358500Y-76203200D03*
X84083500Y-76203200D03*
X84083500Y-74303200D03*
D17*
X67660000Y-51740000D03*
X67660000Y-52090000D03*
X67660000Y-52440000D03*
X66810000Y-52440000D03*
X66810000Y-52090000D03*
X66810000Y-51740000D03*
D16*
X65355000Y-52490000D03*
X65995000Y-52490000D03*
D17*
X86930000Y-65870000D03*
X86930000Y-66220000D03*
X86930000Y-66570000D03*
X86080000Y-66570000D03*
X86080000Y-66220000D03*
X86080000Y-65870000D03*
D15*
X75210000Y-71870000D03*
X74570000Y-71870000D03*
D16*
X68485000Y-56340000D03*
X69125000Y-56340000D03*
D15*
X55375000Y-82130000D03*
X54735000Y-82130000D03*
X52265000Y-64290000D03*
X51625000Y-64290000D03*
D17*
X79830000Y-65920000D03*
X79830000Y-66270000D03*
X79830000Y-66620000D03*
X78980000Y-66620000D03*
X78980000Y-66270000D03*
X78980000Y-65920000D03*
D15*
X52235000Y-74980000D03*
X51595000Y-74980000D03*
D16*
X51645000Y-63490000D03*
X52285000Y-63490000D03*
D15*
X58560000Y-79763600D03*
X57920000Y-79763600D03*
X88395000Y-82130000D03*
X87755000Y-82130000D03*
D16*
X78305000Y-81320000D03*
X78945000Y-81320000D03*
D15*
X52245000Y-82120000D03*
X51605000Y-82120000D03*
D16*
X51625000Y-65090000D03*
X52265000Y-65090000D03*
D32*
X87870000Y-76240000D03*
X87870000Y-75280000D03*
D25*
X80930000Y-75245000D03*
X80930000Y-75885000D03*
D15*
X58565000Y-79000000D03*
X57925000Y-79000000D03*
X85545000Y-72130000D03*
X84905000Y-72130000D03*
X64855000Y-79780000D03*
X64215000Y-79780000D03*
D17*
X74335000Y-81370000D03*
X74335000Y-81720000D03*
X74335000Y-82070000D03*
X73485000Y-82070000D03*
X73485000Y-81720000D03*
X73485000Y-81370000D03*
D16*
X75150000Y-80560000D03*
X75790000Y-80560000D03*
%LPD*%
M02*
