G04 #@! TF.GenerationSoftware,KiCad,Pcbnew,7.0.10-7.0.10~ubuntu22.04.1*
G04 #@! TF.CreationDate,2024-06-09T21:40:06-07:00*
G04 #@! TF.ProjectId,driver_cplex_rp2040,64726976-6572-45f6-9370-6c65785f7270,rev?*
G04 #@! TF.SameCoordinates,Original*
G04 #@! TF.FileFunction,Copper,L1,Top*
G04 #@! TF.FilePolarity,Positive*
%FSLAX46Y46*%
G04 Gerber Fmt 4.6, Leading zero omitted, Abs format (unit mm)*
G04 Created by KiCad (PCBNEW 7.0.10-7.0.10~ubuntu22.04.1) date 2024-06-09 21:40:06*
%MOMM*%
%LPD*%
G01*
G04 APERTURE LIST*
G04 Aperture macros list*
%AMRoundRect*
0 Rectangle with rounded corners*
0 $1 Rounding radius*
0 $2 $3 $4 $5 $6 $7 $8 $9 X,Y pos of 4 corners*
0 Add a 4 corners polygon primitive as box body*
4,1,4,$2,$3,$4,$5,$6,$7,$8,$9,$2,$3,0*
0 Add four circle primitives for the rounded corners*
1,1,$1+$1,$2,$3*
1,1,$1+$1,$4,$5*
1,1,$1+$1,$6,$7*
1,1,$1+$1,$8,$9*
0 Add four rect primitives between the rounded corners*
20,1,$1+$1,$2,$3,$4,$5,0*
20,1,$1+$1,$4,$5,$6,$7,0*
20,1,$1+$1,$6,$7,$8,$9,0*
20,1,$1+$1,$8,$9,$2,$3,0*%
G04 Aperture macros list end*
G04 #@! TA.AperFunction,SMDPad,CuDef*
%ADD10RoundRect,0.147500X-0.017678X0.226274X-0.226274X0.017678X0.017678X-0.226274X0.226274X-0.017678X0*%
G04 #@! TD*
G04 #@! TA.AperFunction,ViaPad*
%ADD11C,0.600000*%
G04 #@! TD*
G04 #@! TA.AperFunction,ViaPad*
%ADD12C,1.000000*%
G04 #@! TD*
G04 #@! TA.AperFunction,Conductor*
%ADD13C,0.130000*%
G04 #@! TD*
G04 APERTURE END LIST*
D10*
X79092947Y-63407053D03*
X78407053Y-64092947D03*
X76592947Y-83407053D03*
X75907053Y-84092947D03*
X76592947Y-63407053D03*
X75907053Y-64092947D03*
X74092947Y-83407053D03*
X73407053Y-84092947D03*
X74092947Y-63407053D03*
X73407053Y-64092947D03*
X71592947Y-83407053D03*
X70907053Y-84092947D03*
X71592947Y-63407053D03*
X70907053Y-64092947D03*
X79092947Y-80907053D03*
X78407053Y-81592947D03*
X79092947Y-60907053D03*
X78407053Y-61592947D03*
X76592947Y-80907053D03*
X75907053Y-81592947D03*
X76592947Y-60907053D03*
X75907053Y-61592947D03*
X74092947Y-80907053D03*
X73407053Y-81592947D03*
X74092947Y-60907053D03*
X73407053Y-61592947D03*
X71592947Y-80907053D03*
X70907053Y-81592947D03*
X79092947Y-78407053D03*
X78407053Y-79092947D03*
X71592947Y-60907053D03*
X70907053Y-61592947D03*
X79092947Y-85907053D03*
X78407053Y-86592947D03*
X76592947Y-68407053D03*
X75907053Y-69092947D03*
X76592947Y-88407053D03*
X75907053Y-89092947D03*
X69092947Y-88407053D03*
X68407053Y-89092947D03*
X79092947Y-68407053D03*
X78407053Y-69092947D03*
X74092947Y-88407053D03*
X73407053Y-89092947D03*
X74092947Y-68407053D03*
X73407053Y-69092947D03*
X71592947Y-88407053D03*
X70907053Y-89092947D03*
X71592947Y-68407053D03*
X70907053Y-69092947D03*
X79092947Y-83407053D03*
X78407053Y-84092947D03*
X79092947Y-65907053D03*
X78407053Y-66592947D03*
X76592947Y-85907053D03*
X75907053Y-86592947D03*
X76592947Y-65907053D03*
X75907053Y-66592947D03*
X74092947Y-85907053D03*
X73407053Y-86592947D03*
X74092947Y-65907053D03*
X73407053Y-66592947D03*
X71592947Y-85907053D03*
X70907053Y-86592947D03*
X71592947Y-65907053D03*
X70907053Y-66592947D03*
X79092947Y-53407053D03*
X78407053Y-54092947D03*
X69092947Y-65907053D03*
X68407053Y-66592947D03*
X71592947Y-50907053D03*
X70907053Y-51592947D03*
X71592947Y-70907053D03*
X70907053Y-71592947D03*
X74092947Y-50907053D03*
X73407053Y-51592947D03*
X74092947Y-70907053D03*
X73407053Y-71592947D03*
X76592947Y-50907053D03*
X75907053Y-51592947D03*
X76592947Y-70907053D03*
X75907053Y-71592947D03*
X79092947Y-50907053D03*
X78407053Y-51592947D03*
X79092947Y-70907053D03*
X78407053Y-71592947D03*
X71592947Y-53407053D03*
X70907053Y-54092947D03*
X71592947Y-73407053D03*
X70907053Y-74092947D03*
X74092947Y-53407053D03*
X73407053Y-54092947D03*
X74092947Y-73407053D03*
X73407053Y-74092947D03*
X76592947Y-53407053D03*
X75907053Y-54092947D03*
X76592947Y-73407053D03*
X75907053Y-74092947D03*
X79092947Y-58407053D03*
X78407053Y-59092947D03*
X79092947Y-73407053D03*
X78407053Y-74092947D03*
X71592947Y-55907053D03*
X70907053Y-56592947D03*
X71592947Y-75907053D03*
X70907053Y-76592947D03*
X74092947Y-55907053D03*
X73407053Y-56592947D03*
X74092947Y-75907053D03*
X73407053Y-76592947D03*
X76592947Y-55907053D03*
X75907053Y-56592947D03*
X76592947Y-75907053D03*
X75907053Y-76592947D03*
X79092947Y-55907053D03*
X78407053Y-56592947D03*
X79092947Y-75907053D03*
X78407053Y-76592947D03*
X71592947Y-58407053D03*
X70907053Y-59092947D03*
X71592947Y-78407053D03*
X70907053Y-79092947D03*
X74092947Y-58407053D03*
X73407053Y-59092947D03*
X74092947Y-78407053D03*
X73407053Y-79092947D03*
X76592947Y-58407053D03*
X75907053Y-59092947D03*
X76592947Y-78407053D03*
X75907053Y-79092947D03*
X89092947Y-80907053D03*
X88407053Y-81592947D03*
X89092947Y-83407053D03*
X88407053Y-84092947D03*
X89092947Y-63407053D03*
X88407053Y-64092947D03*
X86592947Y-83407053D03*
X85907053Y-84092947D03*
X86592947Y-63407053D03*
X85907053Y-64092947D03*
X84092947Y-83407053D03*
X83407053Y-84092947D03*
X84092947Y-63407053D03*
X83407053Y-64092947D03*
X81592947Y-83407053D03*
X80907053Y-84092947D03*
X81592947Y-63407053D03*
X80907053Y-64092947D03*
X81592947Y-65907053D03*
X80907053Y-66592947D03*
X89092947Y-60907053D03*
X88407053Y-61592947D03*
X86592947Y-80907053D03*
X85907053Y-81592947D03*
X86592947Y-60907053D03*
X85907053Y-61592947D03*
X84092947Y-80907053D03*
X83407053Y-81592947D03*
X84092947Y-60907053D03*
X83407053Y-61592947D03*
X81592947Y-80907053D03*
X80907053Y-81592947D03*
X81592947Y-60907053D03*
X80907053Y-61592947D03*
X89092947Y-78407053D03*
X88407053Y-79092947D03*
X81592947Y-85907053D03*
X80907053Y-86592947D03*
X84092947Y-65907053D03*
X83407053Y-66592947D03*
X84092947Y-85907053D03*
X83407053Y-86592947D03*
X86592947Y-65907053D03*
X85907053Y-66592947D03*
X86592947Y-85907053D03*
X85907053Y-86592947D03*
X89092947Y-65907053D03*
X88407053Y-66592947D03*
X89092947Y-85907053D03*
X88407053Y-86592947D03*
X81592947Y-68407053D03*
X80907053Y-69092947D03*
X81592947Y-88407053D03*
X80907053Y-89092947D03*
X84092947Y-68407053D03*
X83407053Y-69092947D03*
X84092947Y-88407053D03*
X83407053Y-89092947D03*
X86592947Y-68407053D03*
X85907053Y-69092947D03*
X86592947Y-88407053D03*
X85907053Y-89092947D03*
X89092947Y-68407053D03*
X88407053Y-69092947D03*
X89092947Y-88407053D03*
X88407053Y-89092947D03*
X89092947Y-73407053D03*
X88407053Y-74092947D03*
X81592947Y-50907053D03*
X80907053Y-51592947D03*
X81592947Y-70907053D03*
X80907053Y-71592947D03*
X84092947Y-50907053D03*
X83407053Y-51592947D03*
X84092947Y-70907053D03*
X83407053Y-71592947D03*
X86592947Y-50907053D03*
X85907053Y-51592947D03*
X86592947Y-70907053D03*
X85907053Y-71592947D03*
X89092947Y-50907053D03*
X88407053Y-51592947D03*
X89092947Y-70907053D03*
X88407053Y-71592947D03*
X81592947Y-53407053D03*
X80907053Y-54092947D03*
X81592947Y-73407053D03*
X80907053Y-74092947D03*
X84092947Y-53407053D03*
X83407053Y-54092947D03*
X84092947Y-73407053D03*
X83407053Y-74092947D03*
X86592947Y-53407053D03*
X85907053Y-54092947D03*
X86592947Y-73407053D03*
X85907053Y-74092947D03*
X89092947Y-53407053D03*
X88407053Y-54092947D03*
X79092947Y-88407053D03*
X78407053Y-89092947D03*
X81592947Y-55907053D03*
X80907053Y-56592947D03*
X81592947Y-75907053D03*
X80907053Y-76592947D03*
X84092947Y-55907053D03*
X83407053Y-56592947D03*
X84092947Y-75907053D03*
X83407053Y-76592947D03*
X86592947Y-55907053D03*
X85907053Y-56592947D03*
X86592947Y-75907053D03*
X85907053Y-76592947D03*
X89092947Y-55907053D03*
X88407053Y-56592947D03*
X89092947Y-75907053D03*
X88407053Y-76592947D03*
X81592947Y-58407053D03*
X80907053Y-59092947D03*
X81592947Y-78407053D03*
X80907053Y-79092947D03*
X84092947Y-58407053D03*
X83407053Y-59092947D03*
X84092947Y-78407053D03*
X83407053Y-79092947D03*
X86592947Y-58407053D03*
X85907053Y-59092947D03*
X86592947Y-78407053D03*
X85907053Y-79092947D03*
X89092947Y-58407053D03*
X88407053Y-59092947D03*
X59092947Y-83407053D03*
X58407053Y-84092947D03*
X51592947Y-60907053D03*
X50907053Y-61592947D03*
X51592947Y-80907053D03*
X50907053Y-81592947D03*
X54092947Y-60907053D03*
X53407053Y-61592947D03*
X54092947Y-80907053D03*
X53407053Y-81592947D03*
X56592947Y-60907053D03*
X55907053Y-61592947D03*
X56592947Y-80907053D03*
X55907053Y-81592947D03*
X59092947Y-60907053D03*
X58407053Y-61592947D03*
X59092947Y-80907053D03*
X58407053Y-81592947D03*
X51592947Y-63407053D03*
X50907053Y-64092947D03*
X51592947Y-83407053D03*
X50907053Y-84092947D03*
X54092947Y-63407053D03*
X53407053Y-64092947D03*
X54092947Y-83407053D03*
X53407053Y-84092947D03*
X56592947Y-63407053D03*
X55907053Y-64092947D03*
X56592947Y-83407053D03*
X55907053Y-84092947D03*
X59092947Y-63407053D03*
X58407053Y-64092947D03*
X59092947Y-78407053D03*
X58407053Y-79092947D03*
X51592947Y-65907053D03*
X50907053Y-66592947D03*
X51592947Y-85907053D03*
X50907053Y-86592947D03*
X54092947Y-65907053D03*
X53407053Y-66592947D03*
X54092947Y-85907053D03*
X53407053Y-86592947D03*
X56592947Y-65907053D03*
X55907053Y-66592947D03*
X56592947Y-85907053D03*
X55907053Y-86592947D03*
X59092947Y-65907053D03*
X58407053Y-66592947D03*
X59092947Y-85907053D03*
X58407053Y-86592947D03*
X51592947Y-68407053D03*
X50907053Y-69092947D03*
X51592947Y-88407053D03*
X50907053Y-89092947D03*
X54092947Y-68407053D03*
X53407053Y-69092947D03*
X54092947Y-88407053D03*
X53407053Y-89092947D03*
X56592947Y-68407053D03*
X55907053Y-69092947D03*
X56592947Y-88407053D03*
X55907053Y-89092947D03*
X59092947Y-68407053D03*
X58407053Y-69092947D03*
X59092947Y-73407053D03*
X58407053Y-74092947D03*
X51592947Y-50907053D03*
X50907053Y-51592947D03*
X51592947Y-70907053D03*
X50907053Y-71592947D03*
X54092947Y-50907053D03*
X53407053Y-51592947D03*
X54092947Y-70907053D03*
X53407053Y-71592947D03*
X56592947Y-50907053D03*
X55907053Y-51592947D03*
X56592947Y-70907053D03*
X55907053Y-71592947D03*
X59092947Y-50907053D03*
X58407053Y-51592947D03*
X59092947Y-70907053D03*
X58407053Y-71592947D03*
X51592947Y-53407053D03*
X50907053Y-54092947D03*
X51592947Y-73407053D03*
X50907053Y-74092947D03*
X54092947Y-53407053D03*
X53407053Y-54092947D03*
X54092947Y-73407053D03*
X53407053Y-74092947D03*
X56592947Y-53407053D03*
X55907053Y-54092947D03*
X56592947Y-73407053D03*
X55907053Y-74092947D03*
X59092947Y-53407053D03*
X58407053Y-54092947D03*
X66592947Y-88407053D03*
X65907053Y-89092947D03*
X51592947Y-55907053D03*
X50907053Y-56592947D03*
X51592947Y-75907053D03*
X50907053Y-76592947D03*
X54092947Y-55907053D03*
X53407053Y-56592947D03*
X54092947Y-75907053D03*
X53407053Y-76592947D03*
X56592947Y-55907053D03*
X55907053Y-56592947D03*
X56592947Y-75907053D03*
X55907053Y-76592947D03*
X59092947Y-55907053D03*
X58407053Y-56592947D03*
X59092947Y-75907053D03*
X58407053Y-76592947D03*
X51592947Y-58407053D03*
X50907053Y-59092947D03*
X51592947Y-78407053D03*
X50907053Y-79092947D03*
X54092947Y-58407053D03*
X53407053Y-59092947D03*
X54092947Y-78407053D03*
X53407053Y-79092947D03*
X56592947Y-58407053D03*
X55907053Y-59092947D03*
X56592947Y-78407053D03*
X55907053Y-79092947D03*
X59092947Y-58407053D03*
X58407053Y-59092947D03*
X69092947Y-63407053D03*
X68407053Y-64092947D03*
X69092947Y-78407053D03*
X68407053Y-79092947D03*
X61592947Y-60907053D03*
X60907053Y-61592947D03*
X61592947Y-80907053D03*
X60907053Y-81592947D03*
X64092947Y-60907053D03*
X63407053Y-61592947D03*
X64092947Y-80907053D03*
X63407053Y-81592947D03*
X66592947Y-60907053D03*
X65907053Y-61592947D03*
X66592947Y-80907053D03*
X65907053Y-81592947D03*
X69092947Y-60907053D03*
X68407053Y-61592947D03*
X69092947Y-80907053D03*
X68407053Y-81592947D03*
X61592947Y-63407053D03*
X60907053Y-64092947D03*
X61592947Y-83407053D03*
X60907053Y-84092947D03*
X64092947Y-63407053D03*
X63407053Y-64092947D03*
X64092947Y-83407053D03*
X63407053Y-84092947D03*
X66592947Y-63407053D03*
X65907053Y-64092947D03*
X66592947Y-83407053D03*
X65907053Y-84092947D03*
X61592947Y-50907053D03*
X60907053Y-51592947D03*
X69092947Y-83407053D03*
X68407053Y-84092947D03*
X61592947Y-65907053D03*
X60907053Y-66592947D03*
X61592947Y-85907053D03*
X60907053Y-86592947D03*
X64092947Y-65907053D03*
X63407053Y-66592947D03*
X64092947Y-85907053D03*
X63407053Y-86592947D03*
X66592947Y-65907053D03*
X65907053Y-66592947D03*
X66592947Y-85907053D03*
X65907053Y-86592947D03*
X69092947Y-85907053D03*
X68407053Y-86592947D03*
X61592947Y-68407053D03*
X60907053Y-69092947D03*
X61592947Y-88407053D03*
X60907053Y-89092947D03*
X64092947Y-68407053D03*
X63407053Y-69092947D03*
X64092947Y-88407053D03*
X63407053Y-89092947D03*
X66592947Y-68407053D03*
X65907053Y-69092947D03*
X69092947Y-68407053D03*
X68407053Y-69092947D03*
X66592947Y-78407053D03*
X65907053Y-79092947D03*
X59092947Y-88407053D03*
X58407053Y-89092947D03*
X61592947Y-70907053D03*
X60907053Y-71592947D03*
X64092947Y-50907053D03*
X63407053Y-51592947D03*
X64092947Y-70907053D03*
X63407053Y-71592947D03*
X66592947Y-50907053D03*
X65907053Y-51592947D03*
X66592947Y-70907053D03*
X65907053Y-71592947D03*
X69092947Y-50907053D03*
X68407053Y-51592947D03*
X69092947Y-58407053D03*
X68407053Y-59092947D03*
X69092947Y-70907053D03*
X68407053Y-71592947D03*
X61592947Y-53407053D03*
X60907053Y-54092947D03*
X61592947Y-73407053D03*
X60907053Y-74092947D03*
X64092947Y-53407053D03*
X63407053Y-54092947D03*
X64092947Y-73407053D03*
X63407053Y-74092947D03*
X66592947Y-53407053D03*
X65907053Y-54092947D03*
X66592947Y-73407053D03*
X65907053Y-74092947D03*
X69092947Y-73407053D03*
X68407053Y-74092947D03*
X69092947Y-53407053D03*
X68407053Y-54092947D03*
X66592947Y-58407053D03*
X65907053Y-59092947D03*
X64092947Y-78407053D03*
X63407053Y-79092947D03*
X64092947Y-58407053D03*
X63407053Y-59092947D03*
X61592947Y-78407053D03*
X60907053Y-79092947D03*
X61592947Y-58407053D03*
X60907053Y-59092947D03*
X69092947Y-75907053D03*
X68407053Y-76592947D03*
X69092947Y-55907053D03*
X68407053Y-56592947D03*
X66592947Y-75907053D03*
X65907053Y-76592947D03*
X66592947Y-55907053D03*
X65907053Y-56592947D03*
X64092947Y-75907053D03*
X63407053Y-76592947D03*
X64092947Y-55907053D03*
X63407053Y-56592947D03*
X61592947Y-75907053D03*
X60907053Y-76592947D03*
X61592947Y-55907053D03*
X60907053Y-56592947D03*
D11*
X52223200Y-62861100D03*
X54922100Y-70150700D03*
X54817600Y-78088800D03*
X56069900Y-57871500D03*
X54922100Y-73594400D03*
X59854100Y-54244300D03*
X62586200Y-54225000D03*
X54575100Y-67419300D03*
X53620600Y-87815600D03*
X75140700Y-54586200D03*
X66240000Y-54820000D03*
X53291600Y-85738300D03*
X73626600Y-55178500D03*
X51039300Y-77897300D03*
X53086000Y-54830800D03*
X64702400Y-55388300D03*
X61839500Y-55067800D03*
X69734500Y-60184758D03*
X53407900Y-60178400D03*
X57604400Y-59009500D03*
X62628000Y-59774400D03*
X66343600Y-77360000D03*
X53514300Y-62399800D03*
X55720100Y-60790500D03*
X68134400Y-65021900D03*
X65945800Y-65106200D03*
X61073900Y-60342200D03*
X69951500Y-65785500D03*
X55928500Y-62964900D03*
X63557900Y-62869500D03*
X57404900Y-63219100D03*
X79955300Y-69040500D03*
X62541700Y-57129700D03*
X61578517Y-67288517D03*
X82371300Y-70551400D03*
X63180200Y-52395700D03*
X80539300Y-69863900D03*
X55641300Y-67911200D03*
X67437500Y-74513200D03*
X79807000Y-74132500D03*
X70960300Y-77978700D03*
X70069500Y-70456100D03*
X65090000Y-73844000D03*
X70149200Y-61037818D03*
X75306800Y-57018900D03*
X75279900Y-77180800D03*
X84025000Y-77539900D03*
X78728700Y-77704400D03*
X77092100Y-51787600D03*
X85107500Y-58031400D03*
X56360000Y-82370000D03*
X75745400Y-82911300D03*
X62403900Y-82273200D03*
X86510000Y-84649100D03*
X63899400Y-84673200D03*
X83941300Y-84620300D03*
X81448600Y-67345200D03*
X67466800Y-84149500D03*
X80311600Y-83194800D03*
X73413200Y-84895300D03*
X88739300Y-85123400D03*
X61219000Y-87339400D03*
X67599800Y-86592900D03*
X80220000Y-78395500D03*
X81099200Y-85262900D03*
X62863600Y-87246000D03*
X72595000Y-86687100D03*
X83403900Y-87395100D03*
X84981200Y-89231900D03*
X83289000Y-78255900D03*
X55716400Y-78226400D03*
X56925200Y-74136800D03*
X56672300Y-69385200D03*
X56116100Y-87800400D03*
X56944700Y-64800000D03*
X58026200Y-65895700D03*
X59654800Y-82866800D03*
X57707500Y-76026400D03*
X58082900Y-68351000D03*
X57957700Y-70127000D03*
X58454900Y-87404100D03*
X62607000Y-81122100D03*
X62256100Y-76303900D03*
X60653600Y-67388300D03*
X61025100Y-62839300D03*
X60880000Y-57920000D03*
X60960500Y-70154300D03*
X61050900Y-82884300D03*
X63254700Y-58228600D03*
X64830000Y-78213300D03*
X65991700Y-82617600D03*
X62850000Y-72370000D03*
X64260000Y-65100700D03*
X63557500Y-67871700D03*
X63529300Y-60413400D03*
X57980300Y-78354100D03*
X54119300Y-56942300D03*
X55409000Y-57139300D03*
X60080000Y-57660000D03*
X52446200Y-52255700D03*
X55265100Y-51983000D03*
X64620700Y-76674000D03*
X64013078Y-74768677D03*
X65100800Y-83920600D03*
X64835100Y-59534600D03*
X65183400Y-54744200D03*
X68291800Y-78131700D03*
X68179300Y-83057500D03*
X68628700Y-55270900D03*
X67955100Y-73407100D03*
X70500900Y-77302900D03*
X71431200Y-67599700D03*
X70788400Y-82553300D03*
X70246400Y-63488900D03*
X69573400Y-54824100D03*
X74226900Y-65075900D03*
X75360700Y-55741100D03*
X71730400Y-59698700D03*
X74645700Y-67934500D03*
X74511100Y-74398700D03*
X74285400Y-82602400D03*
X74381100Y-76705500D03*
X75272900Y-52304000D03*
X77122300Y-53936500D03*
X75889200Y-68043100D03*
X76020600Y-65403300D03*
X77347000Y-58739000D03*
X75782400Y-78181500D03*
X76122300Y-75305100D03*
X76717500Y-71722200D03*
X77395200Y-56145300D03*
X75286000Y-60656000D03*
X79210000Y-86708900D03*
X78320600Y-67988100D03*
X77915000Y-53326000D03*
X77500000Y-82300000D03*
X78010000Y-78210000D03*
X78563700Y-57877900D03*
X77964600Y-74834400D03*
X78898800Y-62600000D03*
X75269700Y-59499600D03*
X77943300Y-72212200D03*
X81590200Y-57594000D03*
X81942600Y-65155400D03*
X81598500Y-60105100D03*
X81968900Y-79127100D03*
X79964300Y-53568600D03*
X82446483Y-67746483D03*
X81708400Y-74442700D03*
X82999434Y-68447046D03*
X82734200Y-63418700D03*
X84897300Y-56003600D03*
X83797000Y-59823700D03*
X82914500Y-81015000D03*
X83002300Y-73350100D03*
X84715700Y-53849700D03*
X86013100Y-62889100D03*
X86100000Y-82851900D03*
X86501800Y-67592700D03*
X85292400Y-78363400D03*
X87396600Y-53201600D03*
X85257600Y-75907100D03*
X87408800Y-56005200D03*
X85791500Y-70776800D03*
X86022613Y-59883468D03*
X73250000Y-78010000D03*
X56010000Y-65090000D03*
X62060000Y-74770000D03*
X75290000Y-62650000D03*
X86510000Y-72410000D03*
X75320000Y-57970000D03*
X69750000Y-61850000D03*
X73030000Y-60620000D03*
X89140000Y-79770000D03*
D12*
X85250000Y-87575000D03*
D11*
X72860000Y-55900000D03*
X60360000Y-63500000D03*
X74610000Y-79300000D03*
X58120000Y-72570000D03*
X76060000Y-70180000D03*
X67680000Y-55770000D03*
X69750000Y-52500000D03*
X76550000Y-79760000D03*
X63780000Y-72380000D03*
X51379700Y-67480300D03*
X52980000Y-63340000D03*
X72260000Y-66810000D03*
X69780000Y-57140000D03*
X77590000Y-75890000D03*
X66840800Y-79304000D03*
X63280000Y-65080000D03*
X69410000Y-66810000D03*
X54320000Y-79210000D03*
X56010000Y-75090000D03*
X79830000Y-63850000D03*
X80040000Y-79240000D03*
X72475000Y-85300000D03*
X72630000Y-51180000D03*
X75320000Y-53280000D03*
X88727500Y-75097500D03*
X61990000Y-79190000D03*
X89080000Y-64860000D03*
X67650000Y-60470000D03*
D12*
X84736400Y-59380000D03*
D11*
X59910000Y-79170000D03*
X82090000Y-64320000D03*
X56180000Y-80140000D03*
X76030000Y-72640000D03*
X70000000Y-72750000D03*
X87155000Y-79235000D03*
X82760000Y-79780000D03*
X68915000Y-79795000D03*
X54160000Y-74550000D03*
X87365000Y-63695000D03*
X67610000Y-51230000D03*
X57000000Y-81790000D03*
X70360000Y-62650000D03*
X71970000Y-77300000D03*
X57990000Y-65080000D03*
X70280000Y-57970000D03*
X76730000Y-64890000D03*
X64600000Y-57570000D03*
X64720000Y-61860000D03*
X72600000Y-70160000D03*
X50815000Y-80475000D03*
X52035000Y-71615000D03*
X70140000Y-53270000D03*
X50890000Y-65090000D03*
X50810000Y-75550000D03*
X80940000Y-72700000D03*
X63360000Y-80280000D03*
X77540000Y-80560000D03*
X83480000Y-75190000D03*
X83680000Y-65060000D03*
X67520000Y-72550000D03*
X67580000Y-70660000D03*
X83600000Y-80210000D03*
X55100000Y-68570000D03*
X71125000Y-80215000D03*
X84160000Y-72130000D03*
X64590000Y-52170000D03*
X68510000Y-75230000D03*
X72460000Y-59252900D03*
X67050000Y-64190000D03*
X58325000Y-82825000D03*
X72300000Y-54570000D03*
X72365000Y-63975000D03*
X78980000Y-67250000D03*
X69725000Y-86700000D03*
X66820000Y-59340000D03*
X78611800Y-82716200D03*
X64875000Y-82875000D03*
X85250000Y-82850000D03*
X52400000Y-82900000D03*
X85325000Y-74825000D03*
X87850000Y-77475000D03*
X85265000Y-67260000D03*
D12*
X87775000Y-87575000D03*
D11*
X72670002Y-82700000D03*
X59355000Y-67280000D03*
X53080000Y-67400000D03*
D12*
X87350000Y-59575000D03*
D11*
X53050000Y-77925000D03*
X67110000Y-54650000D03*
X87985000Y-82981000D03*
X79056300Y-84507700D03*
X77914900Y-62807000D03*
X71947700Y-74832700D03*
X70750500Y-75292700D03*
X76384200Y-84766300D03*
X81073100Y-62396000D03*
X60861300Y-84896800D03*
X60094300Y-59190800D03*
X59175000Y-62543100D03*
X58773000Y-84785100D03*
X57893000Y-62572900D03*
X55724600Y-83198400D03*
X53163500Y-84920500D03*
X54696800Y-62569000D03*
X72180000Y-72530000D03*
X69960000Y-82080000D03*
X69070000Y-82080000D03*
X72350000Y-71630000D03*
X65714667Y-78213300D03*
X59933200Y-68105800D03*
X57714500Y-77370200D03*
X63649700Y-77607000D03*
X63106400Y-78316400D03*
X62892400Y-75712500D03*
X68436961Y-59894435D03*
X65116483Y-74743517D03*
X69926200Y-56138900D03*
X62357400Y-69672400D03*
X63502300Y-55254400D03*
X65686900Y-70094400D03*
X72417700Y-83567200D03*
X71360600Y-54714300D03*
X74022600Y-59993100D03*
X81987700Y-77263200D03*
X82225800Y-71859100D03*
X82578600Y-82591600D03*
X82210800Y-72748400D03*
X82630100Y-75914300D03*
D13*
X50340800Y-61417400D02*
X50851100Y-60907100D01*
X50340800Y-85443300D02*
X50340800Y-83870900D01*
X50825000Y-53407100D02*
X51592900Y-53407100D01*
X51592900Y-73407100D02*
X50939000Y-73407100D01*
X50340800Y-71751200D02*
X50340800Y-68870900D01*
X50851100Y-58407100D02*
X50335800Y-57891800D01*
X50891000Y-72163700D02*
X51070600Y-72163700D01*
X50340800Y-87155000D02*
X50340800Y-86370900D01*
X51896000Y-67914600D02*
X51896000Y-66210200D01*
X51592900Y-53407100D02*
X51592900Y-50907100D01*
X50292400Y-63965800D02*
X50292400Y-67705500D01*
X50336900Y-60392900D02*
X50336900Y-58921300D01*
X51592900Y-78407100D02*
X51580500Y-78419500D01*
X50619100Y-80996900D02*
X51503100Y-80996900D01*
X50292400Y-67705500D02*
X50899300Y-68312400D01*
X50340800Y-86370900D02*
X50804600Y-85907100D01*
X50899300Y-82713500D02*
X50899300Y-83312400D01*
X51498200Y-68312400D02*
X51592900Y-68407100D01*
X50619100Y-80996900D02*
X50340800Y-81275200D01*
X50815000Y-74802800D02*
X51592900Y-75580800D01*
X50753300Y-72163700D02*
X50340800Y-71751200D01*
X50340800Y-81275200D02*
X50340800Y-82155000D01*
X51592900Y-63407100D02*
X51677200Y-63407100D01*
X50899300Y-83312400D02*
X51498200Y-83312400D01*
X50939000Y-73407100D02*
X50891000Y-73359100D01*
X50301100Y-73949000D02*
X50301100Y-74180200D01*
X51677200Y-63407100D02*
X52223200Y-62861100D01*
X50335800Y-56422400D02*
X50851100Y-55907100D01*
X50319600Y-80697400D02*
X50619100Y-80996900D01*
X50340800Y-82155000D02*
X50899300Y-82713500D01*
X50319600Y-78711500D02*
X50319600Y-80697400D01*
X50815000Y-74802800D02*
X50304200Y-75313600D01*
X50340800Y-83870900D02*
X50899300Y-83312400D01*
X51479000Y-71755300D02*
X51479000Y-71021000D01*
X51070600Y-72163700D02*
X51479000Y-71755300D01*
X51592900Y-75580800D02*
X51592900Y-75907100D01*
X51479000Y-71021000D02*
X51592900Y-70907100D01*
X50891000Y-72163700D02*
X50753300Y-72163700D01*
X50851100Y-60907100D02*
X50336900Y-60392900D01*
X50804600Y-85907100D02*
X50340800Y-85443300D01*
X50891000Y-73359100D02*
X50891000Y-72163700D01*
X51592900Y-88407100D02*
X50340800Y-87155000D01*
X50815000Y-74694100D02*
X50815000Y-74802800D01*
X50336900Y-58921300D02*
X50851100Y-58407100D01*
X50851100Y-60907100D02*
X51592900Y-60907100D01*
X50851100Y-63407100D02*
X50340800Y-62896800D01*
X51592900Y-55907100D02*
X50851100Y-55907100D01*
X50899300Y-68312400D02*
X51498200Y-68312400D01*
X50301100Y-74180200D02*
X50815000Y-74694100D01*
X50804600Y-85907100D02*
X51592900Y-85907100D01*
X51896000Y-66210200D02*
X51592900Y-65907100D01*
X51498200Y-83312400D02*
X51592900Y-83407100D01*
X50325500Y-55381500D02*
X50325500Y-53906600D01*
X50325500Y-53906600D02*
X50825000Y-53407100D01*
X51592900Y-63407100D02*
X50851100Y-63407100D01*
X50851100Y-58407100D02*
X51592900Y-58407100D01*
X51498200Y-68312400D02*
X51896000Y-67914600D01*
X50851100Y-55907100D02*
X50325500Y-55381500D01*
X50340800Y-62896800D02*
X50340800Y-61417400D01*
X50611600Y-78419500D02*
X50319600Y-78711500D01*
X50851100Y-63407100D02*
X50292400Y-63965800D01*
X50304200Y-75313600D02*
X50304200Y-78112100D01*
X50335800Y-57891800D02*
X50335800Y-56422400D01*
X50340800Y-68870900D02*
X50899300Y-68312400D01*
X50304200Y-78112100D02*
X50611600Y-78419500D01*
X50891000Y-73359100D02*
X50301100Y-73949000D01*
X51503100Y-80996900D02*
X51592900Y-80907100D01*
X51580500Y-78419500D02*
X50611600Y-78419500D01*
X62718300Y-54092900D02*
X62586200Y-54225000D01*
X54628500Y-56442700D02*
X54092900Y-55907100D01*
X52862500Y-67907500D02*
X52587600Y-67632600D01*
X53367200Y-73407100D02*
X54092900Y-73407100D01*
X88407100Y-54092900D02*
X85907100Y-54092900D01*
X54092900Y-73407100D02*
X54734800Y-73407100D01*
X54092900Y-75907100D02*
X52828700Y-74642900D01*
X75140700Y-54448800D02*
X73763000Y-54448800D01*
X58558500Y-54244300D02*
X58407100Y-54092900D01*
X75907100Y-54092900D02*
X75551200Y-54448800D01*
X54734800Y-73407100D02*
X54922100Y-73594400D01*
X75551200Y-54448800D02*
X75140700Y-54448800D01*
X52828700Y-74642900D02*
X52828700Y-73945600D01*
X70933000Y-54067000D02*
X73381200Y-54067000D01*
X54778700Y-54092900D02*
X54778700Y-55221300D01*
X75140700Y-54448800D02*
X75140700Y-54586200D01*
X78407100Y-54092900D02*
X80907100Y-54092900D01*
X53620600Y-87815600D02*
X54092900Y-88287900D01*
X54575100Y-67419300D02*
X53829600Y-67419300D01*
X54092900Y-88287900D02*
X54092900Y-88407100D01*
X76266800Y-54452600D02*
X78047400Y-54452600D01*
X78047400Y-54452600D02*
X78407100Y-54092900D01*
X54092900Y-85569500D02*
X54092900Y-83407100D01*
X54092900Y-58407100D02*
X54092900Y-60907100D01*
X54813700Y-78950800D02*
X54813700Y-80186300D01*
X52828700Y-73945600D02*
X53367200Y-73407100D01*
X52587600Y-66612700D02*
X53293200Y-65907100D01*
X54092900Y-58407100D02*
X54628500Y-57871500D01*
X53924100Y-85738300D02*
X54092900Y-85569500D01*
X75907100Y-54092900D02*
X76266800Y-54452600D01*
X55907100Y-54092900D02*
X54778700Y-54092900D01*
X59854100Y-54244300D02*
X58558500Y-54244300D01*
X54548400Y-70145400D02*
X54916800Y-70145400D01*
X53293200Y-65907100D02*
X54092900Y-65907100D01*
X73381200Y-54067000D02*
X73407100Y-54092900D01*
X53341400Y-67907500D02*
X52862500Y-67907500D01*
X66379100Y-54092900D02*
X65907100Y-54092900D01*
X83407100Y-54092900D02*
X83656300Y-54342100D01*
X73763000Y-54448800D02*
X73407100Y-54092900D01*
X53510900Y-50325100D02*
X51417200Y-50325100D01*
X70907100Y-54092900D02*
X70933000Y-54067000D01*
X80907100Y-54092900D02*
X83407100Y-54092900D01*
X54548400Y-70145400D02*
X54548400Y-68862600D01*
X54092900Y-78407100D02*
X54270000Y-78407100D01*
X66379100Y-54092900D02*
X66379100Y-54680900D01*
X54916800Y-70145400D02*
X54922100Y-70150700D01*
X52587600Y-67632600D02*
X52587600Y-66612700D01*
X68407100Y-54092900D02*
X66379100Y-54092900D01*
X60005500Y-54092900D02*
X59854100Y-54244300D01*
X53924100Y-85738300D02*
X53291600Y-85738300D01*
X83656300Y-54342100D02*
X85657900Y-54342100D01*
X53829600Y-67419300D02*
X53341400Y-67907500D01*
X54628500Y-57871500D02*
X54628500Y-56442700D01*
X54628500Y-57871500D02*
X56069900Y-57871500D01*
X54778700Y-54092900D02*
X54092900Y-53407100D01*
X54092900Y-50907100D02*
X53510900Y-50325100D01*
X54092900Y-70600900D02*
X54092900Y-70907100D01*
X54548400Y-70145400D02*
X54092900Y-70600900D01*
X54778700Y-55221300D02*
X54092900Y-55907100D01*
X51417200Y-50325100D02*
X50907100Y-50835200D01*
X63407100Y-54092900D02*
X62718300Y-54092900D01*
X54384700Y-78521700D02*
X54813700Y-78950800D01*
X54813700Y-80186300D02*
X54092900Y-80907100D01*
X85657900Y-54342100D02*
X85907100Y-54092900D01*
X54092900Y-60907100D02*
X54092900Y-63407100D01*
X54548400Y-68862600D02*
X54092900Y-68407100D01*
X54270000Y-78407100D02*
X54384700Y-78521700D01*
X54092900Y-53407100D02*
X54092900Y-50907100D01*
X54384700Y-78521700D02*
X54817600Y-78088800D01*
X66379100Y-54680900D02*
X66240000Y-54820000D01*
X54092900Y-85907100D02*
X53924100Y-85738300D01*
X50907100Y-50835200D02*
X50907100Y-51592900D01*
X60907100Y-54092900D02*
X60005500Y-54092900D01*
X60907100Y-55756000D02*
X61595300Y-55067800D01*
X60907100Y-56592900D02*
X58407100Y-56592900D01*
X75519000Y-55178500D02*
X73626600Y-55178500D01*
X88407100Y-56592900D02*
X85907100Y-56592900D01*
X75907100Y-55566600D02*
X75519000Y-55178500D01*
X65907100Y-56592900D02*
X68407100Y-56592900D01*
X65031200Y-55718600D02*
X65905400Y-56592900D01*
X51645000Y-54830800D02*
X50907100Y-54092900D01*
X80907100Y-55723400D02*
X80524500Y-55340800D01*
X63407100Y-56592900D02*
X64156900Y-56592900D01*
X53407100Y-54092900D02*
X53407100Y-54509700D01*
X68445000Y-56630800D02*
X70869200Y-56630800D01*
X81289700Y-55340800D02*
X82155000Y-55340800D01*
X61595300Y-55067800D02*
X61839500Y-55067800D01*
X64156900Y-56592900D02*
X65031200Y-55718600D01*
X78362800Y-56637200D02*
X78407100Y-56592900D01*
X75951400Y-56637200D02*
X78362800Y-56637200D01*
X75907100Y-56592900D02*
X75907100Y-55566600D01*
X80907100Y-55723400D02*
X80907100Y-56592900D01*
X78407100Y-55848800D02*
X78407100Y-56592900D01*
X85907100Y-56592900D02*
X83407100Y-56592900D01*
X65031200Y-55718600D02*
X64702400Y-55389900D01*
X73407100Y-55398000D02*
X73407100Y-56592900D01*
X60907100Y-56592900D02*
X60907100Y-55756000D01*
X80524500Y-55340800D02*
X78915100Y-55340800D01*
X73626600Y-55178500D02*
X73407100Y-55398000D01*
X82155000Y-55340800D02*
X83407100Y-56592900D01*
X78915100Y-55340800D02*
X78407100Y-55848800D01*
X75907100Y-56592900D02*
X75951400Y-56637200D01*
X68407100Y-56592900D02*
X68445000Y-56630800D01*
X53407100Y-54509700D02*
X53086000Y-54830800D01*
X70869200Y-56630800D02*
X70907100Y-56592900D01*
X65905400Y-56592900D02*
X65907100Y-56592900D01*
X64702400Y-55389900D02*
X64702400Y-55388300D01*
X53086000Y-54830800D02*
X51645000Y-54830800D01*
X80907100Y-55723400D02*
X81289700Y-55340800D01*
X63407100Y-61473300D02*
X62628000Y-60694200D01*
X69659200Y-60774600D02*
X69734500Y-60699300D01*
X53407100Y-60177600D02*
X53407100Y-59092900D01*
X64425800Y-61336900D02*
X65651100Y-61336900D01*
X69179000Y-61592900D02*
X69659200Y-61112700D01*
X80907100Y-61592900D02*
X83407100Y-61592900D01*
X63407100Y-61592900D02*
X63407100Y-61473300D01*
X71273800Y-60332600D02*
X70907100Y-60699300D01*
X58407100Y-59092900D02*
X58323700Y-59009500D01*
X69734500Y-60699300D02*
X69734500Y-60220000D01*
X71709600Y-60332600D02*
X71273800Y-60332600D01*
X78407100Y-61592900D02*
X80907100Y-61592900D01*
X53407900Y-60178400D02*
X53407100Y-60177600D01*
X73407100Y-61592900D02*
X72969900Y-61592900D01*
X58323700Y-59009500D02*
X57604400Y-59009500D01*
X83407100Y-61592900D02*
X85907100Y-61592900D01*
X72969900Y-61592900D02*
X71709600Y-60332600D01*
X64289400Y-61473300D02*
X64425800Y-61336900D01*
X69659200Y-61112700D02*
X69659200Y-60774600D01*
X69734500Y-60220000D02*
X70427800Y-60220000D01*
X69734500Y-60699300D02*
X69734500Y-60184758D01*
X62628000Y-60694200D02*
X62628000Y-59774400D01*
X55907100Y-59092900D02*
X57521000Y-59092900D01*
X75907100Y-61592900D02*
X78407100Y-61592900D01*
X57521000Y-59092900D02*
X57604400Y-59009500D01*
X75907100Y-61592900D02*
X73407100Y-61592900D01*
X53407100Y-59092900D02*
X50907100Y-59092900D01*
X70427800Y-60220000D02*
X70907100Y-60699300D01*
X68407100Y-61592900D02*
X69179000Y-61592900D01*
X70907100Y-60699300D02*
X70907100Y-61592900D01*
X65651100Y-61336900D02*
X65907100Y-61592900D01*
X63407100Y-61473300D02*
X64289400Y-61473300D01*
X85907100Y-61592900D02*
X88407100Y-61592900D01*
X73022600Y-64477400D02*
X73407100Y-64092900D01*
X61206500Y-60474800D02*
X61073900Y-60342200D01*
X86764300Y-62368400D02*
X85831200Y-62368400D01*
X53407100Y-61592900D02*
X50907100Y-61592900D01*
X85020000Y-63179600D02*
X85020000Y-63205800D01*
X84808600Y-63417200D02*
X85020000Y-63205800D01*
X88407100Y-64092900D02*
X88407100Y-64011200D01*
X80107900Y-62906300D02*
X80907100Y-62906300D01*
X64068500Y-62254300D02*
X65907100Y-64092900D01*
X73407100Y-63361600D02*
X74611000Y-62157700D01*
X85020000Y-63205800D02*
X85907100Y-64092900D01*
X74611000Y-62157700D02*
X75725300Y-62157700D01*
X81403900Y-62832400D02*
X84223800Y-62832400D01*
X73407100Y-64092900D02*
X73407100Y-63361600D01*
X85831200Y-62368400D02*
X85020000Y-63179600D01*
X71291600Y-64477400D02*
X73022600Y-64477400D01*
X78406900Y-64092700D02*
X78407100Y-64092900D01*
X65945800Y-64131600D02*
X65907100Y-64092900D01*
X62784700Y-61682300D02*
X63356700Y-62254300D01*
X61374400Y-60306900D02*
X61755600Y-60306900D01*
X78668100Y-62105600D02*
X79307200Y-62105600D01*
X78349900Y-62309800D02*
X78406900Y-62366800D01*
X81330000Y-62906300D02*
X81403900Y-62832400D01*
X80907100Y-62906300D02*
X81330000Y-62906300D01*
X68407100Y-64749200D02*
X68407100Y-64092900D01*
X79307200Y-62105600D02*
X80107900Y-62906300D01*
X63356700Y-62254300D02*
X64068500Y-62254300D01*
X53407100Y-62292600D02*
X53514300Y-62399800D01*
X62784700Y-61336000D02*
X62784700Y-61682300D01*
X78406900Y-62366800D02*
X78406900Y-64092700D01*
X75877400Y-62309800D02*
X78349900Y-62309800D01*
X78407100Y-64092900D02*
X75907100Y-64092900D01*
X58407100Y-61592900D02*
X60907100Y-61592900D01*
X61755600Y-60306900D02*
X62784700Y-61336000D01*
X78406900Y-62366800D02*
X78668100Y-62105600D01*
X55907100Y-61592900D02*
X55720100Y-61405900D01*
X55720100Y-61405900D02*
X55720100Y-60790500D01*
X60907100Y-60774200D02*
X61206500Y-60474800D01*
X70907100Y-64092900D02*
X68407100Y-64092900D01*
X61206500Y-60474800D02*
X61374400Y-60306900D01*
X65945800Y-65106200D02*
X65945800Y-64131600D01*
X84223800Y-62832400D02*
X84808600Y-63417200D01*
X88407100Y-64011200D02*
X86764300Y-62368400D01*
X84132900Y-64092900D02*
X84808600Y-63417200D01*
X68134400Y-65021900D02*
X68407100Y-64749200D01*
X83407100Y-64092900D02*
X84132900Y-64092900D01*
X75725300Y-62157700D02*
X75877400Y-62309800D01*
X60907100Y-61592900D02*
X60907100Y-60774200D01*
X70907100Y-64092900D02*
X71291600Y-64477400D01*
X53407100Y-61592900D02*
X53407100Y-62292600D01*
X80907100Y-64092900D02*
X80907100Y-62906300D01*
X85907100Y-66592900D02*
X88407100Y-66592900D01*
X55907100Y-62986300D02*
X55928500Y-62964900D01*
X73407100Y-66592900D02*
X75907100Y-66592900D01*
X69951500Y-65785500D02*
X70472200Y-65785500D01*
X70693000Y-66591300D02*
X70693000Y-66006300D01*
X69956000Y-67328300D02*
X69142500Y-67328300D01*
X75907100Y-66592900D02*
X78407100Y-66592900D01*
X69142500Y-67328300D02*
X68407100Y-66592900D01*
X72144700Y-65330500D02*
X73407100Y-66592900D01*
X83407100Y-66592900D02*
X85907100Y-66592900D01*
X57404900Y-63219100D02*
X58278700Y-64092900D01*
X70472200Y-65785500D02*
X70693000Y-66006300D01*
X53407100Y-64092900D02*
X50907100Y-64092900D01*
X63407100Y-64092900D02*
X60907100Y-64092900D01*
X70693000Y-66591300D02*
X69956000Y-67328300D01*
X55907100Y-64092900D02*
X53407100Y-64092900D01*
X58278700Y-64092900D02*
X58407100Y-64092900D01*
X63407100Y-64092900D02*
X63407100Y-63020300D01*
X70905500Y-66591300D02*
X70693000Y-66591300D01*
X71368800Y-65330500D02*
X72144700Y-65330500D01*
X63407100Y-63020300D02*
X63557900Y-62869500D01*
X70693000Y-66006300D02*
X71368800Y-65330500D01*
X78407100Y-66592900D02*
X80907100Y-66592900D01*
X70907100Y-66592900D02*
X70905500Y-66591300D01*
X55907100Y-64092900D02*
X55907100Y-62986300D01*
X80907100Y-66592900D02*
X83407100Y-66592900D01*
X54663100Y-66592900D02*
X54663100Y-65768700D01*
X50907100Y-65818300D02*
X50907100Y-66592900D01*
X79955300Y-69040500D02*
X78459500Y-69040500D01*
X73407100Y-68366400D02*
X73407100Y-69092900D01*
X61410300Y-67120300D02*
X61578517Y-67288517D01*
X61410300Y-67096100D02*
X61410300Y-67120300D01*
X80854700Y-69040500D02*
X79955300Y-69040500D01*
X54663100Y-66592900D02*
X53407100Y-66592900D01*
X75378100Y-67897400D02*
X74905100Y-67424400D01*
X80907100Y-69092900D02*
X80854700Y-69040500D01*
X58407100Y-66592900D02*
X55907100Y-66592900D01*
X55907100Y-66592900D02*
X54663100Y-66592900D01*
X61410300Y-67096100D02*
X61913500Y-66592900D01*
X83407100Y-69092900D02*
X85907100Y-69092900D01*
X75378100Y-68563900D02*
X75378100Y-67897400D01*
X74905100Y-67424400D02*
X74349100Y-67424400D01*
X61913500Y-66592900D02*
X63407100Y-66592900D01*
X51389500Y-65335900D02*
X50907100Y-65818300D01*
X83407100Y-69092900D02*
X80907100Y-69092900D01*
X70907100Y-69092900D02*
X73407100Y-69092900D01*
X74349100Y-67424400D02*
X73407100Y-68366400D01*
X60907100Y-66592900D02*
X58407100Y-66592900D01*
X85907100Y-69092900D02*
X88407100Y-69092900D01*
X63407100Y-66592900D02*
X65907100Y-66592900D01*
X78407100Y-69092900D02*
X75907100Y-69092900D01*
X54230300Y-65335900D02*
X51389500Y-65335900D01*
X75907100Y-69092900D02*
X75378100Y-68563900D01*
X60907100Y-66592900D02*
X61410300Y-67096100D01*
X78459500Y-69040500D02*
X78407100Y-69092900D01*
X54663100Y-65768700D02*
X54230300Y-65335900D01*
X79145100Y-71592900D02*
X79661000Y-71077000D01*
X78407100Y-71592900D02*
X79145100Y-71592900D01*
X79661000Y-71077000D02*
X79661000Y-70742200D01*
X82368500Y-70554200D02*
X83407100Y-71592900D01*
X75094500Y-71592900D02*
X73407100Y-71592900D01*
X75500800Y-70035300D02*
X75500800Y-71186600D01*
X55907100Y-68142200D02*
X55907100Y-69092900D01*
X87335300Y-70904000D02*
X87704900Y-71273700D01*
X80907100Y-71592900D02*
X80907100Y-70850700D01*
X58407100Y-69092900D02*
X60907100Y-69092900D01*
X63407100Y-69092900D02*
X65907100Y-69092900D01*
X82204900Y-70390700D02*
X82368500Y-70554200D01*
X80622100Y-69781100D02*
X80539300Y-69863900D01*
X81420700Y-70337100D02*
X82149200Y-70337100D01*
X82149200Y-70337100D02*
X82202800Y-70390700D01*
X55676100Y-67911200D02*
X55907100Y-68142200D01*
X53407100Y-69092900D02*
X53407100Y-68367000D01*
X54250300Y-67790100D02*
X54371400Y-67911200D01*
X78592400Y-69673600D02*
X75862500Y-69673600D01*
X82368500Y-70554200D02*
X82371300Y-70551400D01*
X86646400Y-71592900D02*
X87335300Y-70904000D01*
X58104200Y-69092900D02*
X56842300Y-67831000D01*
X58407100Y-69092900D02*
X58104200Y-69092900D01*
X82202800Y-70390700D02*
X82204900Y-70390700D01*
X55641300Y-67911200D02*
X55676100Y-67911200D01*
X56218300Y-67831000D02*
X55907100Y-68142200D01*
X56842300Y-67831000D02*
X56218300Y-67831000D01*
X79661000Y-70742200D02*
X80539300Y-69863900D01*
X75862500Y-69673600D02*
X75500800Y-70035300D01*
X79661000Y-70742200D02*
X78592400Y-69673600D01*
X85907100Y-71592900D02*
X86646400Y-71592900D01*
X88087900Y-71273700D02*
X88407100Y-71592900D01*
X75500800Y-71186600D02*
X75094500Y-71592900D01*
X86212300Y-69781100D02*
X80622100Y-69781100D01*
X75500800Y-71186600D02*
X75907100Y-71592900D01*
X60907100Y-69092900D02*
X63407100Y-69092900D01*
X53407100Y-68367000D02*
X53984000Y-67790100D01*
X87335300Y-70904000D02*
X86212300Y-69781100D01*
X53984000Y-67790100D02*
X54250300Y-67790100D01*
X65907100Y-69092900D02*
X68407100Y-69092900D01*
X54371400Y-67911200D02*
X55641300Y-67911200D01*
X53407100Y-69092900D02*
X50907100Y-69092900D01*
X80907100Y-70850700D02*
X81420700Y-70337100D01*
X87704900Y-71273700D02*
X88087900Y-71273700D01*
X66994100Y-72806800D02*
X67437500Y-73250200D01*
X84952300Y-73320600D02*
X84180000Y-74092900D01*
X71688100Y-72326300D02*
X71688100Y-72733700D01*
X57717800Y-70903600D02*
X58407100Y-71592900D01*
X72185600Y-70802900D02*
X72185600Y-71098800D01*
X85724600Y-74092900D02*
X84952300Y-73320600D01*
X85907100Y-74092900D02*
X85724600Y-74092900D01*
X66994100Y-71592900D02*
X68115100Y-71592900D01*
X70907100Y-71592900D02*
X70907100Y-70861800D01*
X71976300Y-73021900D02*
X72383800Y-73021900D01*
X84180000Y-74092900D02*
X83407100Y-74092900D01*
X79807000Y-74092900D02*
X80317800Y-74092900D01*
X50907100Y-71592900D02*
X50907100Y-70838000D01*
X63970200Y-70283900D02*
X63407100Y-70847000D01*
X72612600Y-72793100D02*
X74607300Y-72793100D01*
X65031400Y-70618200D02*
X64697100Y-70283900D01*
X62159700Y-71067400D02*
X62159700Y-70657800D01*
X72185600Y-71098800D02*
X71858100Y-71426300D01*
X71688100Y-72733700D02*
X71976300Y-73021900D01*
X61164300Y-69662400D02*
X58189000Y-69662400D01*
X68115100Y-71592900D02*
X68407100Y-71592900D01*
X64697100Y-70283900D02*
X63970200Y-70283900D01*
X57436000Y-70903600D02*
X57717800Y-70903600D01*
X71459400Y-70309500D02*
X71692200Y-70309500D01*
X66605000Y-70148900D02*
X66135700Y-70618200D01*
X71858100Y-71426300D02*
X71858100Y-72156300D01*
X50907100Y-70838000D02*
X51412700Y-70332400D01*
X68115100Y-70488200D02*
X67775800Y-70148900D01*
X58189000Y-69662400D02*
X58161600Y-69635000D01*
X83955200Y-70045000D02*
X81346400Y-70045000D01*
X65907100Y-71592900D02*
X66994100Y-71592900D01*
X80317800Y-74092900D02*
X80907100Y-74092900D01*
X68115100Y-71592900D02*
X68115100Y-70488200D01*
X55907100Y-71592900D02*
X56746700Y-71592900D01*
X62159700Y-71067400D02*
X63407100Y-71067400D01*
X79807000Y-74132500D02*
X79807000Y-74092900D01*
X66135700Y-70618200D02*
X65031400Y-70618200D01*
X80317800Y-71073600D02*
X80317800Y-74092900D01*
X63407100Y-70847000D02*
X63407100Y-71067400D01*
X74607300Y-72793100D02*
X75907100Y-74092900D01*
X88407100Y-74092900D02*
X85907100Y-74092900D01*
X60907100Y-71592900D02*
X61634200Y-71592900D01*
X70907100Y-70861800D02*
X71459400Y-70309500D01*
X57436000Y-69948400D02*
X57436000Y-70903600D01*
X81346400Y-70045000D02*
X80317800Y-71073600D01*
X57749400Y-69635000D02*
X57436000Y-69948400D01*
X71858100Y-72156300D02*
X71688100Y-72326300D01*
X84952300Y-73320600D02*
X84952300Y-71042100D01*
X72383800Y-73021900D02*
X72612600Y-72793100D01*
X84952300Y-71042100D02*
X83955200Y-70045000D01*
X55907100Y-71592900D02*
X53407100Y-71592900D01*
X62159700Y-70657800D02*
X61164300Y-69662400D01*
X52146600Y-70332400D02*
X53407100Y-71592900D01*
X78407100Y-74092900D02*
X79807000Y-74092900D01*
X66994100Y-71592900D02*
X66994100Y-72806800D01*
X78407100Y-74092900D02*
X75907100Y-74092900D01*
X71692200Y-70309500D02*
X72185600Y-70802900D01*
X67437500Y-73250200D02*
X67437500Y-74513200D01*
X58161600Y-69635000D02*
X57749400Y-69635000D01*
X67775800Y-70148900D02*
X66605000Y-70148900D01*
X61634200Y-71592900D02*
X62159700Y-71067400D01*
X63407100Y-71067400D02*
X63407100Y-71592900D01*
X51412700Y-70332400D02*
X52146600Y-70332400D01*
X56746700Y-71592900D02*
X57436000Y-70903600D01*
X78407100Y-76592900D02*
X80907100Y-76592900D01*
X78407100Y-75994000D02*
X78407100Y-76592900D01*
X70069500Y-72036900D02*
X70069500Y-70456100D01*
X55907100Y-73368100D02*
X55907100Y-74092900D01*
X58407100Y-74092900D02*
X57127500Y-72813300D01*
X83407100Y-76592900D02*
X85907100Y-76592900D01*
X54709600Y-74092900D02*
X54625700Y-74009000D01*
X55371400Y-72832400D02*
X52952400Y-72832400D01*
X70907100Y-74092900D02*
X70907100Y-72874500D01*
X74204800Y-74890600D02*
X74714900Y-74890600D01*
X70907100Y-74092900D02*
X68407100Y-74092900D01*
X60907100Y-74092900D02*
X58407100Y-74092900D01*
X65338900Y-74092900D02*
X65907100Y-74092900D01*
X85907100Y-76592900D02*
X88407100Y-76592900D01*
X55907100Y-74092900D02*
X54709600Y-74092900D01*
X56461900Y-72813300D02*
X55907100Y-73368100D01*
X65090000Y-73844000D02*
X65338900Y-74092900D01*
X74819000Y-74786500D02*
X77199600Y-74786500D01*
X65090000Y-73844000D02*
X64841100Y-74092900D01*
X74714900Y-74890600D02*
X74819000Y-74786500D01*
X57127500Y-72813300D02*
X56461900Y-72813300D01*
X77199600Y-74786500D02*
X78407100Y-75994000D01*
X73407100Y-74092900D02*
X74204800Y-74890600D01*
X63407100Y-74092900D02*
X60907100Y-74092900D01*
X64841100Y-74092900D02*
X63407100Y-74092900D01*
X80907100Y-76592900D02*
X83407100Y-76592900D01*
X70907100Y-74092900D02*
X73407100Y-74092900D01*
X70907100Y-72874500D02*
X70069500Y-72036900D01*
X54625700Y-74009000D02*
X53491000Y-74009000D01*
X53491000Y-74009000D02*
X53407100Y-74092900D01*
X51691900Y-74092900D02*
X50907100Y-74092900D01*
X55907100Y-73368100D02*
X55371400Y-72832400D01*
X52952400Y-72832400D02*
X51691900Y-74092900D01*
X72147100Y-75332900D02*
X71430600Y-75332900D01*
X63934400Y-75340800D02*
X64655000Y-75340800D01*
X50907100Y-76592900D02*
X53407100Y-76592900D01*
X55907100Y-76592900D02*
X53407100Y-76592900D01*
X82588000Y-77840600D02*
X81371300Y-77840600D01*
X63407100Y-76592900D02*
X63407100Y-75868100D01*
X86060000Y-77823300D02*
X85907100Y-77976200D01*
X88407100Y-79092900D02*
X87137500Y-77823300D01*
X60907100Y-76592900D02*
X61110000Y-76795800D01*
X82744700Y-78430500D02*
X83407100Y-79092900D01*
X75263300Y-77197400D02*
X75279900Y-77180800D01*
X76498700Y-77184500D02*
X79712900Y-77184500D01*
X80833200Y-78304800D02*
X80907100Y-78304800D01*
X75907100Y-76592900D02*
X75319200Y-77180800D01*
X82744700Y-77997300D02*
X82744700Y-78430500D01*
X71430600Y-75332900D02*
X70907100Y-75856400D01*
X83695700Y-77046300D02*
X82744700Y-77997300D01*
X73407100Y-76592900D02*
X72147100Y-75332900D01*
X70907100Y-76592900D02*
X68407100Y-76592900D01*
X81371300Y-77840600D02*
X80907100Y-78304800D01*
X60907100Y-76592900D02*
X58407100Y-76592900D01*
X74011600Y-77197400D02*
X75263300Y-77197400D01*
X85907100Y-77976200D02*
X84977200Y-77046300D01*
X75907100Y-76592900D02*
X76498700Y-77184500D01*
X63407100Y-75868100D02*
X63934400Y-75340800D01*
X58407100Y-76592900D02*
X55907100Y-76592900D01*
X84977200Y-77046300D02*
X83695700Y-77046300D01*
X70907100Y-75856400D02*
X70907100Y-76592900D01*
X68407100Y-76592900D02*
X65907100Y-76592900D01*
X85907100Y-77976200D02*
X85907100Y-79092900D01*
X61110000Y-76795800D02*
X63204200Y-76795800D01*
X79712900Y-77184500D02*
X80833200Y-78304800D01*
X64655000Y-75340800D02*
X65907100Y-76592900D01*
X73407100Y-76592900D02*
X74011600Y-77197400D01*
X82744700Y-77997300D02*
X82588000Y-77840600D01*
X80907100Y-78304800D02*
X80907100Y-79092900D01*
X87137500Y-77823300D02*
X86060000Y-77823300D01*
X63204200Y-76795800D02*
X63407100Y-76592900D01*
X75319200Y-77180800D02*
X75279900Y-77180800D01*
X84729000Y-80414700D02*
X84729000Y-78314800D01*
X60444800Y-77835200D02*
X58908600Y-77835200D01*
X68407100Y-79092900D02*
X70907100Y-79092900D01*
X83407100Y-81592900D02*
X84163000Y-81592900D01*
X77290000Y-79085800D02*
X77297100Y-79092900D01*
X54159500Y-77581000D02*
X56464400Y-77581000D01*
X84025000Y-77610800D02*
X84025000Y-77539900D01*
X63166100Y-79092900D02*
X61907200Y-77834000D01*
X60907100Y-78297500D02*
X60907100Y-79092900D01*
X61370600Y-77834000D02*
X60907100Y-78297500D01*
X77297100Y-79092900D02*
X77297147Y-79092947D01*
X60907100Y-78297500D02*
X60444800Y-77835200D01*
X73077900Y-77478700D02*
X72731100Y-77825500D01*
X57183500Y-78300100D02*
X57183500Y-79092900D01*
X63407100Y-79092900D02*
X63166100Y-79092900D01*
X53407100Y-79092900D02*
X50907100Y-79092900D01*
X58908600Y-77835200D02*
X58508600Y-78235200D01*
X84729000Y-78314800D02*
X84025000Y-77610800D01*
X77290000Y-77689600D02*
X73810400Y-77689600D01*
X77297147Y-79092947D02*
X78407053Y-79092947D01*
X53407100Y-78333400D02*
X54159500Y-77581000D01*
X84163000Y-81592900D02*
X85035100Y-80720800D01*
X75907100Y-79092900D02*
X77297100Y-79092900D01*
X72731100Y-77825500D02*
X72731100Y-78416900D01*
X73810400Y-77689600D02*
X73599500Y-77478700D01*
X78728700Y-77704400D02*
X78713900Y-77689600D01*
X77290000Y-77689600D02*
X77290000Y-79085800D01*
X70907100Y-79092900D02*
X72055100Y-79092900D01*
X53407100Y-79092900D02*
X53407100Y-78333400D01*
X67702800Y-79797200D02*
X66611400Y-79797200D01*
X88407100Y-81592900D02*
X85907100Y-81592900D01*
X56464400Y-77581000D02*
X57183500Y-78300100D01*
X85035100Y-80720800D02*
X85907100Y-81592900D01*
X68407100Y-79092900D02*
X67702800Y-79797200D01*
X61907200Y-77834000D02*
X61370600Y-77834000D01*
X85035100Y-80720800D02*
X84729000Y-80414700D01*
X58407100Y-79092900D02*
X57183500Y-79092900D01*
X72055100Y-79092900D02*
X72731100Y-78416900D01*
X78292900Y-79092900D02*
X78407100Y-79092900D01*
X65907100Y-79092900D02*
X63407100Y-79092900D01*
X66611400Y-79797200D02*
X65907100Y-79092900D01*
X58508600Y-78235200D02*
X58508600Y-78991400D01*
X78713900Y-77689600D02*
X77290000Y-77689600D01*
X73599500Y-77478700D02*
X73077900Y-77478700D01*
X72731100Y-78416900D02*
X73407100Y-79092900D01*
X57183500Y-79092900D02*
X55907100Y-79092900D01*
X58508600Y-78991400D02*
X58407100Y-79092900D01*
X68435500Y-81564500D02*
X69162500Y-81564500D01*
X86463300Y-84649100D02*
X86510000Y-84649100D01*
X69162500Y-81564500D02*
X69665900Y-81061100D01*
X72159200Y-81592900D02*
X70907100Y-81592900D01*
X70921300Y-79723100D02*
X71328800Y-79723100D01*
X69665900Y-80978500D02*
X69767500Y-80876900D01*
X71328800Y-79723100D02*
X71616900Y-80011200D01*
X60907100Y-81592900D02*
X61728500Y-81592900D01*
X61728500Y-81592900D02*
X62403900Y-82268300D01*
X78407100Y-81592900D02*
X80907100Y-81592900D01*
X75745400Y-82911300D02*
X75745400Y-81754600D01*
X85907100Y-84092900D02*
X86463300Y-84649100D01*
X69767500Y-80876900D02*
X69207800Y-80317300D01*
X63161200Y-81592900D02*
X63079300Y-81592900D01*
X62854500Y-80567700D02*
X62854500Y-80079700D01*
X72159200Y-80783900D02*
X72159200Y-81592900D01*
X55952900Y-81592900D02*
X50907100Y-81592900D01*
X71617000Y-80241700D02*
X72159200Y-80783900D01*
X68407100Y-81592900D02*
X68435500Y-81564500D01*
X64832400Y-79759500D02*
X65907100Y-80834200D01*
X62854500Y-80079700D02*
X63174700Y-79759500D01*
X69665900Y-81061100D02*
X69665900Y-80978500D01*
X63161200Y-81592900D02*
X63161200Y-80874400D01*
X63174700Y-79759500D02*
X64832400Y-79759500D01*
X75907100Y-81592900D02*
X78407100Y-81592900D01*
X66424000Y-80317300D02*
X65907100Y-80834200D01*
X87850900Y-84649100D02*
X88407100Y-84092900D01*
X65907100Y-80834200D02*
X65907100Y-81592900D01*
X86510000Y-84649100D02*
X87850900Y-84649100D01*
X62403900Y-82268300D02*
X62403900Y-82273200D01*
X56360000Y-82000000D02*
X55952900Y-81592900D01*
X71616900Y-80241700D02*
X71617000Y-80241700D01*
X69767500Y-80876900D02*
X70921300Y-79723100D01*
X63079300Y-81592900D02*
X62403900Y-82268300D01*
X60907100Y-81592900D02*
X58407100Y-81592900D01*
X73407100Y-81592900D02*
X72159200Y-81592900D01*
X56360000Y-82370000D02*
X56360000Y-82000000D01*
X75745400Y-81754600D02*
X75907100Y-81592900D01*
X63161200Y-80874400D02*
X62854500Y-80567700D01*
X63407100Y-81592900D02*
X63161200Y-81592900D01*
X69207800Y-80317300D02*
X66424000Y-80317300D01*
X71616900Y-80011200D02*
X71616900Y-80241700D01*
X62376000Y-83428000D02*
X61334400Y-82386400D01*
X63899400Y-84585200D02*
X63899400Y-84673200D01*
X73413200Y-84895300D02*
X73413200Y-84099000D01*
X63407100Y-84092900D02*
X63899400Y-84585200D01*
X53883000Y-82837300D02*
X53407100Y-83313200D01*
X60504200Y-82739300D02*
X59150600Y-84092900D01*
X58407100Y-84092900D02*
X55907100Y-84092900D01*
X62742200Y-83428000D02*
X63407100Y-84092900D01*
X80311600Y-83994600D02*
X80311600Y-83194800D01*
X73407100Y-84092900D02*
X70907100Y-84092900D01*
X88407100Y-86592900D02*
X88407100Y-85455600D01*
X80907100Y-84092900D02*
X80808800Y-83994600D01*
X55907100Y-84092900D02*
X54651500Y-82837300D01*
X68407100Y-84092900D02*
X68350600Y-84149400D01*
X53407100Y-83313200D02*
X53407100Y-84092900D01*
X78505400Y-83994600D02*
X78407100Y-84092900D01*
X62376000Y-83428000D02*
X62742200Y-83428000D01*
X68350600Y-84149400D02*
X67466800Y-84149400D01*
X54651500Y-82837300D02*
X53883000Y-82837300D01*
X67466800Y-84149400D02*
X65963600Y-84149400D01*
X80808800Y-83994600D02*
X80311600Y-83994600D01*
X53407100Y-84092900D02*
X50907100Y-84092900D01*
X60907100Y-84092900D02*
X61711100Y-84092900D01*
X59150600Y-84092900D02*
X58407100Y-84092900D01*
X60504200Y-82602600D02*
X60504200Y-82739300D01*
X61711100Y-84092900D02*
X62376000Y-83428000D01*
X73413200Y-84099000D02*
X73407100Y-84092900D01*
X60720400Y-82386400D02*
X60504200Y-82602600D01*
X83407100Y-84092900D02*
X83413900Y-84092900D01*
X88407100Y-85455600D02*
X88739300Y-85123400D01*
X67466800Y-84149400D02*
X67466800Y-84149500D01*
X78407100Y-84092900D02*
X75907100Y-84092900D01*
X61334400Y-82386400D02*
X60720400Y-82386400D01*
X80311600Y-83994600D02*
X78505400Y-83994600D01*
X65963600Y-84149400D02*
X65907100Y-84092900D01*
X83413900Y-84092900D02*
X83941300Y-84620300D01*
X70907100Y-86592900D02*
X72500800Y-86592900D01*
X55907100Y-85835600D02*
X55907100Y-86592900D01*
X80755500Y-85303400D02*
X78967900Y-85303400D01*
X83426600Y-86612400D02*
X83426600Y-87372400D01*
X83426600Y-86612400D02*
X85887600Y-86612400D01*
X81099200Y-85262900D02*
X80907100Y-85455000D01*
X59216900Y-85323700D02*
X56419000Y-85323700D01*
X80907100Y-85455000D02*
X80755500Y-85303400D01*
X83407100Y-86592900D02*
X83426600Y-86612400D01*
X63407100Y-86592900D02*
X63407100Y-86702500D01*
X60907100Y-86592900D02*
X61218900Y-86904700D01*
X75907100Y-86592900D02*
X78407100Y-86592900D01*
X78407100Y-85864200D02*
X78407100Y-86592900D01*
X78967900Y-85303400D02*
X78407100Y-85864200D01*
X50907100Y-86592900D02*
X53407100Y-86592900D01*
X63407100Y-86702500D02*
X62863600Y-87246000D01*
X68407100Y-86592900D02*
X67599800Y-86592900D01*
X80907100Y-85455000D02*
X80907100Y-86592900D01*
X59715200Y-86592900D02*
X59715200Y-85822000D01*
X72595000Y-86687100D02*
X73312900Y-86687100D01*
X60907100Y-86592900D02*
X59715200Y-86592900D01*
X55907100Y-86592900D02*
X53407100Y-86592900D01*
X72500800Y-86592900D02*
X72595000Y-86687100D01*
X73312900Y-86687100D02*
X73407100Y-86592900D01*
X85887600Y-86612400D02*
X85907100Y-86592900D01*
X56419000Y-85323700D02*
X55907100Y-85835600D01*
X59715200Y-86592900D02*
X58407100Y-86592900D01*
X83426600Y-87372400D02*
X83403900Y-87395100D01*
X59715200Y-85822000D02*
X59216900Y-85323700D01*
X67599800Y-86592900D02*
X65907100Y-86592900D01*
X61218900Y-87339400D02*
X61219000Y-87339400D01*
X61218900Y-86904700D02*
X61218900Y-87339400D01*
X63407100Y-89092900D02*
X60907100Y-89092900D01*
X85768100Y-89231900D02*
X85907100Y-89092900D01*
X83546100Y-89231900D02*
X84981200Y-89231900D01*
X75907100Y-89092900D02*
X73407100Y-89092900D01*
X83407100Y-89092900D02*
X83546100Y-89231900D01*
X78407100Y-89092900D02*
X75907100Y-89092900D01*
X84981200Y-89231900D02*
X85768100Y-89231900D01*
X58407100Y-89092900D02*
X55907100Y-89092900D01*
X70907100Y-89092900D02*
X68407100Y-89092900D01*
X53407100Y-89092900D02*
X50907100Y-89092900D01*
X55907100Y-89092900D02*
X53407100Y-89092900D01*
X60907100Y-89092900D02*
X58407100Y-89092900D01*
X85907100Y-89092900D02*
X88407100Y-89092900D01*
X68407100Y-89092900D02*
X65907100Y-89092900D01*
X80907100Y-89092900D02*
X78407100Y-89092900D01*
X73407100Y-89092900D02*
X70907100Y-89092900D01*
X83407100Y-89092900D02*
X80907100Y-89092900D01*
X65907100Y-89092900D02*
X63407100Y-89092900D01*
X55364500Y-78657900D02*
X55323000Y-78699400D01*
X56116100Y-87800400D02*
X56592900Y-88277200D01*
X56592900Y-87323600D02*
X56592900Y-85907100D01*
X57534400Y-82465600D02*
X56592900Y-83407100D01*
X56944700Y-63758900D02*
X56592900Y-63407100D01*
X56925200Y-75574800D02*
X56925200Y-74136800D01*
X56592900Y-58407100D02*
X56592900Y-50907100D01*
X56592900Y-75907100D02*
X56925200Y-75574800D01*
X56592900Y-73804500D02*
X56925200Y-74136800D01*
X55615300Y-78407100D02*
X55364500Y-78657900D01*
X56592900Y-63407100D02*
X56592900Y-60907100D01*
X55716400Y-78306000D02*
X55716400Y-78226400D01*
X55323000Y-78699400D02*
X55323000Y-80036300D01*
X56865600Y-80907100D02*
X57534400Y-81575900D01*
X56944700Y-64800000D02*
X56944700Y-63758900D01*
X56592900Y-68407100D02*
X56592900Y-69305800D01*
X56592900Y-65151800D02*
X56592900Y-65907100D01*
X55862300Y-58407100D02*
X56592900Y-58407100D01*
X56592900Y-80907100D02*
X56865600Y-80907100D01*
X55323000Y-80036300D02*
X56193800Y-80907100D01*
X56193800Y-80907100D02*
X56592900Y-80907100D01*
X55336900Y-58932500D02*
X55862300Y-58407100D01*
X56592900Y-78407100D02*
X55615300Y-78407100D01*
X57534400Y-81575900D02*
X57534400Y-82465600D01*
X56116100Y-87800400D02*
X56592900Y-87323600D01*
X56672300Y-70827700D02*
X56672300Y-69385200D01*
X56592900Y-73407100D02*
X56592900Y-73804500D01*
X56592900Y-69305800D02*
X56672300Y-69385200D01*
X56592900Y-88277200D02*
X56592900Y-88407100D01*
X55336900Y-59651100D02*
X55336900Y-58932500D01*
X56944700Y-64800000D02*
X56592900Y-65151800D01*
X56592900Y-70907100D02*
X56672300Y-70827700D01*
X55364500Y-78657900D02*
X55716400Y-78306000D01*
X56592900Y-60907100D02*
X55336900Y-59651100D01*
X59092900Y-82962700D02*
X59092900Y-83407100D01*
X59092900Y-70907100D02*
X58312800Y-70127000D01*
X57823200Y-51383900D02*
X57823200Y-52912700D01*
X57813300Y-61797500D02*
X57813300Y-61429300D01*
X59092900Y-70907100D02*
X59092900Y-73407100D01*
X57840800Y-53883900D02*
X58317600Y-53407100D01*
X59092900Y-88042100D02*
X58454900Y-87404100D01*
X59081500Y-63418500D02*
X59092900Y-63407100D01*
X58322100Y-55907100D02*
X59092900Y-55907100D01*
X58384900Y-62369100D02*
X57813300Y-61797500D01*
X58385500Y-82262300D02*
X58470400Y-82262300D01*
X57840800Y-56388400D02*
X58322100Y-55907100D01*
X58312800Y-70127000D02*
X57957700Y-70127000D01*
X59092900Y-50907100D02*
X58300000Y-50907100D01*
X59092900Y-58407100D02*
X57840800Y-57155000D01*
X57826800Y-75907100D02*
X57707500Y-76026400D01*
X59092900Y-75907100D02*
X57826800Y-75907100D01*
X58348200Y-80907100D02*
X57833900Y-81421400D01*
X57813300Y-61429300D02*
X58335500Y-60907100D01*
X58317600Y-53407100D02*
X59092900Y-53407100D01*
X59081500Y-65895700D02*
X59081500Y-63418500D01*
X58322100Y-55907100D02*
X57840800Y-55425800D01*
X58300000Y-50907100D02*
X57823200Y-51383900D01*
X57805400Y-86469300D02*
X57805400Y-86754600D01*
X59092900Y-60907100D02*
X59092900Y-58407100D01*
X57823200Y-52912700D02*
X58317600Y-53407100D01*
X57805400Y-86754600D02*
X58454900Y-87404100D01*
X59188800Y-82866800D02*
X59131900Y-82923700D01*
X59092900Y-88407100D02*
X59092900Y-88042100D01*
X59092900Y-85907100D02*
X58367600Y-85907100D01*
X59081500Y-65895700D02*
X59092900Y-65907100D01*
X59092900Y-63407100D02*
X58384900Y-62699100D01*
X58335500Y-60907100D02*
X59092900Y-60907100D01*
X59092900Y-80907100D02*
X59092900Y-78407100D01*
X59092900Y-80907100D02*
X58348200Y-80907100D01*
X57833900Y-81710700D02*
X58385500Y-82262300D01*
X59092900Y-68407100D02*
X58139000Y-68407100D01*
X57840800Y-55425800D02*
X57840800Y-53883900D01*
X58384900Y-62699100D02*
X58384900Y-62369100D01*
X58470400Y-82262300D02*
X59131900Y-82923700D01*
X58139000Y-68407100D02*
X58082900Y-68351000D01*
X59654800Y-82866800D02*
X59188800Y-82866800D01*
X57840800Y-57155000D02*
X57840800Y-56388400D01*
X59081500Y-65895700D02*
X58026200Y-65895700D01*
X59131900Y-82923700D02*
X59092900Y-82962700D01*
X58367600Y-85907100D02*
X57805400Y-86469300D01*
X57833900Y-81421400D02*
X57833900Y-81710700D01*
X61493900Y-78506100D02*
X61592900Y-78407100D01*
X61592900Y-54125500D02*
X61592900Y-53407100D01*
X61592900Y-80907100D02*
X61493900Y-80808100D01*
X61592900Y-85907100D02*
X61716700Y-86030900D01*
X62607000Y-81122100D02*
X61807900Y-81122100D01*
X61592900Y-55907100D02*
X61695900Y-55907100D01*
X61807900Y-81122100D02*
X61592900Y-80907100D01*
X59865100Y-64179300D02*
X59865100Y-63229400D01*
X61592900Y-58281000D02*
X61592900Y-58407100D01*
X61695900Y-55907100D02*
X62331400Y-55271600D01*
X62331400Y-54864000D02*
X61592900Y-54125500D01*
X61716700Y-86030900D02*
X61716700Y-88283300D01*
X60325700Y-85059200D02*
X61173600Y-85907100D01*
X61592900Y-53407100D02*
X61592900Y-50907100D01*
X61592900Y-62271500D02*
X61025100Y-62839300D01*
X60880000Y-57920000D02*
X61231900Y-57920000D01*
X61110100Y-83149100D02*
X61110100Y-82943500D01*
X61989700Y-76303900D02*
X61592900Y-75907100D01*
X61025100Y-62839300D02*
X61592900Y-63407100D01*
X60255200Y-62839300D02*
X61025100Y-62839300D01*
X62256100Y-76303900D02*
X61989700Y-76303900D01*
X61592900Y-55907100D02*
X61592900Y-58281000D01*
X61592900Y-60907100D02*
X61592900Y-62271500D01*
X61592900Y-73407100D02*
X60332500Y-72146700D01*
X60653600Y-67467800D02*
X60653600Y-67388300D01*
X61592900Y-83407100D02*
X61334900Y-83149100D01*
X60960500Y-70907100D02*
X61592900Y-70907100D01*
X61334900Y-83149100D02*
X61110100Y-83149100D01*
X61716700Y-88283300D02*
X61592900Y-88407100D01*
X61231900Y-57920000D02*
X61592900Y-58281000D01*
X60332500Y-72146700D02*
X60332500Y-71392100D01*
X61592900Y-65907100D02*
X59865100Y-64179300D01*
X60960500Y-70907100D02*
X60960500Y-70154300D01*
X61110100Y-82943500D02*
X61050900Y-82884300D01*
X61493900Y-80808100D02*
X61493900Y-78506100D01*
X61592900Y-68407100D02*
X60653600Y-67467800D01*
X61110100Y-83149100D02*
X60325700Y-83933500D01*
X60332500Y-71392100D02*
X60817500Y-70907100D01*
X60817500Y-70907100D02*
X60960500Y-70907100D01*
X62331400Y-55271600D02*
X62331400Y-54864000D01*
X59865100Y-63229400D02*
X60255200Y-62839300D01*
X61173600Y-85907100D02*
X61592900Y-85907100D01*
X60325700Y-83933500D02*
X60325700Y-85059200D01*
X65083400Y-81927500D02*
X65301600Y-81927500D01*
X65083400Y-81897600D02*
X65083400Y-81927500D01*
X64092900Y-77175700D02*
X64092900Y-75907100D01*
X64266600Y-77349400D02*
X64092900Y-77175700D01*
X64415000Y-85585000D02*
X64415000Y-83729200D01*
X64131500Y-78407100D02*
X64266600Y-78272000D01*
X64260000Y-65740000D02*
X64092900Y-65907100D01*
X64092900Y-70907100D02*
X64293100Y-71107300D01*
X63254700Y-58228600D02*
X63254700Y-57130000D01*
X64092900Y-53407100D02*
X64092900Y-55907100D01*
X64830000Y-78213300D02*
X64771300Y-78272000D01*
X63599200Y-60413400D02*
X63529300Y-60413400D01*
X63345400Y-55907100D02*
X64092900Y-55907100D01*
X64092900Y-80907100D02*
X65083400Y-81897600D01*
X64092900Y-82918000D02*
X65083400Y-81927500D01*
X64260000Y-65100700D02*
X64260000Y-65740000D01*
X63254700Y-57130000D02*
X62840800Y-56716100D01*
X64092900Y-78407100D02*
X64131500Y-78407100D01*
X62840800Y-56411700D02*
X63345400Y-55907100D01*
X64092900Y-85907100D02*
X64415000Y-85585000D01*
X63420000Y-72900000D02*
X63585800Y-72900000D01*
X63791700Y-73105900D02*
X64092900Y-73407100D01*
X62840800Y-56716100D02*
X62840800Y-56411700D01*
X64092900Y-85907100D02*
X64092900Y-88407100D01*
X64092900Y-53407100D02*
X64092900Y-50907100D01*
X64092900Y-60907100D02*
X63599200Y-60413400D01*
X64293100Y-72604500D02*
X63791700Y-73105900D01*
X64092900Y-83407100D02*
X64092900Y-82918000D01*
X64092900Y-68407100D02*
X63557500Y-67871700D01*
X64092900Y-58407100D02*
X63914400Y-58228600D01*
X63585800Y-72900000D02*
X63791700Y-73105900D01*
X64771300Y-78272000D02*
X64266600Y-78272000D01*
X63914400Y-58228600D02*
X63254700Y-58228600D01*
X62890000Y-72370000D02*
X63420000Y-72900000D01*
X64270000Y-63584200D02*
X64092900Y-63407100D01*
X64266600Y-78272000D02*
X64266600Y-77349400D01*
X64270000Y-65090700D02*
X64270000Y-63584200D01*
X64293100Y-71107300D02*
X64293100Y-72604500D01*
X64415000Y-83729200D02*
X64092900Y-83407100D01*
X64260000Y-65100700D02*
X64270000Y-65090700D01*
X65301600Y-81927500D02*
X65991700Y-82617600D01*
X62850000Y-72370000D02*
X62890000Y-72370000D01*
X78226800Y-59273200D02*
X78407100Y-59092900D01*
X65907100Y-59177200D02*
X66576400Y-59846500D01*
X73407100Y-59092900D02*
X73492300Y-59007700D01*
X73407100Y-59092900D02*
X73077100Y-58762900D01*
X73492300Y-59007700D02*
X75821900Y-59007700D01*
X66576400Y-59846500D02*
X67625000Y-59846500D01*
X88407100Y-59092900D02*
X87151800Y-57837600D01*
X83407100Y-58364600D02*
X83944200Y-57827500D01*
X55907100Y-56592900D02*
X55409000Y-57091000D01*
X68407100Y-58360600D02*
X68965600Y-57802100D01*
X73077100Y-58762900D02*
X72126000Y-58762900D01*
X71796000Y-59092900D02*
X70907100Y-59092900D01*
X60080000Y-58271200D02*
X60901700Y-59092900D01*
X84208000Y-57827500D02*
X85079400Y-58698900D01*
X75907100Y-59092900D02*
X76087400Y-59273200D01*
X64380400Y-59092900D02*
X65648300Y-57825000D01*
X68965600Y-57802100D02*
X69243700Y-57802100D01*
X75821900Y-59007700D02*
X75907100Y-59092900D01*
X69243700Y-57802100D02*
X70534500Y-59092900D01*
X86374400Y-57837600D02*
X85513100Y-58698900D01*
X72126000Y-58762900D02*
X71796000Y-59092900D01*
X83944200Y-57827500D02*
X84208000Y-57827500D01*
X65907100Y-59092900D02*
X65907100Y-59177200D01*
X76087400Y-59273200D02*
X78226800Y-59273200D01*
X67625000Y-59846500D02*
X68407100Y-59064400D01*
X85513100Y-58698900D02*
X85907100Y-59092900D01*
X65648300Y-57825000D02*
X67871500Y-57825000D01*
X55409000Y-57091000D02*
X55409000Y-57139300D01*
X80907100Y-59092900D02*
X83407100Y-59092900D01*
X67871500Y-57825000D02*
X68407100Y-58360600D01*
X60901700Y-59092900D02*
X64380400Y-59092900D01*
X85079400Y-58698900D02*
X85513100Y-58698900D01*
X53756500Y-56942300D02*
X53407100Y-56592900D01*
X87151800Y-57837600D02*
X86374400Y-57837600D01*
X68407100Y-59064400D02*
X68407100Y-58360600D01*
X78407100Y-59092900D02*
X80907100Y-59092900D01*
X83407100Y-59092900D02*
X83407100Y-58364600D01*
X53407100Y-56592900D02*
X50907100Y-56592900D01*
X70534500Y-59092900D02*
X70907100Y-59092900D01*
X60080000Y-57660000D02*
X60080000Y-58271200D01*
X54119300Y-56942300D02*
X53756500Y-56942300D01*
X58889900Y-50340800D02*
X58888400Y-50339300D01*
X63407100Y-50791700D02*
X63407100Y-51592900D01*
X82903400Y-50331100D02*
X81400900Y-50331100D01*
X87124600Y-50310400D02*
X88407100Y-51592900D01*
X79691800Y-51592900D02*
X78407100Y-51592900D01*
X72905500Y-50334800D02*
X71397800Y-50334800D01*
X79691800Y-51592900D02*
X79691800Y-50803100D01*
X86388300Y-50310400D02*
X87124600Y-50310400D01*
X79691800Y-50803100D02*
X79199100Y-50310400D01*
X60414000Y-50340800D02*
X58889900Y-50340800D01*
X81400900Y-50331100D02*
X80907100Y-50824900D01*
X68898200Y-50334600D02*
X68407100Y-50825700D01*
X53407100Y-51592900D02*
X52744400Y-52255600D01*
X85441000Y-50325500D02*
X83916400Y-50325500D01*
X65907100Y-50813600D02*
X66383900Y-50336800D01*
X79199100Y-50310400D02*
X76388300Y-50310400D01*
X68407100Y-50825700D02*
X68407100Y-51592900D01*
X60907100Y-51592900D02*
X60907100Y-50833900D01*
X73407100Y-50836400D02*
X72905500Y-50334800D01*
X55907100Y-50844200D02*
X55907100Y-51592900D01*
X65907100Y-50813600D02*
X65434300Y-50340800D01*
X67982200Y-50825700D02*
X68407100Y-50825700D01*
X56410500Y-50340800D02*
X55907100Y-50844200D01*
X65434300Y-50340800D02*
X63858000Y-50340800D01*
X61400200Y-50340800D02*
X62956200Y-50340800D01*
X83407100Y-50834800D02*
X83407100Y-51592900D01*
X70907100Y-50825500D02*
X70907100Y-51592900D01*
X71397800Y-50334800D02*
X70907100Y-50825500D01*
X76388300Y-50310400D02*
X75907100Y-50791600D01*
X62956200Y-50340800D02*
X63407100Y-50791700D01*
X73903000Y-50340500D02*
X73407100Y-50836400D01*
X85907100Y-51592900D02*
X85907100Y-50791600D01*
X52446200Y-52255600D02*
X52446200Y-52255700D01*
X70907100Y-50825500D02*
X70416200Y-50334600D01*
X58888400Y-50339300D02*
X57973600Y-50339300D01*
X66383900Y-50336800D02*
X67493200Y-50336800D01*
X60907100Y-51592900D02*
X58407100Y-51592900D01*
X63858000Y-50340800D02*
X63407100Y-50791700D01*
X73407100Y-51592900D02*
X73407100Y-50836400D01*
X80907100Y-51592900D02*
X79691800Y-51592900D01*
X75456000Y-50340500D02*
X73903000Y-50340500D01*
X75907100Y-50791600D02*
X75456000Y-50340500D01*
X65907100Y-51592900D02*
X65907100Y-50813600D01*
X80907100Y-50824900D02*
X80907100Y-51592900D01*
X60907100Y-50833900D02*
X61400200Y-50340800D01*
X67493200Y-50336800D02*
X67559900Y-50403400D01*
X83407100Y-50834800D02*
X82903400Y-50331100D01*
X85907100Y-50791600D02*
X85441000Y-50325500D01*
X57973600Y-50339300D02*
X57972100Y-50340800D01*
X55517000Y-51983000D02*
X55907100Y-51592900D01*
X60907100Y-50833900D02*
X60414000Y-50340800D01*
X70416200Y-50334600D02*
X68898200Y-50334600D01*
X55265100Y-51983000D02*
X55517000Y-51983000D01*
X83916400Y-50325500D02*
X83407100Y-50834800D01*
X67559900Y-50403400D02*
X67982200Y-50825700D01*
X85907100Y-50791600D02*
X86388300Y-50310400D01*
X57972100Y-50340800D02*
X56410500Y-50340800D01*
X75907100Y-50791600D02*
X75907100Y-51592900D01*
X52744400Y-52255600D02*
X52446200Y-52255600D01*
X65468500Y-85907100D02*
X66592900Y-85907100D01*
X64013078Y-74768677D02*
X64443501Y-74768677D01*
X65614300Y-83407100D02*
X66592900Y-83407100D01*
X66592900Y-53407100D02*
X66592900Y-50907100D01*
X65100800Y-85539400D02*
X65100800Y-83920600D01*
X65338400Y-53904200D02*
X65835500Y-53407100D01*
X65277000Y-59534600D02*
X65277000Y-58987100D01*
X65338400Y-54744200D02*
X65338400Y-53904200D01*
X65468500Y-85907100D02*
X65100800Y-85539400D01*
X64835100Y-59534600D02*
X65277000Y-59534600D01*
X66592900Y-55907100D02*
X65430000Y-54744200D01*
X66592900Y-65907100D02*
X66592900Y-68407100D01*
X65857000Y-58407100D02*
X66592900Y-58407100D01*
X65868000Y-70907100D02*
X66592900Y-70907100D01*
X66592900Y-60907100D02*
X65277000Y-59591200D01*
X65323200Y-72137400D02*
X65323200Y-71451900D01*
X65835500Y-53407100D02*
X66592900Y-53407100D01*
X66523900Y-63476100D02*
X66523900Y-65838100D01*
X66592900Y-75907100D02*
X66592900Y-75112000D01*
X66523900Y-65838100D02*
X66592900Y-65907100D01*
X64443501Y-74768677D02*
X65024824Y-75350000D01*
X65321800Y-86053800D02*
X65468500Y-85907100D01*
X66592900Y-78407100D02*
X66592900Y-78332900D01*
X65277000Y-58987100D02*
X65857000Y-58407100D01*
X66592900Y-75112000D02*
X66592900Y-73407100D01*
X66592900Y-63407100D02*
X66592900Y-60907100D01*
X65430000Y-54744200D02*
X65338400Y-54744200D01*
X66592900Y-63407100D02*
X66523900Y-63476100D01*
X65100800Y-83920600D02*
X65614300Y-83407100D01*
X65338400Y-54744200D02*
X65183400Y-54744200D01*
X65024824Y-75350000D02*
X66354900Y-75350000D01*
X65321800Y-87136000D02*
X65321800Y-86053800D01*
X66592900Y-83407100D02*
X66592900Y-80907100D01*
X66592900Y-78332900D02*
X64934000Y-76674000D01*
X65277000Y-59591200D02*
X65277000Y-59534600D01*
X66592900Y-88407100D02*
X65321800Y-87136000D01*
X65323200Y-71451900D02*
X65868000Y-70907100D01*
X64934000Y-76674000D02*
X64620700Y-76674000D01*
X66354900Y-75350000D02*
X66592900Y-75112000D01*
X66592900Y-73407100D02*
X65323200Y-72137400D01*
X67840800Y-62922100D02*
X68325800Y-63407100D01*
X69092900Y-88407100D02*
X69092900Y-85907100D01*
X67823200Y-81451900D02*
X68368000Y-80907100D01*
X68661800Y-55270900D02*
X68661800Y-54891300D01*
X67824900Y-66367200D02*
X68285000Y-65907100D01*
X67586900Y-65209000D02*
X68285000Y-65907100D01*
X67953500Y-73407100D02*
X67955100Y-73407100D01*
X67823200Y-82701400D02*
X67823200Y-81451900D01*
X69092900Y-83407100D02*
X69092900Y-85907100D01*
X68367400Y-60907100D02*
X67840800Y-61433700D01*
X69092900Y-55907100D02*
X68661800Y-55476000D01*
X69092900Y-70907100D02*
X69092900Y-68407100D01*
X68325800Y-63407100D02*
X67586900Y-64146000D01*
X69092900Y-75907100D02*
X69092900Y-75112200D01*
X68528900Y-83407100D02*
X68179300Y-83057500D01*
X68368000Y-80907100D02*
X69092900Y-80907100D01*
X68291800Y-78131700D02*
X68817500Y-78131700D01*
X69092900Y-68407100D02*
X67824900Y-67139100D01*
X68817500Y-78131700D02*
X69092900Y-78407100D01*
X68661800Y-54891300D02*
X69092900Y-54460200D01*
X68661800Y-55270900D02*
X68628700Y-55270900D01*
X69092900Y-54460200D02*
X69092900Y-53407100D01*
X68661800Y-55476000D02*
X68661800Y-55270900D01*
X68325800Y-63407100D02*
X69092900Y-63407100D01*
X68179300Y-83057500D02*
X67823200Y-82701400D01*
X69092900Y-73407100D02*
X67955100Y-73407100D01*
X69092900Y-83407100D02*
X68528900Y-83407100D01*
X67824900Y-67139100D02*
X67824900Y-66367200D01*
X69092900Y-75112200D02*
X68690600Y-74709900D01*
X68285000Y-65907100D02*
X69092900Y-65907100D01*
X67832400Y-73528200D02*
X67953500Y-73407100D01*
X67586900Y-64146000D02*
X67586900Y-65209000D01*
X69092900Y-60907100D02*
X68367400Y-60907100D01*
X67840800Y-61433700D02*
X67840800Y-62922100D01*
X69092900Y-70907100D02*
X69092900Y-73407100D01*
X68690600Y-74709900D02*
X68332700Y-74709900D01*
X69092900Y-58407100D02*
X69092900Y-60907100D01*
X67832400Y-74209600D02*
X67832400Y-73528200D01*
X68332700Y-74709900D02*
X67832400Y-74209600D01*
X69092900Y-53407100D02*
X69092900Y-50907100D01*
X71511100Y-63488900D02*
X71592900Y-63407100D01*
X70332700Y-86410800D02*
X70332700Y-87146900D01*
X70846300Y-83407100D02*
X70846300Y-82611200D01*
X70807400Y-72219900D02*
X70334100Y-71746600D01*
X70339900Y-83913500D02*
X70846300Y-83407100D01*
X71592900Y-76692700D02*
X71592900Y-75907100D01*
X71431200Y-68407100D02*
X71592900Y-68407100D01*
X71441100Y-77302900D02*
X71441100Y-76844500D01*
X70298400Y-69687200D02*
X70298400Y-68905800D01*
X71431200Y-73245400D02*
X71592900Y-73407100D01*
X70855000Y-53407100D02*
X71592900Y-53407100D01*
X70587400Y-69976200D02*
X70298400Y-69687200D01*
X70041700Y-54355800D02*
X70041600Y-54355800D01*
X70292500Y-81419600D02*
X70805000Y-80907100D01*
X70797100Y-68407100D02*
X71431200Y-68407100D01*
X70041600Y-54355800D02*
X70041600Y-54220500D01*
X70041600Y-54220500D02*
X70855000Y-53407100D01*
X71592900Y-72058200D02*
X71431200Y-72219900D01*
X70332700Y-87146900D02*
X71592900Y-88407100D01*
X71592900Y-78407100D02*
X71592900Y-77761100D01*
X70298400Y-68905800D02*
X70797100Y-68407100D01*
X71592900Y-55907100D02*
X70041700Y-54355800D01*
X70334100Y-71746600D02*
X70334100Y-71073200D01*
X70500900Y-77302900D02*
X71441100Y-77302900D01*
X70339900Y-84654100D02*
X70339900Y-83913500D01*
X70846300Y-83407100D02*
X71592900Y-83407100D01*
X71592900Y-63407100D02*
X71592900Y-60907100D01*
X70788400Y-82212700D02*
X70292500Y-81716800D01*
X71431200Y-72219900D02*
X71431200Y-73245400D01*
X70788400Y-82553300D02*
X70788400Y-82212700D01*
X71592900Y-77761100D02*
X71441100Y-77609300D01*
X70587400Y-70819900D02*
X70587400Y-69976200D01*
X71431200Y-67599700D02*
X71592900Y-67438000D01*
X71592900Y-67438000D02*
X71592900Y-65907100D01*
X71592900Y-70907100D02*
X71592900Y-72058200D01*
X71592900Y-58407100D02*
X71592900Y-55907100D01*
X70805000Y-80907100D02*
X71592900Y-80907100D01*
X71441100Y-77609300D02*
X71441100Y-77302900D01*
X71431200Y-67599700D02*
X71431200Y-68407100D01*
X71431200Y-72219900D02*
X70807400Y-72219900D01*
X70334100Y-71073200D02*
X70587400Y-70819900D01*
X71592900Y-53407100D02*
X71592900Y-50907100D01*
X70041700Y-54355800D02*
X69573400Y-54824100D01*
X71214700Y-85528800D02*
X70332700Y-86410800D01*
X71592900Y-85907100D02*
X71214700Y-85528800D01*
X71441100Y-76844500D02*
X71592900Y-76692700D01*
X70292500Y-81716800D02*
X70292500Y-81419600D01*
X70846300Y-82611200D02*
X70788400Y-82553300D01*
X70246400Y-63488900D02*
X71511100Y-63488900D01*
X71214700Y-85528800D02*
X70339900Y-84654100D01*
X74092900Y-85907100D02*
X74092900Y-88407100D01*
X72990900Y-59805100D02*
X74092900Y-60907100D01*
X74092900Y-78407100D02*
X74092900Y-80907100D01*
X74092900Y-76417300D02*
X74092900Y-75907100D01*
X75272900Y-52304000D02*
X75196000Y-52304000D01*
X74092900Y-83407100D02*
X74092900Y-85907100D01*
X74285400Y-82602400D02*
X74285400Y-83214600D01*
X71836800Y-59805100D02*
X72990900Y-59805100D01*
X71730400Y-59698700D02*
X71836800Y-59805100D01*
X74092900Y-55907100D02*
X75194700Y-55907100D01*
X74092900Y-65907100D02*
X74092900Y-65209900D01*
X74285400Y-81099600D02*
X74285400Y-82602400D01*
X74092900Y-73980500D02*
X74511100Y-74398700D01*
X74565500Y-67934500D02*
X74092900Y-68407100D01*
X74092900Y-73407100D02*
X74092900Y-73980500D01*
X74092900Y-70907100D02*
X74092900Y-68407100D01*
X74226900Y-65075900D02*
X74226900Y-63541100D01*
X75196000Y-52304000D02*
X74092900Y-53407100D01*
X74226900Y-63541100D02*
X74092900Y-63407100D01*
X74381100Y-76705500D02*
X74092900Y-76417300D01*
X74092900Y-58407100D02*
X74092900Y-55907100D01*
X74092900Y-80907100D02*
X74285400Y-81099600D01*
X75196000Y-52304000D02*
X75196000Y-52010200D01*
X75196000Y-52010200D02*
X74092900Y-50907100D01*
X74285400Y-83214600D02*
X74092900Y-83407100D01*
X74092900Y-65209900D02*
X74226900Y-65075900D01*
X75194700Y-55907100D02*
X75360700Y-55741100D01*
X74645700Y-67934500D02*
X74565500Y-67934500D01*
X75545400Y-83407100D02*
X76592900Y-83407100D01*
X76592900Y-80907100D02*
X76454800Y-80769000D01*
X77347000Y-58739000D02*
X77015100Y-58407100D01*
X76592900Y-65907100D02*
X76089100Y-65403300D01*
X76341800Y-60656000D02*
X76592900Y-60907100D01*
X75857700Y-85907100D02*
X75318800Y-86446000D01*
X75322700Y-78641200D02*
X75322700Y-80099300D01*
X75327600Y-83624900D02*
X75545400Y-83407100D01*
X75823500Y-63407100D02*
X76592900Y-63407100D01*
X76717500Y-73282500D02*
X76717500Y-71722200D01*
X76592900Y-70907100D02*
X76592900Y-71597600D01*
X76454800Y-80769000D02*
X75992400Y-80769000D01*
X76592900Y-53407100D02*
X76592900Y-50907100D01*
X76592900Y-75907100D02*
X76122300Y-75436500D01*
X75292100Y-64674800D02*
X75292100Y-63938500D01*
X76122300Y-75436500D02*
X76122300Y-75305100D01*
X76592900Y-55907100D02*
X76831100Y-56145300D01*
X77015100Y-58407100D02*
X76592900Y-58407100D01*
X75286000Y-60656000D02*
X76341800Y-60656000D01*
X76831100Y-56145300D02*
X77395200Y-56145300D01*
X75992400Y-80769000D02*
X75211400Y-81550000D01*
X76253200Y-68407100D02*
X75889200Y-68043100D01*
X75782400Y-78181500D02*
X76367300Y-78181500D01*
X76592900Y-53407100D02*
X77122300Y-53936500D01*
X75318800Y-86446000D02*
X75318800Y-87133000D01*
X75327600Y-85377000D02*
X75327600Y-83624900D01*
X75211400Y-81550000D02*
X75211400Y-83073100D01*
X75318800Y-87133000D02*
X76592900Y-88407100D01*
X76592900Y-73407100D02*
X76717500Y-73282500D01*
X75857700Y-85907100D02*
X75327600Y-85377000D01*
X76592900Y-68407100D02*
X76253200Y-68407100D01*
X76592900Y-71597600D02*
X76717500Y-71722200D01*
X76089100Y-65403300D02*
X76020600Y-65403300D01*
X76020600Y-65403300D02*
X75292100Y-64674800D01*
X75782400Y-78181500D02*
X75322700Y-78641200D01*
X75322700Y-80099300D02*
X75992400Y-80769000D01*
X76367300Y-78181500D02*
X76592900Y-78407100D01*
X75292100Y-63938500D02*
X75823500Y-63407100D01*
X75211400Y-83073100D02*
X75545400Y-83407100D01*
X76592900Y-85907100D02*
X75857700Y-85907100D01*
X78010000Y-78210000D02*
X78895800Y-78210000D01*
X77808100Y-53219100D02*
X77915000Y-53326000D01*
X79210000Y-86708900D02*
X79210000Y-86024200D01*
X79092900Y-62794100D02*
X78898800Y-62600000D01*
X78563700Y-57877900D02*
X79092900Y-58407100D01*
X78319600Y-50907100D02*
X77808100Y-51418600D01*
X78607100Y-83407100D02*
X79092900Y-83407100D01*
X78367600Y-70907100D02*
X79092900Y-70907100D01*
X79092900Y-50907100D02*
X78319600Y-50907100D01*
X79092900Y-57348700D02*
X78563700Y-57877900D01*
X79210000Y-86024200D02*
X79092900Y-85907100D01*
X77846500Y-59660700D02*
X79092900Y-60907100D01*
X75430800Y-59660700D02*
X77846500Y-59660700D01*
X79092900Y-63407100D02*
X79092900Y-65907100D01*
X78320600Y-67988100D02*
X78673900Y-67988100D01*
X79092900Y-53407100D02*
X79011800Y-53326000D01*
X79011800Y-53326000D02*
X77915000Y-53326000D01*
X79092900Y-75907100D02*
X79037300Y-75907100D01*
X79092900Y-73407100D02*
X79092900Y-73361800D01*
X77943300Y-72212200D02*
X77773800Y-72042700D01*
X77773800Y-72042700D02*
X77773800Y-71500900D01*
X79092900Y-78407100D02*
X79092900Y-80907100D01*
X79092900Y-55907100D02*
X79092900Y-57348700D01*
X75269700Y-59499600D02*
X75430800Y-59660700D01*
X77500000Y-82300000D02*
X78607100Y-83407100D01*
X79092900Y-73361800D02*
X77943300Y-72212200D01*
X77808100Y-51418600D02*
X77808100Y-53219100D01*
X78895800Y-78210000D02*
X79092900Y-78407100D01*
X79092900Y-63407100D02*
X79092900Y-62794100D01*
X78673900Y-67988100D02*
X79092900Y-68407100D01*
X77773800Y-71500900D02*
X78367600Y-70907100D01*
X79092900Y-88407100D02*
X79210000Y-88290000D01*
X79037300Y-75907100D02*
X77964600Y-74834400D01*
X79210000Y-88290000D02*
X79210000Y-86708900D01*
X81968900Y-79127100D02*
X81592900Y-78751100D01*
X81592900Y-78751100D02*
X81592900Y-78407100D01*
X81592900Y-65505100D02*
X81942600Y-65155400D01*
X81592900Y-85907100D02*
X81592900Y-88407100D01*
X81708400Y-74442700D02*
X81708400Y-75791600D01*
X81592900Y-83407100D02*
X81592900Y-85907100D01*
X81592900Y-50907100D02*
X81592900Y-53407100D01*
X81708400Y-73522600D02*
X81708400Y-74442700D01*
X80125800Y-53407100D02*
X81592900Y-53407100D01*
X81592900Y-57594000D02*
X81590200Y-57594000D01*
X79964300Y-53568600D02*
X80125800Y-53407100D01*
X81592900Y-70907100D02*
X81592900Y-73407100D01*
X81942600Y-65155400D02*
X81592900Y-64805700D01*
X81592900Y-58407100D02*
X81592900Y-57594000D01*
X81592900Y-73407100D02*
X81708400Y-73522600D01*
X81592900Y-64805700D02*
X81592900Y-63407100D01*
X81708400Y-75791600D02*
X81592900Y-75907100D01*
X82323517Y-67746483D02*
X81662900Y-68407100D01*
X81592900Y-79503100D02*
X81592900Y-80907100D01*
X81968900Y-79127100D02*
X81592900Y-79503100D01*
X81592900Y-57594000D02*
X81592900Y-55907100D01*
X81662900Y-68407100D02*
X81592900Y-68407100D01*
X82446483Y-67746483D02*
X82323517Y-67746483D01*
X81592900Y-80907100D02*
X81592900Y-83407100D01*
X81592900Y-60907100D02*
X81592900Y-60110700D01*
X81592900Y-60110700D02*
X81598500Y-60105100D01*
X81592900Y-65907100D02*
X81592900Y-65505100D01*
X82812700Y-87501200D02*
X83718600Y-88407100D01*
X83773700Y-65907100D02*
X84092900Y-65907100D01*
X84035900Y-73350100D02*
X84673700Y-72712300D01*
X84273100Y-53407100D02*
X84092900Y-53407100D01*
X83718600Y-88407100D02*
X84092900Y-88407100D01*
X84092900Y-58407100D02*
X83982800Y-58517200D01*
X83338300Y-63407100D02*
X83030500Y-63714900D01*
X84092900Y-75907100D02*
X83455700Y-75907100D01*
X84092900Y-53407100D02*
X84092900Y-50907100D01*
X83074400Y-81174800D02*
X82914500Y-81015000D01*
X82734200Y-63418700D02*
X83030500Y-63714900D01*
X83074400Y-81174800D02*
X83342100Y-80907100D01*
X82839800Y-75291200D02*
X82839800Y-73512600D01*
X82832400Y-63913000D02*
X82832400Y-64965800D01*
X84443900Y-83758100D02*
X84092900Y-83407100D01*
X83982800Y-58517200D02*
X83982800Y-59823700D01*
X83030500Y-63714900D02*
X82832400Y-63913000D01*
X83074400Y-81174800D02*
X82800000Y-81449200D01*
X82800000Y-81449200D02*
X82800000Y-82114200D01*
X84092900Y-63407100D02*
X83338300Y-63407100D01*
X84673700Y-71487900D02*
X84092900Y-70907100D01*
X84092900Y-85907100D02*
X83332900Y-85907100D01*
X84035900Y-73350100D02*
X84092900Y-73407100D01*
X84715700Y-53849700D02*
X84273100Y-53407100D01*
X83039380Y-68407100D02*
X84092900Y-68407100D01*
X84092900Y-85907100D02*
X84443900Y-85556100D01*
X83002300Y-73350100D02*
X84035900Y-73350100D01*
X83332900Y-85907100D02*
X82812700Y-86427300D01*
X83342100Y-80907100D02*
X84092900Y-80907100D01*
X82999434Y-68447046D02*
X83039380Y-68407100D01*
X83982800Y-59823700D02*
X83982800Y-60797000D01*
X84443900Y-85556100D02*
X84443900Y-83758100D01*
X84092900Y-80907100D02*
X84092900Y-78407100D01*
X83455700Y-75907100D02*
X82839800Y-75291200D01*
X82839800Y-73512600D02*
X83002300Y-73350100D01*
X82812700Y-86427300D02*
X82812700Y-87501200D01*
X82832400Y-64965800D02*
X83773700Y-65907100D01*
X84189400Y-56003600D02*
X84897300Y-56003600D01*
X84092900Y-55907100D02*
X84189400Y-56003600D01*
X82800000Y-82114200D02*
X84092900Y-83407100D01*
X84673700Y-72712300D02*
X84673700Y-71487900D01*
X83982800Y-59823700D02*
X83797000Y-59823700D01*
X83982800Y-60797000D02*
X84092900Y-60907100D01*
X85867100Y-70907100D02*
X85867100Y-70852400D01*
X86592900Y-68407100D02*
X86592900Y-67683800D01*
X86592900Y-83407100D02*
X86032600Y-83407100D01*
X86592900Y-79165200D02*
X86072000Y-79686100D01*
X86592900Y-67683800D02*
X86501800Y-67592700D01*
X86592900Y-59657100D02*
X86592900Y-58407100D01*
X86592900Y-60907100D02*
X86592900Y-59657100D01*
X86781800Y-51096000D02*
X86781800Y-53201600D01*
X86592900Y-73407100D02*
X85330900Y-72145100D01*
X86032600Y-83407100D02*
X85806000Y-83407100D01*
X86592900Y-59657100D02*
X86366532Y-59883468D01*
X87408800Y-56005200D02*
X86691000Y-56005200D01*
X86781800Y-53218200D02*
X86592900Y-53407100D01*
X86781800Y-53201600D02*
X86781800Y-53218200D01*
X85289000Y-83924100D02*
X85289000Y-84603200D01*
X85330900Y-71443300D02*
X85867100Y-70907100D01*
X86592900Y-78407100D02*
X86592900Y-79165200D01*
X86032600Y-82919300D02*
X86032600Y-83407100D01*
X85867100Y-70852400D02*
X85791500Y-70776800D01*
X87396600Y-53201600D02*
X86781800Y-53201600D01*
X86592900Y-63407100D02*
X86592900Y-65907100D01*
X86592900Y-50907100D02*
X86781800Y-51096000D01*
X86366532Y-59883468D02*
X86022613Y-59883468D01*
X86100000Y-82851900D02*
X86032600Y-82919300D01*
X85803500Y-79686100D02*
X85292400Y-79175000D01*
X85330900Y-72145100D02*
X85330900Y-71443300D01*
X86072000Y-79686100D02*
X85803500Y-79686100D01*
X86072000Y-80386200D02*
X86592900Y-80907100D01*
X86072000Y-79686100D02*
X86072000Y-80386200D01*
X86592900Y-88407100D02*
X86592900Y-85907100D01*
X86691000Y-56005200D02*
X86592900Y-55907100D01*
X85867100Y-70907100D02*
X86592900Y-70907100D01*
X85292400Y-79175000D02*
X85292400Y-78363400D01*
X86013100Y-62889100D02*
X86074900Y-62889100D01*
X86074900Y-62889100D02*
X86592900Y-63407100D01*
X86592900Y-75907100D02*
X85257600Y-75907100D01*
X85806000Y-83407100D02*
X85289000Y-83924100D01*
X85289000Y-84603200D02*
X86592900Y-85907100D01*
X89092900Y-60907100D02*
X89092900Y-58407100D01*
X89092900Y-53407100D02*
X89092900Y-50907100D01*
X89092900Y-78407100D02*
X89658800Y-78973000D01*
X89092900Y-68407100D02*
X89092900Y-65907100D01*
X89092900Y-65907100D02*
X89601100Y-65398900D01*
X89092900Y-75907100D02*
X89255300Y-75744700D01*
X87985000Y-82981000D02*
X88666800Y-82981000D01*
X89092900Y-55907100D02*
X89092900Y-58407100D01*
X89658800Y-78973000D02*
X89658800Y-80341200D01*
X89092900Y-80907100D02*
X89092900Y-82554900D01*
X89231200Y-85768800D02*
X89231200Y-83545400D01*
X89601100Y-65398900D02*
X89601100Y-63915300D01*
X88666800Y-82981000D02*
X89092900Y-83407100D01*
X89092900Y-88407100D02*
X89092900Y-85907100D01*
X89092900Y-55907100D02*
X89092900Y-53407100D01*
X89092900Y-82554900D02*
X88666800Y-82981000D01*
X89601100Y-63915300D02*
X89092900Y-63407100D01*
X89658800Y-80341200D02*
X89092900Y-80907100D01*
X89255300Y-75744700D02*
X89255300Y-73569500D01*
X89231200Y-83545400D02*
X89092900Y-83407100D01*
X89255300Y-73569500D02*
X89092900Y-73407100D01*
X89092900Y-73407100D02*
X89092900Y-70907100D01*
X89092900Y-63407100D02*
X89092900Y-60907100D01*
X89092900Y-85907100D02*
X89231200Y-85768800D01*
X89092900Y-70907100D02*
X89092900Y-68407100D01*
X89092900Y-78407100D02*
X89092900Y-75907100D01*
X63649700Y-77607000D02*
X63412900Y-77370200D01*
X63412900Y-77370200D02*
X57714500Y-77370200D01*
X82630100Y-75914300D02*
X82210800Y-75495000D01*
X82210800Y-75495000D02*
X82210800Y-72748400D01*
M02*
